<svg width="356" height="334" viewBox="0 0 356 334" fill="none" xmlns="http://www.w3.org/2000/svg">
  <rect x="0.63916" y="0.478271" width="355" height="333" rx="28" fill="#1F2336" />
  <g clip-path="url(#clip0_36_11215)">
    <path d="M180.245 58.6672C175.849 58.6672 171.633 60.4384 168.525 63.5911C165.416 66.7437 163.67 71.0197 163.67 75.4783C163.67 79.9369 165.416 84.2129 168.525 87.3656C171.633 90.5182 175.849 92.2894 180.245 92.2894C184.641 92.2894 188.857 90.5182 191.966 87.3656C195.074 84.2129 196.82 79.9369 196.82 75.4783C196.82 71.0197 195.074 66.7437 191.966 63.5911C188.857 60.4384 184.641 58.6672 180.245 58.6672ZM180.245 85.565C177.608 85.565 175.078 84.5023 173.213 82.6107C171.348 80.719 170.3 78.1535 170.3 75.4783C170.3 72.8032 171.348 70.2376 173.213 68.3459C175.078 66.4543 177.608 65.3916 180.245 65.3916C182.883 65.3916 185.412 66.4543 187.277 68.3459C189.143 70.2376 190.19 72.8032 190.19 75.4783C190.19 78.1535 189.143 80.719 187.277 82.6107C185.412 84.5023 182.883 85.565 180.245 85.565ZM180.245 41.8561L188.168 53.3549C185.715 52.4471 183.03 51.9427 180.245 51.9427C177.461 51.9427 174.775 52.4471 172.322 53.3549L180.245 41.8561ZM151.537 58.6672L165.328 57.4904C163.27 59.253 161.522 61.3561 160.156 63.7105C158.698 66.1986 157.869 68.7539 157.405 71.41L151.537 58.6672ZM151.603 92.2894L157.438 79.6138C158.412 85.0355 161.199 89.9511 165.328 93.5334L151.603 92.2894ZM180.245 109.101L172.256 97.5345C174.709 98.4423 177.394 99.0139 180.245 99.0139C182.964 99.0139 185.649 98.4423 188.102 97.5345M203.45 78.8405V58.6672H210.08V78.8405H203.45ZM203.45 92.2894V85.565H210.08V92.2894" fill="#AE45BE" />
  </g>
  <path d="M90.9742 184.478L100.52 158.578H104.812L114.284 184.478H110.14L107.92 178.151H97.3382L95.1182 184.478H90.9742ZM98.4482 175.043H106.81L102.629 163.24L98.4482 175.043ZM125.171 184.922C123.395 184.922 121.828 184.503 120.472 183.664C119.115 182.826 118.054 181.679 117.29 180.223C116.525 178.768 116.143 177.115 116.143 175.265C116.143 173.415 116.525 171.775 117.29 170.344C118.054 168.889 119.115 167.754 120.472 166.94C121.853 166.102 123.432 165.682 125.208 165.682C126.663 165.682 127.933 165.966 129.019 166.533C130.129 167.101 130.992 167.902 131.609 168.938V157.838H135.531V184.478H132.016L131.609 181.629C131.017 182.493 130.203 183.257 129.167 183.923C128.131 184.589 126.799 184.922 125.171 184.922ZM125.874 181.518C127.551 181.518 128.92 180.939 129.981 179.779C131.066 178.62 131.609 177.128 131.609 175.302C131.609 173.452 131.066 171.96 129.981 170.825C128.92 169.666 127.551 169.086 125.874 169.086C124.196 169.086 122.815 169.666 121.73 170.825C120.644 171.96 120.102 173.452 120.102 175.302C120.102 176.511 120.348 177.584 120.842 178.521C121.335 179.459 122.013 180.199 122.877 180.741C123.765 181.259 124.764 181.518 125.874 181.518ZM145.619 184.478L138.737 166.126H142.844L147.95 180.741L153.056 166.126H157.126L150.281 184.478H145.619ZM162.569 162.648C161.829 162.648 161.212 162.426 160.719 161.982C160.25 161.514 160.016 160.934 160.016 160.243C160.016 159.553 160.25 158.985 160.719 158.541C161.212 158.073 161.829 157.838 162.569 157.838C163.309 157.838 163.913 158.073 164.382 158.541C164.875 158.985 165.122 159.553 165.122 160.243C165.122 160.934 164.875 161.514 164.382 161.982C163.913 162.426 163.309 162.648 162.569 162.648ZM160.608 184.478V166.126H164.53V184.478H160.608ZM177.033 184.922C174.714 184.922 172.803 184.355 171.298 183.22C169.793 182.086 168.93 180.581 168.708 178.706H172.667C172.864 179.545 173.333 180.273 174.073 180.889C174.813 181.481 175.787 181.777 176.996 181.777C178.18 181.777 179.043 181.531 179.586 181.037C180.129 180.544 180.4 179.977 180.4 179.335C180.4 178.398 180.018 177.769 179.253 177.448C178.513 177.103 177.477 176.795 176.145 176.523C175.109 176.301 174.073 176.005 173.037 175.635C172.026 175.265 171.175 174.747 170.484 174.081C169.818 173.391 169.485 172.466 169.485 171.306C169.485 169.703 170.102 168.371 171.335 167.31C172.568 166.225 174.295 165.682 176.515 165.682C178.562 165.682 180.215 166.176 181.473 167.162C182.756 168.149 183.508 169.543 183.73 171.343H179.956C179.833 170.554 179.463 169.937 178.846 169.493C178.254 169.049 177.452 168.827 176.441 168.827C175.454 168.827 174.69 169.037 174.147 169.456C173.604 169.851 173.333 170.369 173.333 171.01C173.333 171.652 173.703 172.157 174.443 172.527C175.208 172.897 176.207 173.23 177.44 173.526C178.673 173.798 179.808 174.118 180.844 174.488C181.905 174.834 182.756 175.352 183.397 176.042C184.038 176.733 184.359 177.744 184.359 179.076C184.384 180.754 183.73 182.147 182.398 183.257C181.091 184.367 179.302 184.922 177.033 184.922ZM197.225 184.922C195.473 184.922 193.895 184.528 192.489 183.738C191.107 182.924 190.01 181.802 189.196 180.371C188.382 178.916 187.975 177.226 187.975 175.302C187.975 173.378 188.382 171.701 189.196 170.27C190.034 168.815 191.157 167.693 192.563 166.903C193.969 166.089 195.535 165.682 197.262 165.682C199.013 165.682 200.579 166.089 201.961 166.903C203.367 167.693 204.477 168.815 205.291 170.27C206.129 171.701 206.549 173.378 206.549 175.302C206.549 177.226 206.129 178.916 205.291 180.371C204.477 181.802 203.367 182.924 201.961 183.738C200.555 184.528 198.976 184.922 197.225 184.922ZM197.225 181.555C198.162 181.555 199.025 181.321 199.815 180.852C200.629 180.384 201.282 179.693 201.776 178.78C202.269 177.843 202.516 176.684 202.516 175.302C202.516 173.921 202.269 172.774 201.776 171.861C201.307 170.924 200.666 170.221 199.852 169.752C199.062 169.284 198.199 169.049 197.262 169.049C196.324 169.049 195.449 169.284 194.635 169.752C193.845 170.221 193.204 170.924 192.711 171.861C192.217 172.774 191.971 173.921 191.971 175.302C191.971 176.684 192.217 177.843 192.711 178.78C193.204 179.693 193.845 180.384 194.635 180.852C195.424 181.321 196.287 181.555 197.225 181.555ZM210.79 184.478V166.126H214.305L214.638 169.604C215.279 168.396 216.167 167.446 217.302 166.755C218.461 166.04 219.855 165.682 221.483 165.682V169.789H220.41C219.325 169.789 218.35 169.974 217.487 170.344C216.648 170.69 215.97 171.294 215.452 172.157C214.959 172.996 214.712 174.168 214.712 175.672V184.478H210.79ZM227.066 162.648C226.326 162.648 225.709 162.426 225.216 161.982C224.747 161.514 224.513 160.934 224.513 160.243C224.513 159.553 224.747 158.985 225.216 158.541C225.709 158.073 226.326 157.838 227.066 157.838C227.806 157.838 228.41 158.073 228.879 158.541C229.372 158.985 229.619 159.553 229.619 160.243C229.619 160.934 229.372 161.514 228.879 161.982C228.41 162.426 227.806 162.648 227.066 162.648ZM225.105 184.478V166.126H229.027V184.478H225.105ZM242.788 184.922C240.987 184.922 239.384 184.528 237.978 183.738C236.597 182.924 235.511 181.802 234.722 180.371C233.933 178.941 233.538 177.276 233.538 175.376C233.538 173.452 233.92 171.763 234.685 170.307C235.474 168.852 236.56 167.717 237.941 166.903C239.347 166.089 240.975 165.682 242.825 165.682C244.626 165.682 246.192 166.089 247.524 166.903C248.856 167.693 249.892 168.753 250.632 170.085C251.372 171.417 251.742 172.885 251.742 174.488C251.742 174.735 251.73 175.006 251.705 175.302C251.705 175.574 251.693 175.882 251.668 176.227H237.386C237.509 178.003 238.089 179.36 239.125 180.297C240.186 181.21 241.407 181.666 242.788 181.666C243.898 181.666 244.823 181.42 245.563 180.926C246.328 180.408 246.895 179.718 247.265 178.854H251.187C250.694 180.581 249.707 182.024 248.227 183.183C246.772 184.343 244.959 184.922 242.788 184.922ZM242.788 168.901C241.481 168.901 240.321 169.296 239.31 170.085C238.299 170.85 237.682 172.009 237.46 173.563H247.82C247.746 172.133 247.24 170.998 246.303 170.159C245.366 169.321 244.194 168.901 242.788 168.901ZM263.138 184.922C260.819 184.922 258.907 184.355 257.403 183.22C255.898 182.086 255.035 180.581 254.813 178.706H258.772C258.969 179.545 259.438 180.273 260.178 180.889C260.918 181.481 261.892 181.777 263.101 181.777C264.285 181.777 265.148 181.531 265.691 181.037C266.233 180.544 266.505 179.977 266.505 179.335C266.505 178.398 266.122 177.769 265.358 177.448C264.618 177.103 263.582 176.795 262.25 176.523C261.214 176.301 260.178 176.005 259.142 175.635C258.13 175.265 257.279 174.747 256.589 174.081C255.923 173.391 255.59 172.466 255.59 171.306C255.59 169.703 256.206 168.371 257.44 167.31C258.673 166.225 260.4 165.682 262.62 165.682C264.667 165.682 266.32 166.176 267.578 167.162C268.86 168.149 269.613 169.543 269.835 171.343H266.061C265.937 170.554 265.567 169.937 264.951 169.493C264.359 169.049 263.557 168.827 262.546 168.827C261.559 168.827 260.794 169.037 260.252 169.456C259.709 169.851 259.438 170.369 259.438 171.01C259.438 171.652 259.808 172.157 260.548 172.527C261.312 172.897 262.311 173.23 263.545 173.526C264.778 173.798 265.913 174.118 266.949 174.488C268.009 174.834 268.86 175.352 269.502 176.042C270.143 176.733 270.464 177.744 270.464 179.076C270.488 180.754 269.835 182.147 268.503 183.257C267.195 184.367 265.407 184.922 263.138 184.922Z" fill="white" />
  <path d="M181.136 258.922C178.793 258.922 176.77 258.367 175.068 257.257C173.391 256.123 172.096 254.556 171.183 252.558C170.295 250.536 169.851 248.192 169.851 245.528C169.851 242.864 170.295 240.533 171.183 238.535C172.096 236.513 173.391 234.946 175.068 233.836C176.77 232.702 178.793 232.134 181.136 232.134C183.48 232.134 185.49 232.702 187.167 233.836C188.845 234.946 190.127 236.513 191.015 238.535C191.928 240.533 192.384 242.864 192.384 245.528C192.384 248.192 191.928 250.536 191.015 252.558C190.127 254.556 188.845 256.123 187.167 257.257C185.49 258.367 183.48 258.922 181.136 258.922ZM181.136 255.407C182.542 255.407 183.788 255.013 184.873 254.223C185.983 253.434 186.847 252.299 187.463 250.819C188.08 249.339 188.388 247.576 188.388 245.528C188.388 243.481 188.08 241.717 187.463 240.237C186.847 238.757 185.983 237.623 184.873 236.833C183.788 236.044 182.542 235.649 181.136 235.649C179.706 235.649 178.448 236.044 177.362 236.833C176.277 237.623 175.426 238.757 174.809 240.237C174.193 241.717 173.884 243.481 173.884 245.528C173.884 247.576 174.193 249.339 174.809 250.819C175.426 252.299 176.277 253.434 177.362 254.223C178.448 255.013 179.706 255.407 181.136 255.407Z" fill="white" />
  <defs>
    <clipPath id="clip0_36_11215">
      <rect width="59" height="68" fill="white" transform="translate(151.639 41.4783)" />
    </clipPath>
  </defs>
</svg>
