<svg width="39" height="41" viewBox="0 0 39 41" fill="white" xmlns="http://www.w3.org/2000/svg">
  <g clip-path="url(#clip0_37_172)">
    <path d="M30.7665 3.77272L36.9504 10.0033C37.3568 10.4126 37.6792 10.8986 37.8992 11.4335C38.1191 11.9683 38.2323 12.5416 38.2323 13.1205C38.2323 13.6994 38.1191 14.2727 37.8992 14.8076C37.6792 15.3424 37.3568 15.8284 36.9504 16.2378L31.9239 21.3006C32.9591 21.4585 33.9038 21.985 34.5865 22.7845C35.2693 23.584 35.6449 24.6035 35.6451 25.6581V35.9444C35.6451 37.1135 35.184 38.2348 34.3632 39.0616C33.5424 39.8883 32.4292 40.3528 31.2684 40.3528H5.00765C3.84685 40.3528 2.7336 39.8883 1.91279 39.0616C1.09198 38.2348 0.630859 37.1135 0.630859 35.9444V9.49386C0.630859 8.32468 1.09198 7.20338 1.91279 6.37664C2.7336 5.54991 3.84685 5.08545 5.00765 5.08545H15.2201C16.268 5.08541 17.2812 5.46406 18.0754 6.15258C18.8697 6.8411 19.3923 7.79379 19.5483 8.8375L24.5767 3.77272C24.9832 3.36336 25.4657 3.03863 25.9967 2.81708C26.5277 2.59553 27.0968 2.48151 27.6716 2.48151C28.2464 2.48151 28.8155 2.59553 29.3466 2.81708C29.8776 3.03863 30.3601 3.36336 30.7665 3.77272ZM3.54872 35.9444C3.54872 36.7575 4.20232 37.4138 5.00765 37.4138H16.6771L16.6791 24.1886H3.54872V35.9444ZM19.595 37.4138H31.2684C31.6553 37.4138 32.0264 37.259 32.3 36.9834C32.5736 36.7079 32.7273 36.3341 32.7273 35.9444V25.6581C32.7273 25.2683 32.5736 24.8946 32.3 24.619C32.0264 24.3434 31.6553 24.1886 31.2684 24.1886H19.595V37.4138ZM15.2201 8.02439H5.00765C4.62071 8.02439 4.24963 8.17921 3.97603 8.45479C3.70242 8.73037 3.54872 9.10414 3.54872 9.49386V21.2496H16.6791V9.49386C16.6791 9.10414 16.5254 8.73037 16.2518 8.45479C15.9782 8.17921 15.6071 8.02439 15.2201 8.02439ZM19.5969 17.4486V21.2496H23.3707L19.5969 17.4486ZM26.6387 5.85349L20.4587 12.0801C20.3231 12.2166 20.2156 12.3786 20.1422 12.557C20.0688 12.7353 20.031 12.9265 20.031 13.1195C20.031 13.3126 20.0688 13.5038 20.1422 13.6821C20.2156 13.8604 20.3231 14.0225 20.4587 14.1589L26.6426 20.3876C26.9161 20.6627 27.2869 20.8173 27.6736 20.8173C28.0602 20.8173 28.431 20.6627 28.7045 20.3876L34.8904 14.1589C35.1636 13.8834 35.3171 13.5099 35.3171 13.1205C35.3171 12.7311 35.1636 12.3576 34.8904 12.0821L28.7045 5.85153C28.431 5.57635 28.0602 5.42178 27.6736 5.42178C27.2869 5.42178 26.9161 5.57635 26.6426 5.85153L26.6387 5.85349Z" fill="white" />
  </g>
  <defs>
    <clipPath id="clip0_37_172">
      <rect width="38" height="40" fill="white" transform="translate(0.5 0.472687)" />
    </clipPath>
  </defs>
</svg>
