<svg width="358" height="404" viewBox="0 0 358 404" fill="none" xmlns="http://www.w3.org/2000/svg">
  <rect x="0.5" width="357" height="404" rx="28" fill="#1F2336" />
  <path d="M356.449 357.896C357.279 362.114 357.617 367.234 357.464 373.258C357.231 382.528 353.685 390.09 346.827 395.943C341.557 400.445 335.34 402.707 328.176 402.732C265.643 402.95 203.101 403.035 140.552 402.987C142.179 402.639 143.904 402.606 145.725 402.89C145.927 402.922 146.068 402.845 146.148 402.659C146.196 402.537 146.196 402.416 146.148 402.295C146.003 401.946 146.116 401.817 146.487 401.906C147.099 402.044 147.631 401.906 148.082 401.493C148.292 401.299 148.348 401.068 148.251 400.801L148.034 400.194C147.984 400.049 147.981 399.893 148.025 399.748C148.068 399.604 148.156 399.479 148.276 399.392C148.55 399.198 148.606 398.943 148.445 398.627C148.243 398.23 147.921 398.016 147.478 397.983C146.487 397.91 146.019 397.376 146.076 396.38C146.084 396.213 146.05 396.046 145.979 395.895C145.794 395.53 145.552 395.344 145.254 395.336C144.488 395.312 144.444 395.129 145.121 394.789C145.346 394.676 145.556 394.526 145.749 394.34C146.064 394.024 146.043 393.737 145.689 393.478C145.31 393.195 144.875 393.004 144.383 392.907C143.868 392.794 143.848 392.624 144.323 392.397C144.621 392.251 144.927 392.162 145.242 392.13C145.661 392.081 145.83 391.851 145.749 391.438C145.685 391.081 145.451 390.843 145.048 390.721C144.46 390.543 143.888 390.442 143.332 390.418C142.752 390.385 142.711 390.223 143.211 389.932C143.469 389.778 143.606 389.559 143.622 389.276C143.638 388.92 143.485 388.616 143.163 388.365C142.864 388.13 142.546 387.993 142.208 387.952C141.732 387.896 141.708 387.758 142.135 387.539C142.353 387.426 142.574 387.373 142.8 387.382C142.977 387.385 143.149 387.318 143.278 387.195C143.407 387.073 143.483 386.904 143.489 386.726C143.497 386.434 143.388 386.208 143.163 386.046C142.993 385.932 142.804 385.859 142.594 385.827C142.32 385.787 142.05 385.714 141.785 385.609C141.382 385.447 141.2 385.147 141.241 384.71C141.289 384.111 141.031 383.637 140.467 383.289C140.338 383.208 140.197 383.168 140.044 383.168C139.907 383.168 139.79 383.135 139.693 383.07C139.444 382.917 139.464 382.807 139.754 382.742C140.181 382.653 140.556 382.467 140.878 382.184C141.224 381.892 141.216 381.609 140.854 381.334C140.467 381.034 140.024 380.852 139.524 380.787C138.984 380.714 138.755 380.411 138.835 379.876C138.932 379.245 138.75 378.751 138.291 378.395C137.872 378.079 137.751 377.674 137.929 377.18C138.154 376.557 137.945 376.225 137.3 376.185C136.688 376.152 136.393 375.828 136.418 375.213C136.458 374.047 135.829 373.444 134.532 373.404C134.476 373.404 134.42 373.381 134.378 373.341C134.336 373.302 134.311 373.247 134.307 373.191C134.304 373.135 134.324 373.081 134.361 373.041C134.399 373.001 134.451 372.979 134.508 372.979C135.112 372.914 135.624 372.744 136.043 372.469C136.72 372.031 136.675 371.687 135.91 371.436L134.677 371.023C134.193 370.861 134.181 370.671 134.641 370.453C134.899 370.323 135.173 370.283 135.463 370.331C135.914 370.404 136.168 370.214 136.224 369.76C136.248 369.59 136.22 369.433 136.14 369.287C135.97 369.003 135.721 368.866 135.39 368.874C134.472 368.906 133.529 368.761 132.562 368.437C132.118 368.283 132.131 368.21 132.598 368.218C133.081 368.218 133.496 367.983 133.843 367.514C133.91 367.422 133.95 367.313 133.959 367.199C133.968 367.085 133.946 366.971 133.894 366.87C133.843 366.768 133.765 366.682 133.668 366.623C133.572 366.563 133.461 366.531 133.347 366.53C132.856 366.53 132.388 366.437 131.945 366.251C131.397 366.032 131.397 365.814 131.945 365.595C132.445 365.393 132.944 365.336 133.444 365.425C133.839 365.49 133.976 365.332 133.855 364.951L133.686 364.417C133.648 364.3 133.574 364.199 133.477 364.127C133.379 364.055 133.262 364.016 133.142 364.016L129.479 364.004C129.399 364.004 129.322 363.972 129.266 363.915C129.209 363.858 129.177 363.781 129.177 363.7V363.385C129.177 363.207 129.266 363.126 129.443 363.142C130.096 363.223 130.68 363.146 131.196 362.911C131.695 362.684 131.744 362.385 131.341 362.012C130.898 361.616 130.313 361.361 129.588 361.247C129.555 361.245 129.522 361.236 129.492 361.221C129.462 361.206 129.436 361.185 129.414 361.16C129.392 361.134 129.375 361.105 129.365 361.073C129.354 361.041 129.35 361.008 129.352 360.974C129.355 360.941 129.364 360.908 129.379 360.878C129.394 360.848 129.414 360.821 129.44 360.799C129.465 360.777 129.494 360.76 129.526 360.75C129.558 360.739 129.591 360.735 129.624 360.737C130.108 360.729 130.587 360.632 131.063 360.446C131.788 360.154 131.816 359.806 131.147 359.401C130.761 359.167 130.334 359.009 129.866 358.928C129.302 358.831 129.258 358.624 129.733 358.308C129.902 358.195 130.092 358.147 130.301 358.163C131.421 358.268 131.691 357.871 131.111 356.973C131.063 356.908 130.869 356.831 130.531 356.742C129.552 356.487 128.839 356.985 127.799 356.438C127.154 356.106 127.191 355.9 127.908 355.819C128.125 355.795 128.339 355.754 128.549 355.697C129.064 355.552 129.201 355.232 128.96 354.738C128.677 354.179 128.19 353.924 127.497 353.973C126.917 354.005 126.86 353.852 127.328 353.512C127.594 353.317 127.884 353.252 128.198 353.317C128.657 353.406 128.915 353.216 128.972 352.746C128.988 352.617 128.972 352.5 128.923 352.394C128.778 352.006 128.504 351.84 128.101 351.896C127.827 351.937 127.569 351.925 127.328 351.86C126.949 351.763 126.776 351.52 126.808 351.131C126.832 350.726 126.76 350.342 126.59 349.978C126.453 349.678 126.22 349.459 125.889 349.322C125.535 349.184 125.156 349.107 124.753 349.091C124.149 349.059 124.125 348.929 124.681 348.702C125.116 348.516 125.567 348.419 126.034 348.411C126.502 348.403 126.659 348.176 126.506 347.731C126.449 347.561 126.357 347.419 126.228 347.306C126.002 347.087 125.728 347.002 125.406 347.051C125.148 347.099 124.926 347.083 124.741 347.002C124.435 346.857 124.298 346.614 124.33 346.274C124.451 344.954 123.778 344.31 122.311 344.343C122.241 344.351 122.17 344.33 122.114 344.286C122.059 344.242 122.023 344.177 122.015 344.106C122.007 344.035 122.028 343.964 122.072 343.908C122.116 343.852 122.18 343.816 122.251 343.808L123.762 343.541C124.568 343.387 124.656 343.047 124.028 342.521C123.601 342.165 123.109 342.031 122.553 342.12C122.086 342.201 121.88 342.003 121.937 341.525C122.114 340.108 121.441 339.4 119.918 339.4C119.854 339.392 119.817 339.36 119.809 339.303C119.785 339.165 119.821 339.04 119.918 338.926C120.015 338.813 120.136 338.773 120.281 338.805C120.804 338.935 121.236 338.833 121.574 338.501C121.912 338.169 121.892 337.866 121.514 337.591C121.111 337.299 120.655 337.194 120.148 337.275C119.672 337.348 119.463 337.141 119.519 336.655C119.696 335.247 119.011 334.538 117.464 334.53C117.384 334.53 117.347 334.49 117.355 334.409C117.372 334.239 117.452 334.093 117.597 333.972C117.664 333.92 117.741 333.886 117.822 333.873C117.903 333.86 117.983 333.869 118.056 333.899C118.645 334.134 119.036 333.996 119.229 333.486C119.551 332.644 119.273 332.328 118.395 332.539C118.073 332.62 117.799 332.611 117.573 332.514C117.186 332.36 117.033 332.077 117.114 331.664C117.307 330.652 116.904 330.081 115.905 329.952C115.76 329.936 115.611 329.895 115.458 329.83C114.692 329.531 114.712 329.3 115.518 329.138C115.913 329.057 116.316 328.96 116.727 328.847C116.843 328.817 116.947 328.75 117.021 328.655C117.095 328.56 117.136 328.444 117.138 328.323C117.139 328.203 117.101 328.085 117.029 327.989C116.956 327.892 116.855 327.822 116.739 327.79L115.107 327.341C114.543 327.179 114.543 327.013 115.107 326.843C115.687 326.673 116.259 326.507 116.824 326.345C116.922 326.317 117.009 326.257 117.07 326.175C117.132 326.093 117.165 325.993 117.165 325.89C117.165 325.787 117.132 325.687 117.07 325.604C117.009 325.522 116.922 325.463 116.824 325.434C115.526 325.094 114.12 324.9 112.605 324.851C112.557 324.851 112.532 324.827 112.532 324.778C112.532 324.633 112.569 324.511 112.641 324.414C112.73 324.285 112.851 324.24 113.004 324.281C113.512 324.394 113.951 324.272 114.321 323.916C114.652 323.6 114.636 323.313 114.273 323.054C113.773 322.69 113.242 322.475 112.677 322.41C112.121 322.346 112.097 322.196 112.605 321.961C113.008 321.775 113.435 321.682 113.886 321.682C114.265 321.682 114.462 321.491 114.479 321.111C114.479 320.998 114.454 320.888 114.406 320.783C114.269 320.459 114.023 320.297 113.669 320.297L112.943 320.285C112.848 320.286 112.753 320.266 112.665 320.227C112.577 320.189 112.498 320.132 112.434 320.061C112.369 319.991 112.319 319.907 112.288 319.816C112.258 319.725 112.246 319.628 112.254 319.532C112.359 318.148 111.67 317.569 110.187 317.796C110.01 317.828 109.897 317.751 109.849 317.565C109.817 317.419 109.833 317.294 109.897 317.188C110.01 316.97 110.179 316.897 110.405 316.97C111.163 317.18 111.715 316.994 112.061 316.411C112.303 316.006 112.194 315.735 111.735 315.597C110.357 315.193 109.067 315.051 107.867 315.172C107.77 315.181 107.722 315.164 107.722 315.124V314.808C107.722 314.606 107.822 314.505 108.024 314.505L111.408 314.492C111.835 314.492 112.001 314.286 111.904 313.873L111.795 313.387C111.714 313.055 111.509 312.918 111.179 312.974C110.22 313.128 109.176 313.047 108.048 312.731C107.532 312.586 107.536 312.46 108.06 312.355C108.568 312.25 109.035 312.035 109.462 311.711C109.857 311.396 109.849 311.092 109.438 310.801C108.987 310.477 108.447 310.278 107.818 310.205C107.286 310.149 107.266 310.011 107.758 309.793C107.983 309.695 108.193 309.55 108.386 309.355C108.505 309.236 108.572 309.074 108.572 308.904C108.572 308.733 108.505 308.568 108.386 308.445C108.265 308.323 108.124 308.238 107.963 308.19C107.488 308.052 107.29 307.736 107.371 307.242C107.492 306.57 107.27 306.024 106.706 305.603C106.497 305.449 106.263 305.388 106.005 305.421C105.828 305.445 105.651 305.433 105.473 305.384C105.414 305.367 105.363 305.329 105.328 305.278C105.293 305.227 105.278 305.165 105.283 305.103C105.289 305.041 105.316 304.984 105.359 304.94C105.403 304.896 105.46 304.868 105.522 304.862C105.892 304.838 106.251 304.749 106.597 304.595C107.339 304.263 107.355 303.899 106.646 303.502C106.34 303.332 106.021 303.239 105.691 303.223C105.199 303.19 104.966 302.927 104.99 302.433C105.062 301.203 104.41 300.571 103.032 300.539C102.971 300.529 102.916 300.499 102.876 300.453C102.835 300.407 102.812 300.349 102.809 300.288C102.806 300.226 102.824 300.166 102.86 300.117C102.896 300.067 102.948 300.032 103.007 300.017L104.627 299.81C104.705 299.8 104.779 299.77 104.843 299.723C104.906 299.677 104.957 299.615 104.989 299.545C105.022 299.474 105.036 299.396 105.03 299.32C105.023 299.243 104.997 299.169 104.954 299.106L104.688 298.681C104.534 298.438 104.313 298.353 104.023 298.426C103.668 298.515 103.362 298.519 103.104 298.438C102.701 298.308 102.54 298.037 102.621 297.624C102.806 296.572 102.399 296.009 101.4 295.936C101.142 295.92 100.936 295.859 100.783 295.754C100.372 295.479 100.409 295.288 100.892 295.183C101.94 294.948 102.363 294.341 102.161 293.362C103.257 293.75 104.317 294.078 105.34 294.345C114.261 296.653 121.683 303.453 128.657 309.076C138.243 316.812 149.533 313.047 158.369 306.55C170.759 297.43 182.411 285.261 196.348 277.234C205.136 272.17 216.462 270.093 225.842 274.125C228.509 275.275 231.007 276.813 233.336 278.74C242.873 286.634 249.207 297.916 256.545 308.007C259.941 312.671 263.567 316.18 269.37 315.828C275.812 315.427 282.593 322.483 286.437 327.268C290.813 332.717 295.04 338.145 299.117 343.553C302.744 348.362 306.378 351.84 310.02 353.985C315.375 357.13 321.08 355.139 326.302 351.641C330.473 348.848 336.287 344.598 341.339 344.974C349.088 345.569 353.778 350.646 356.449 357.896Z" fill="#AE45BE" />
  <path d="M138.5 402.805C140.161 402.456 143.142 402.716 145 403C145.206 403.032 146.075 402.611 146.157 402.424C146.206 402.302 146.206 402.927 146.157 402.805C146.009 402.456 146.124 402.326 146.502 402.416C147.127 402.554 147.67 402.415 148.13 402.001C148.344 401.806 148.401 401.575 148.303 401.307L147.514 401C147.463 400.855 148.027 400.395 148.071 400.25C148.116 400.106 148.205 399.98 148.327 399.893C148.607 399.698 148.664 399.442 148.5 399.125C148.294 398.727 147.966 398.512 147.514 398.48C146.502 398.406 145.631 398.999 145.689 398C145.697 397.832 146.057 396.536 145.985 396.384C145.795 396.018 145.077 396.392 144.773 396.384C143.992 396.359 144.419 395.616 145.109 395.275C145.339 395.161 145.553 395.011 145.75 394.824C146.071 394.507 146.05 394.219 145.689 393.959C145.302 393.674 144.082 393.856 143.58 393.758C143.054 393.644 143.81 393.102 144.295 392.874C144.599 392.728 144.912 392.639 145.232 392.606C145.66 392.557 145.832 392.326 145.75 391.911C145.685 391.554 145.446 391.314 145.035 391.193C144.435 391.014 143.309 391.217 142.742 391.193C142.15 391.16 142.651 390.693 143.161 390.4C143.424 390.246 143.564 390.027 143.58 389.742C143.597 389.385 143.44 389.08 143.111 388.828C142.807 388.593 141.345 388.541 141 388.5C140.515 388.443 141.628 388.219 142.063 388C142.285 387.886 142.511 387.833 142.742 387.841C142.923 387.845 143.098 387.778 143.229 387.655C143.361 387.531 143.438 387.362 143.444 387.183C143.453 386.891 143.342 386.664 143.111 386.501C142.939 386.387 142.746 386.314 142.532 386.282C142.252 386.241 141.977 386.168 141.706 386.062C141.295 385.9 140.715 385.939 140.756 385.5C140.806 384.899 140.937 384.084 140.362 383.735C140 384.5 139.729 384.5 139.573 384.5C139.433 384.5 139.671 383.581 139.573 383.516C139.318 383.361 139.338 383.252 139.634 383.187C140.07 383.097 140.452 382.91 140.781 382.626C141.134 382.334 141.126 382.049 140.756 381.773C140.362 381.472 139.91 381.29 139.4 381.225C138.849 381.152 138.615 380.847 138.697 380.311C138.796 379.677 138.611 379.182 138.142 378.824C137.715 378.507 137.591 378.101 137.772 377.605C138.002 376.98 137.789 376.647 137.131 376.606C136.506 376.574 136.206 376.249 136.231 375.631C136.272 374.462 135.631 373.856 134.307 373.816C134.25 373.816 134.193 373.793 134.151 373.753C134.108 373.713 134.082 373.659 134.078 373.603C134.075 373.546 134.095 373.492 134.133 373.452C134.171 373.412 134.225 373.389 134.283 373.389C134.899 373.324 135.421 373.154 135.849 372.877C136.539 372.439 136.494 372.093 135.713 371.842L134.455 371.427C133.962 371.265 133.95 371.074 134.418 370.855C134.681 370.725 134.961 370.684 135.257 370.733C135.717 370.806 135.976 370.615 136.034 370.16C136.058 369.989 136.03 369.831 135.947 369.685C135.775 369.4 135.52 369.262 135.183 369.271C134.246 369.303 133.284 369.157 132.297 368.832C131.845 368.677 131.858 368.604 132.335 368.612C132.828 368.612 133.251 368.377 133.605 367.906C133.673 367.813 133.714 367.704 133.723 367.59C133.732 367.476 133.709 367.362 133.657 367.259C133.605 367.157 133.525 367.072 133.427 367.011C133.328 366.951 133.215 366.919 133.099 366.919C132.598 366.919 132.121 366.825 131.669 366.638C131.11 366.419 131.11 366.2 131.669 365.98C132.178 365.777 132.688 365.72 133.198 365.81C133.6 365.875 133.74 365.716 133.617 365.335L133.444 364.798C133.405 364.681 133.331 364.579 133.231 364.507C133.131 364.435 133.012 364.396 132.889 364.396L129.153 364.384C129.071 364.384 128.993 364.352 128.935 364.295C128.877 364.238 128.845 364.16 128.845 364.079V363.763C128.845 363.584 128.935 363.503 129.116 363.519C129.782 363.6 130.378 363.523 130.904 363.287C131.414 363.06 131.463 362.759 131.052 362.386C130.6 361.988 130.004 361.732 129.264 361.618C129.23 361.615 129.197 361.607 129.167 361.591C129.136 361.576 129.109 361.555 129.087 361.53C129.064 361.505 129.047 361.475 129.036 361.443C129.026 361.411 129.021 361.377 129.024 361.344C129.026 361.31 129.035 361.277 129.051 361.247C129.066 361.217 129.087 361.19 129.113 361.168C129.138 361.146 129.168 361.129 129.201 361.119C129.233 361.108 129.267 361.104 129.301 361.106C129.794 361.098 130.283 361 130.769 360.814C131.508 360.521 131.537 360.172 130.855 359.766C130.46 359.53 130.025 359.372 129.548 359.29C128.972 359.193 128.927 358.986 129.412 358.669C129.585 358.555 129.778 358.506 129.992 358.523C131.134 358.628 131.41 358.23 130.818 357.329C130.768 357.264 130.571 357.186 130.226 357.097C129.227 356.841 128.5 357.341 127.439 356.792C126.782 356.459 126.819 356.252 127.55 356.171C127.772 356.147 127.99 356.106 128.204 356.049C128.73 355.903 128.87 355.582 128.623 355.086C128.335 354.526 127.838 354.27 127.131 354.319C126.539 354.351 126.482 354.197 126.958 353.856C127.23 353.661 127.526 353.596 127.846 353.661C128.315 353.75 128.578 353.559 128.635 353.088C128.652 352.958 128.635 352.84 128.586 352.735C128.438 352.345 128.159 352.178 127.747 352.235C127.468 352.276 127.205 352.263 126.958 352.198C126.572 352.101 126.395 351.857 126.428 351.467C126.453 351.061 126.379 350.675 126.206 350.31C126.066 350.009 125.828 349.79 125.491 349.652C125.129 349.513 124.743 349.436 124.332 349.42C123.715 349.388 123.691 349.258 124.258 349.03C124.702 348.843 125.162 348.746 125.639 348.738C126.116 348.73 126.276 348.502 126.12 348.055C126.062 347.885 125.968 347.742 125.836 347.629C125.606 347.409 125.327 347.324 124.998 347.373C124.735 347.422 124.509 347.405 124.32 347.324C124.007 347.178 123.867 346.934 123.9 346.593C124.024 345.269 123.337 344.623 121.841 344.655C121.769 344.664 121.697 344.643 121.64 344.598C121.584 344.554 121.547 344.489 121.539 344.418C121.531 344.347 121.552 344.275 121.597 344.219C121.642 344.163 121.708 344.127 121.779 344.119L123.321 343.851C124.143 343.697 124.233 343.356 123.592 342.828C123.156 342.47 122.655 342.336 122.088 342.425C121.611 342.507 121.401 342.308 121.459 341.828C121.64 340.407 120.953 339.696 119.4 339.696C119.334 339.688 119.297 339.655 119.289 339.598C119.264 339.46 119.301 339.334 119.4 339.221C119.498 339.107 119.622 339.066 119.77 339.099C120.304 339.229 120.744 339.127 121.089 338.794C121.434 338.461 121.414 338.156 121.027 337.88C120.616 337.588 120.152 337.482 119.634 337.563C119.149 337.636 118.935 337.429 118.993 336.942C119.174 335.528 118.475 334.818 116.897 334.809C116.814 334.809 116.777 334.769 116.786 334.688C116.802 334.517 116.884 334.371 117.032 334.249C117.1 334.197 117.179 334.163 117.261 334.15C117.344 334.137 117.426 334.146 117.501 334.176C118.101 334.411 118.5 334.273 118.697 333.761C119.026 332.917 118.742 332.6 117.846 332.811C117.517 332.892 117.238 332.884 117.008 332.787C116.613 332.632 116.457 332.348 116.539 331.934C116.736 330.918 116.325 330.345 115.306 330.215C115.158 330.199 115.006 330.159 114.85 330.094C114.069 329.793 114.089 329.561 114.911 329.399C115.314 329.318 115.725 329.22 116.144 329.107C116.263 329.077 116.369 329.009 116.444 328.914C116.52 328.819 116.562 328.702 116.563 328.581C116.565 328.46 116.526 328.342 116.452 328.245C116.379 328.149 116.275 328.079 116.157 328.046L114.492 327.596C113.917 327.433 113.917 327.266 114.492 327.096C115.084 326.925 115.668 326.759 116.243 326.596C116.344 326.568 116.432 326.508 116.495 326.426C116.558 326.343 116.592 326.243 116.592 326.139C116.592 326.036 116.558 325.936 116.495 325.853C116.432 325.771 116.344 325.711 116.243 325.682C114.92 325.341 113.485 325.146 111.94 325.097C111.89 325.097 111.866 325.073 111.866 325.024C111.866 324.878 111.903 324.756 111.977 324.659C112.067 324.529 112.19 324.484 112.347 324.525C112.864 324.638 113.312 324.517 113.691 324.159C114.028 323.842 114.011 323.554 113.641 323.294C113.132 322.928 112.589 322.713 112.014 322.648C111.446 322.583 111.422 322.433 111.94 322.197C112.351 322.01 112.786 321.917 113.247 321.917C113.633 321.917 113.834 321.726 113.851 321.344C113.851 321.231 113.826 321.121 113.777 321.015C113.637 320.69 113.386 320.528 113.025 320.528L112.285 320.516C112.187 320.516 112.09 320.496 112.001 320.458C111.911 320.419 111.831 320.362 111.765 320.291C111.699 320.22 111.648 320.136 111.617 320.045C111.585 319.953 111.573 319.856 111.582 319.76C111.689 318.371 110.986 317.79 109.473 318.018C109.293 318.05 109.178 317.973 109.128 317.786C109.095 317.64 109.112 317.514 109.178 317.408C109.293 317.189 109.465 317.116 109.695 317.189C110.468 317.4 111.031 317.213 111.385 316.628C111.631 316.222 111.52 315.95 111.052 315.812C109.646 315.406 108.331 315.264 107.106 315.385C107.007 315.394 106.958 315.377 106.958 315.337L108.591 317C108.591 316.797 107.061 314.715 107.266 314.715L110.719 314.703C111.155 314.703 111.323 314.496 111.224 314.082L111.113 313.594C111.031 313.261 110.822 313.123 110.485 313.18C109.506 313.334 108.442 313.253 107.291 312.936C106.765 312.79 106.522 310.507 107.057 310.402M107.057 310.402C107.575 310.296 108.298 312.238 108.734 311.913C109.136 311.596 109.128 311.291 108.709 310.999C108.249 310.674 107.698 310.475 107.057 310.402ZM107.057 310.402C106.514 310.345 106.494 310.207 106.995 309.987C107.225 309.89 107.439 309.744 107.636 309.549C107.757 309.429 107.825 309.266 107.825 309.095C107.825 308.924 107.757 308.759 107.636 308.635C107.513 308.513 107.369 308.427 107.205 308.379C106.72 308.241 106.518 307.924 106.6 307.428C106.724 306.754 106.498 306.206 105.922 305.783C105.709 305.629 105.47 305.568 105.207 305.6C105.026 305.625 104.845 305.613 104.665 305.564C104.604 305.546 104.552 305.509 104.516 305.457C104.481 305.406 104.465 305.344 104.471 305.282C104.477 305.22 104.504 305.162 104.548 305.118C104.593 305.074 104.408 307.434 104.471 307.428C104.849 307.404 105.458 304.926 105.811 304.772C106.568 304.439 106.584 304.073 105.861 303.675C105.548 303.504 105.224 303.411 104.887 303.395C104.385 303.362 104.887 299.971 102.248 302.603C102.322 301.368 103.579 300.734 102.174 300.702C102.112 300.692 102.056 300.661 102.015 300.615C101.974 300.57 101.949 300.511 101.947 300.45C101.944 300.388 99.9543 302.652 99.9912 302.603C100.028 302.553 102.089 300.193 102.149 300.178L103.801 299.971C103.881 299.96 103.957 299.93 104.021 299.884C104.086 299.837 104.138 299.775 104.171 299.704C104.204 299.633 104.219 299.556 104.212 299.478C104.206 299.401 104.179 299.327 104.134 299.264L103.863 298.837C103.707 298.594 103.481 298.508 103.185 298.581C102.823 298.671 102.511 298.675 102.248 298.594C101.837 298.464 101.672 298.191 101.755 297.777C101.944 296.721 101.528 296.156 100.509 296.083C100.246 296.067 100.036 296.006 99.8803 295.901C99.461 295.624 99.498 295.433 99.9912 295.328C101.06 295.092 101.706 294.483 101.5 293.5" stroke="#AE45BE" stroke-width="2" />
  <path d="M101.384 294.454C101.584 295.432 101.163 296.039 100.121 296.273C99.6405 296.378 99.6045 296.568 100.013 296.843C100.165 296.948 100.37 297.009 100.626 297.025C101.62 297.098 102.025 297.66 101.84 298.711C101.76 299.124 101.92 299.395 102.321 299.524C102.578 299.605 102.882 299.601 103.235 299.512C103.523 299.439 103.744 299.524 103.896 299.766L104.16 300.191C104.204 300.254 104.23 300.328 104.236 300.405C104.242 300.481 104.229 300.559 104.196 300.629C104.163 300.7 104.113 300.761 104.05 300.808C103.987 300.854 103.913 300.884 103.836 300.895L102.225 301.101C102.166 301.116 102.115 301.152 102.079 301.201C102.043 301.25 102.025 301.31 102.028 301.371C102.03 301.433 102.054 301.491 102.094 301.536C102.135 301.582 102.189 301.612 102.249 301.622C103.619 301.655 104.268 302.285 104.196 303.515C104.172 304.008 104.405 304.271 104.894 304.303C105.222 304.319 105.539 304.412 105.843 304.582C106.548 304.978 106.532 305.342 105.795 305.674C105.451 305.827 105.094 305.916 104.725 305.94C104.664 305.947 104.607 305.974 104.564 306.018C104.521 306.062 104.494 306.12 104.488 306.181C104.483 306.243 104.498 306.305 104.533 306.356C104.567 306.407 104.618 306.445 104.677 306.462C104.854 306.511 105.03 306.523 105.206 306.498C105.463 306.466 105.695 306.527 105.903 306.68C106.464 307.101 106.685 307.647 106.564 308.318C106.484 308.811 106.681 309.127 107.153 309.264C107.314 309.313 107.454 309.397 107.574 309.519C107.692 309.642 107.759 309.807 107.759 309.977C107.759 310.147 107.692 310.309 107.574 310.428C107.382 310.623 107.174 310.768 106.949 310.865C106.46 311.083 106.48 311.221 107.009 311.278C107.634 311.35 108.171 311.548 108.62 311.872C109.029 312.163 109.037 312.466 108.644 312.782C108.219 313.105 107.755 313.319 107.25 313.425C106.729 313.53 106.725 313.655 107.238 313.801C108.36 314.116 109.397 314.197 110.351 314.043C110.68 313.986 110.884 314.124 110.964 314.456L111.072 314.941C111.168 315.353 111.004 315.559 110.579 315.559L107.214 315.571C107.013 315.571 106.913 315.673 106.913 315.875V316.19C106.913 316.231 106.961 316.247 107.057 316.239C108.251 316.117 109.534 316.259 110.904 316.663C111.361 316.801 111.469 317.071 111.229 317.476C110.884 318.058 110.335 318.244 109.582 318.034C109.357 317.961 109.189 318.034 109.077 318.252C109.013 318.357 108.997 318.483 109.029 318.628C109.077 318.814 109.189 318.891 109.365 318.859C110.84 318.632 111.525 319.21 111.421 320.593C111.412 320.689 111.424 320.785 111.455 320.876C111.485 320.967 111.535 321.051 111.599 321.122C111.663 321.192 111.742 321.249 111.829 321.287C111.916 321.326 112.011 321.346 112.106 321.345L112.827 321.357C113.18 321.357 113.424 321.519 113.561 321.843C113.609 321.948 113.633 322.057 113.633 322.17C113.617 322.55 113.42 322.74 113.044 322.74C112.595 322.74 112.17 322.833 111.769 323.019C111.265 323.254 111.289 323.403 111.842 323.468C112.403 323.533 112.931 323.747 113.428 324.111C113.789 324.37 113.805 324.657 113.476 324.972C113.108 325.328 112.671 325.449 112.166 325.336C112.014 325.295 111.894 325.34 111.806 325.469C111.733 325.566 111.697 325.688 111.697 325.833C111.697 325.882 111.721 325.906 111.769 325.906C113.276 325.954 114.674 326.149 115.965 326.488C116.063 326.516 116.149 326.576 116.21 326.658C116.272 326.74 116.305 326.84 116.305 326.943C116.305 327.046 116.272 327.146 116.21 327.228C116.149 327.31 116.063 327.37 115.965 327.398C115.404 327.56 114.835 327.725 114.258 327.895C113.697 328.065 113.697 328.231 114.258 328.393L115.881 328.841C115.996 328.873 116.097 328.943 116.169 329.039C116.24 329.136 116.278 329.253 116.277 329.374C116.276 329.494 116.235 329.611 116.161 329.705C116.087 329.8 115.984 329.867 115.869 329.897C115.46 330.01 115.059 330.107 114.666 330.188C113.865 330.349 113.845 330.58 114.606 330.879C114.759 330.944 114.907 330.984 115.051 331C116.045 331.13 116.446 331.7 116.253 332.711C116.173 333.123 116.325 333.406 116.71 333.56C116.934 333.657 117.207 333.665 117.527 333.584C118.401 333.374 118.677 333.689 118.357 334.53C118.165 335.04 117.776 335.177 117.191 334.943C117.118 334.913 117.038 334.904 116.958 334.917C116.877 334.929 116.8 334.963 116.734 335.015C116.59 335.137 116.51 335.282 116.494 335.452C116.486 335.533 116.522 335.573 116.602 335.573C118.14 335.581 118.822 336.289 118.645 337.696C118.589 338.181 118.798 338.387 119.27 338.315C119.775 338.234 120.228 338.339 120.629 338.63C121.005 338.905 121.025 339.208 120.689 339.54C120.352 339.871 119.924 339.972 119.403 339.843C119.258 339.811 119.138 339.851 119.042 339.964C118.946 340.077 118.91 340.203 118.934 340.34C118.942 340.397 118.978 340.429 119.042 340.437C120.557 340.437 121.226 341.145 121.049 342.56C120.993 343.037 121.198 343.235 121.663 343.154C122.215 343.065 122.704 343.199 123.129 343.555C123.754 344.08 123.666 344.42 122.865 344.574L121.362 344.84C121.292 344.848 121.228 344.884 121.184 344.94C121.14 344.996 121.12 345.067 121.128 345.138C121.136 345.208 121.171 345.273 121.226 345.317C121.282 345.362 121.352 345.382 121.422 345.374C122.881 345.342 123.55 345.985 123.43 347.303C123.397 347.642 123.534 347.885 123.838 348.03C124.023 348.111 124.243 348.128 124.499 348.079C124.82 348.03 125.092 348.115 125.317 348.334C125.445 348.447 125.537 348.588 125.593 348.758C125.746 349.203 125.589 349.429 125.125 349.438C124.66 349.446 124.211 349.543 123.778 349.729C123.225 349.955 123.249 350.084 123.85 350.117C124.251 350.133 124.628 350.21 124.98 350.347C125.309 350.485 125.541 350.703 125.677 351.002C125.846 351.366 125.918 351.75 125.894 352.155C125.862 352.543 126.034 352.785 126.411 352.882C126.651 352.947 126.908 352.959 127.18 352.919C127.581 352.862 127.853 353.028 127.997 353.416C128.046 353.521 128.062 353.638 128.046 353.768C127.989 354.237 127.733 354.427 127.276 354.338C126.964 354.273 126.675 354.338 126.411 354.532C125.946 354.872 126.002 355.025 126.579 354.993C127.268 354.944 127.753 355.199 128.034 355.757C128.274 356.25 128.138 356.57 127.625 356.715C127.416 356.772 127.204 356.812 126.988 356.837C126.274 356.917 126.238 357.124 126.88 357.455C127.913 358.001 128.623 357.504 129.596 357.758C129.933 357.847 130.125 357.924 130.173 357.989C130.75 358.887 130.482 359.283 129.368 359.178C129.159 359.161 128.971 359.21 128.803 359.323C128.33 359.639 128.374 359.845 128.935 359.942C129.4 360.023 129.825 360.18 130.209 360.415C130.874 360.819 130.846 361.167 130.125 361.458C129.652 361.644 129.175 361.741 128.695 361.749C128.661 361.747 128.628 361.751 128.597 361.762C128.565 361.772 128.536 361.789 128.511 361.811C128.486 361.833 128.465 361.86 128.45 361.89C128.435 361.92 128.427 361.952 128.424 361.986C128.422 362.019 128.426 362.053 128.437 362.085C128.447 362.116 128.464 362.146 128.485 362.171C128.507 362.196 128.534 362.217 128.563 362.232C128.593 362.247 128.625 362.256 128.659 362.259C129.38 362.372 129.961 362.627 130.402 363.023C130.802 363.395 130.754 363.694 130.257 363.92C129.744 364.155 129.164 364.232 128.514 364.151C128.338 364.135 128.25 364.215 128.25 364.393V364.709C128.25 364.789 128.282 364.866 128.338 364.923C128.394 364.98 128.471 365.012 128.55 365.012L132.193 365.024C132.312 365.024 132.429 365.062 132.526 365.134C132.623 365.206 132.696 365.308 132.734 365.424L132.902 365.958C133.022 366.338 132.886 366.496 132.493 366.431C131.996 366.342 131.499 366.399 131.003 366.601C130.458 366.819 130.458 367.038 131.003 367.256C131.443 367.442 131.908 367.535 132.397 367.535C132.51 367.536 132.62 367.567 132.716 367.627C132.812 367.687 132.89 367.773 132.941 367.874C132.992 367.976 133.014 368.09 133.005 368.203C132.996 368.317 132.956 368.425 132.89 368.517C132.545 368.986 132.133 369.221 131.652 369.221C131.187 369.213 131.175 369.286 131.616 369.439C132.577 369.763 133.515 369.908 134.429 369.876C134.757 369.868 135.006 370.005 135.174 370.288C135.254 370.434 135.282 370.592 135.258 370.761C135.202 371.214 134.949 371.404 134.501 371.332C134.212 371.283 133.94 371.323 133.683 371.453C133.227 371.671 133.238 371.861 133.719 372.023L134.945 372.435C135.707 372.686 135.751 373.03 135.078 373.466C134.661 373.741 134.152 373.911 133.551 373.976C133.495 373.976 133.443 373.998 133.405 374.038C133.368 374.078 133.349 374.132 133.352 374.188C133.355 374.244 133.38 374.298 133.422 374.338C133.464 374.378 133.519 374.4 133.575 374.4C134.865 374.441 135.49 375.043 135.45 376.208C135.426 376.822 135.719 377.146 136.328 377.178C136.969 377.219 137.177 377.55 136.953 378.173C136.777 378.666 136.897 379.07 137.314 379.386C137.77 379.741 137.951 380.235 137.854 380.866C137.774 381.399 138.003 381.702 138.54 381.775C139.036 381.84 139.477 382.022 139.862 382.321C140.223 382.596 140.231 382.879 139.886 383.17C139.565 383.453 139.193 383.639 138.768 383.728C138.48 383.793 138.46 383.902 138.708 384.056C138.804 384.12 138.92 384.153 139.057 384.153C139.209 384.153 139.349 384.193 139.477 384.274C140.038 384.622 140.295 385.095 140.247 385.693C140.207 386.13 140.387 386.429 140.788 386.591C141.052 386.696 141.32 386.769 141.593 386.809C141.801 386.841 141.99 386.914 142.158 387.027C142.382 387.189 142.49 387.416 142.482 387.707C142.476 387.885 142.401 388.053 142.273 388.176C142.145 388.298 141.974 388.365 141.797 388.362C141.573 388.354 141.353 388.406 141.136 388.519C140.711 388.738 140.735 388.875 141.208 388.932C141.545 388.972 141.861 389.11 142.158 389.344C142.478 389.595 142.631 389.898 142.615 390.254C142.599 390.537 142.462 390.755 142.206 390.909C141.709 391.2 141.749 391.362 142.326 391.394C142.879 391.418 143.448 391.519 144.033 391.697C144.434 391.819 144.666 392.057 144.73 392.413C144.811 392.825 144.642 393.056 144.225 393.104C143.913 393.137 143.608 393.226 143.312 393.371C142.839 393.598 142.859 393.767 143.372 393.881C143.861 393.978 144.294 394.168 144.67 394.451C145.023 394.71 145.043 394.997 144.73 395.312C144.538 395.498 144.33 395.648 144.105 395.761C143.432 396.1 143.476 396.282 144.237 396.307C144.534 396.315 144.774 396.501 144.959 396.865C145.03 397.016 145.063 397.182 145.055 397.35C144.999 398.344 145.464 398.878 146.449 398.951C146.89 398.983 147.211 399.197 147.411 399.594C147.571 399.909 147.515 400.164 147.243 400.358C147.124 400.445 147.036 400.57 146.993 400.714C146.95 400.858 146.953 401.014 147.002 401.158L147.219 401.765C147.315 402.032 147.259 402.262 147.05 402.456C146.602 402.869 146.073 403.006 145.464 402.869C145.095 402.78 144.983 402.909 145.127 403.257C145.175 403.378 145.175 403.499 145.127 403.621C145.047 403.807 144.907 403.884 144.706 403.851C142.895 403.568 141.18 403.601 139.561 403.948C81.0685 404.013 44.4933 404.017 29.836 403.96C16.0482 403.9 3.66683 393.201 1.20258 379.725C0.0646114 373.523 0.309016 366.763 1.93582 359.445C5.90267 348.77 12.2496 341.65 20.0391 332.65C27.3477 324.184 33.7548 315.098 40.8831 306.28C47.0377 298.663 55.921 291.749 66.1267 293.192C71.4158 293.944 76.2602 294.405 81.8498 294.247C88.4692 294.053 94.9805 294.122 101.384 294.454Z" fill="#C851B1" />
  <path d="M63.6356 58.2912L69.8195 64.5218C70.226 64.9311 70.5484 65.4171 70.7683 65.952C70.9883 66.4868 71.1015 67.0601 71.1015 67.639C71.1015 68.2179 70.9883 68.7912 70.7683 69.3261C70.5484 69.8609 70.226 70.3469 69.8195 70.7563L64.793 75.8191C65.8282 75.977 66.7729 76.5035 67.4557 77.303C68.1384 78.1025 68.514 79.122 68.5143 80.1765V90.4629C68.5143 91.632 68.0532 92.7533 67.2324 93.5801C66.4115 94.4068 65.2983 94.8713 64.1375 94.8713H37.8768C36.716 94.8713 35.6027 94.4068 34.7819 93.5801C33.9611 92.7533 33.5 91.632 33.5 90.4629V64.0124C33.5 62.8432 33.9611 61.7219 34.7819 60.8951C35.6027 60.0684 36.716 59.6039 37.8768 59.6039H48.0893C49.1372 59.6039 50.1503 59.9826 50.9446 60.6711C51.7388 61.3596 52.2614 62.3123 52.4174 63.356L57.4459 58.2912C57.8523 57.8818 58.3348 57.5571 58.8658 57.3356C59.3968 57.114 59.966 57 60.5408 57C61.1155 57 61.6847 57.114 62.2157 57.3356C62.7467 57.5571 63.2292 57.8818 63.6356 58.2912ZM36.4179 90.4629C36.4179 91.276 37.0715 91.9323 37.8768 91.9323H49.5463L49.5482 78.7071H36.4179V90.4629ZM52.4641 91.9323H64.1375C64.5244 91.9323 64.8955 91.7775 65.1691 91.5019C65.4427 91.2263 65.5964 90.8526 65.5964 90.4629V80.1765C65.5964 79.7868 65.4427 79.4131 65.1691 79.1375C64.8955 78.8619 64.5244 78.7071 64.1375 78.7071H52.4641V91.9323ZM48.0893 62.5429H37.8768C37.4899 62.5429 37.1188 62.6977 36.8452 62.9733C36.5716 63.2489 36.4179 63.6226 36.4179 64.0124V75.7681H49.5482V64.0124C49.5482 63.6226 49.3945 63.2489 49.1209 62.9733C48.8473 62.6977 48.4762 62.5429 48.0893 62.5429ZM52.4661 71.9671V75.7681H56.2398L52.4661 71.9671ZM59.5078 60.372L53.3278 66.5986C53.1922 66.7351 53.0847 66.8971 53.0113 67.0755C52.9379 67.2538 52.9002 67.445 52.9002 67.638C52.9002 67.8311 52.9379 68.0223 53.0113 68.2006C53.0847 68.3789 53.1922 68.541 53.3278 68.6774L59.5117 74.906C59.7853 75.1812 60.1561 75.3358 60.5427 75.3358C60.9293 75.3358 61.3001 75.1812 61.5737 74.906L67.7595 68.6774C68.0327 68.4019 68.1862 68.0284 68.1862 67.639C68.1862 67.2496 68.0327 66.8761 67.7595 66.6006L61.5737 60.37C61.3001 60.0948 60.9293 59.9403 60.5427 59.9403C60.1561 59.9403 59.7853 60.0948 59.5117 60.37L59.5078 60.372Z" fill="white" />
  <path d="M93.0466 83.9356L98.7226 68.5356H101.275L106.907 83.9356H104.443L103.123 80.1736H96.8306L95.5106 83.9356H93.0466ZM97.4906 78.3256H102.463L99.9766 71.3076L97.4906 78.3256ZM113.322 84.1996C111.944 84.1996 110.807 83.8623 109.912 83.1876C109.018 82.5129 108.504 81.6183 108.372 80.5036H110.726C110.844 81.0023 111.122 81.4349 111.562 81.8016C112.002 82.1536 112.582 82.3296 113.3 82.3296C114.004 82.3296 114.518 82.1829 114.84 81.8896C115.163 81.5963 115.324 81.2589 115.324 80.8776C115.324 80.3203 115.097 79.9463 114.642 79.7556C114.202 79.5503 113.586 79.3669 112.794 79.2056C112.178 79.0736 111.562 78.8976 110.946 78.6776C110.345 78.4576 109.839 78.1496 109.428 77.7536C109.032 77.3429 108.834 76.7929 108.834 76.1036C108.834 75.1503 109.201 74.3583 109.934 73.7276C110.668 73.0823 111.694 72.7596 113.014 72.7596C114.232 72.7596 115.214 73.0529 115.962 73.6396C116.725 74.2263 117.172 75.0549 117.304 76.1256H115.06C114.987 75.6563 114.767 75.2896 114.4 75.0256C114.048 74.7616 113.572 74.6296 112.97 74.6296C112.384 74.6296 111.929 74.7543 111.606 75.0036C111.284 75.2383 111.122 75.5463 111.122 75.9276C111.122 76.3089 111.342 76.6096 111.782 76.8296C112.237 77.0496 112.831 77.2476 113.564 77.4236C114.298 77.5849 114.972 77.7756 115.588 77.9956C116.219 78.2009 116.725 78.5089 117.106 78.9196C117.488 79.3303 117.678 79.9316 117.678 80.7236C117.693 81.7209 117.304 82.5496 116.512 83.2096C115.735 83.8696 114.672 84.1996 113.322 84.1996ZM124.58 84.1996C123.201 84.1996 122.065 83.8623 121.17 83.1876C120.275 82.5129 119.762 81.6183 119.63 80.5036H121.984C122.101 81.0023 122.38 81.4349 122.82 81.8016C123.26 82.1536 123.839 82.3296 124.558 82.3296C125.262 82.3296 125.775 82.1829 126.098 81.8896C126.421 81.5963 126.582 81.2589 126.582 80.8776C126.582 80.3203 126.355 79.9463 125.9 79.7556C125.46 79.5503 124.844 79.3669 124.052 79.2056C123.436 79.0736 122.82 78.8976 122.204 78.6776C121.603 78.4576 121.097 78.1496 120.686 77.7536C120.29 77.3429 120.092 76.7929 120.092 76.1036C120.092 75.1503 120.459 74.3583 121.192 73.7276C121.925 73.0823 122.952 72.7596 124.272 72.7596C125.489 72.7596 126.472 73.0529 127.22 73.6396C127.983 74.2263 128.43 75.0549 128.562 76.1256H126.318C126.245 75.6563 126.025 75.2896 125.658 75.0256C125.306 74.7616 124.829 74.6296 124.228 74.6296C123.641 74.6296 123.187 74.7543 122.864 75.0036C122.541 75.2383 122.38 75.5463 122.38 75.9276C122.38 76.3089 122.6 76.6096 123.04 76.8296C123.495 77.0496 124.089 77.2476 124.822 77.4236C125.555 77.5849 126.23 77.7756 126.846 77.9956C127.477 78.2009 127.983 78.5089 128.364 78.9196C128.745 79.3303 128.936 79.9316 128.936 80.7236C128.951 81.7209 128.562 82.5496 127.77 83.2096C126.993 83.8696 125.929 84.1996 124.58 84.1996ZM136.586 84.1996C135.515 84.1996 134.562 83.9649 133.726 83.4956C132.904 83.0116 132.259 82.3443 131.79 81.4936C131.32 80.6429 131.086 79.6529 131.086 78.5236C131.086 77.3796 131.313 76.3749 131.768 75.5096C132.237 74.6443 132.882 73.9696 133.704 73.4856C134.54 73.0016 135.508 72.7596 136.608 72.7596C137.678 72.7596 138.61 73.0016 139.402 73.4856C140.194 73.9549 140.81 74.5856 141.25 75.3776C141.69 76.1696 141.91 77.0423 141.91 77.9956C141.91 78.1423 141.902 78.3036 141.888 78.4796C141.888 78.6409 141.88 78.8243 141.866 79.0296H133.374C133.447 80.0856 133.792 80.8923 134.408 81.4496C135.038 81.9923 135.764 82.2636 136.586 82.2636C137.246 82.2636 137.796 82.1169 138.236 81.8236C138.69 81.5156 139.028 81.1049 139.248 80.5916H141.58C141.286 81.6183 140.7 82.4763 139.82 83.1656C138.954 83.8549 137.876 84.1996 136.586 84.1996ZM136.586 74.6736C135.808 74.6736 135.119 74.9083 134.518 75.3776C133.916 75.8323 133.55 76.5216 133.418 77.4456H139.578C139.534 76.5949 139.233 75.9203 138.676 75.4216C138.118 74.9229 137.422 74.6736 136.586 74.6736ZM148.626 83.9356C147.556 83.9356 146.705 83.6789 146.074 83.1656C145.444 82.6376 145.128 81.7063 145.128 80.3716V74.9816H143.258V73.0236H145.128L145.414 70.2516H147.46V73.0236H150.54V74.9816H147.46V80.3716C147.46 80.9729 147.585 81.3909 147.834 81.6256C148.098 81.8456 148.546 81.9556 149.176 81.9556H150.43V83.9356H148.626ZM157.301 84.1996C155.922 84.1996 154.785 83.8623 153.891 83.1876C152.996 82.5129 152.483 81.6183 152.351 80.5036H154.705C154.822 81.0023 155.101 81.4349 155.541 81.8016C155.981 82.1536 156.56 82.3296 157.279 82.3296C157.983 82.3296 158.496 82.1829 158.819 81.8896C159.141 81.5963 159.303 81.2589 159.303 80.8776C159.303 80.3203 159.075 79.9463 158.621 79.7556C158.181 79.5503 157.565 79.3669 156.773 79.2056C156.157 79.0736 155.541 78.8976 154.925 78.6776C154.323 78.4576 153.817 78.1496 153.407 77.7536C153.011 77.3429 152.813 76.7929 152.813 76.1036C152.813 75.1503 153.179 74.3583 153.913 73.7276C154.646 73.0823 155.673 72.7596 156.993 72.7596C158.21 72.7596 159.193 73.0529 159.941 73.6396C160.703 74.2263 161.151 75.0549 161.283 76.1256H159.039C158.965 75.6563 158.745 75.2896 158.379 75.0256C158.027 74.7616 157.55 74.6296 156.949 74.6296C156.362 74.6296 155.907 74.7543 155.585 75.0036C155.262 75.2383 155.101 75.5463 155.101 75.9276C155.101 76.3089 155.321 76.6096 155.761 76.8296C156.215 77.0496 156.809 77.2476 157.543 77.4236C158.276 77.5849 158.951 77.7756 159.567 77.9956C160.197 78.2009 160.703 78.5089 161.085 78.9196C161.466 79.3303 161.657 79.9316 161.657 80.7236C161.671 81.7209 161.283 82.5496 160.491 83.2096C159.713 83.8696 158.65 84.1996 157.301 84.1996Z" fill="white" />
  <path d="M35.42 144L39.756 134.256H33.932V132.8H41.5V134.032L37.196 144H35.42ZM46.4941 144L50.6221 132.8H52.4781L56.5741 144H54.7821L53.8221 141.264H49.2461L48.2861 144H46.4941ZM49.7261 139.92H53.3421L51.5341 134.816L49.7261 139.92ZM61.24 144.192C60.2373 144.192 59.4107 143.947 58.76 143.456C58.1093 142.965 57.736 142.315 57.64 141.504H59.352C59.4373 141.867 59.64 142.181 59.96 142.448C60.28 142.704 60.7013 142.832 61.224 142.832C61.736 142.832 62.1093 142.725 62.344 142.512C62.5787 142.299 62.696 142.053 62.696 141.776C62.696 141.371 62.5307 141.099 62.2 140.96C61.88 140.811 61.432 140.677 60.856 140.56C60.408 140.464 59.96 140.336 59.512 140.176C59.0747 140.016 58.7067 139.792 58.408 139.504C58.12 139.205 57.976 138.805 57.976 138.304C57.976 137.611 58.2427 137.035 58.776 136.576C59.3093 136.107 60.056 135.872 61.016 135.872C61.9013 135.872 62.616 136.085 63.16 136.512C63.7147 136.939 64.04 137.541 64.136 138.32H62.504C62.4507 137.979 62.2907 137.712 62.024 137.52C61.768 137.328 61.4213 137.232 60.984 137.232C60.5573 137.232 60.2267 137.323 59.992 137.504C59.7573 137.675 59.64 137.899 59.64 138.176C59.64 138.453 59.8 138.672 60.12 138.832C60.4507 138.992 60.8827 139.136 61.416 139.264C61.9493 139.381 62.44 139.52 62.888 139.68C63.3467 139.829 63.7147 140.053 63.992 140.352C64.2693 140.651 64.408 141.088 64.408 141.664C64.4187 142.389 64.136 142.992 63.56 143.472C62.9947 143.952 62.2213 144.192 61.24 144.192ZM69.4275 144.192C68.4248 144.192 67.5982 143.947 66.9475 143.456C66.2968 142.965 65.9235 142.315 65.8275 141.504H67.5395C67.6248 141.867 67.8275 142.181 68.1475 142.448C68.4675 142.704 68.8888 142.832 69.4115 142.832C69.9235 142.832 70.2968 142.725 70.5315 142.512C70.7662 142.299 70.8835 142.053 70.8835 141.776C70.8835 141.371 70.7182 141.099 70.3875 140.96C70.0675 140.811 69.6195 140.677 69.0435 140.56C68.5955 140.464 68.1475 140.336 67.6995 140.176C67.2622 140.016 66.8942 139.792 66.5955 139.504C66.3075 139.205 66.1635 138.805 66.1635 138.304C66.1635 137.611 66.4302 137.035 66.9635 136.576C67.4968 136.107 68.2435 135.872 69.2035 135.872C70.0888 135.872 70.8035 136.085 71.3475 136.512C71.9022 136.939 72.2275 137.541 72.3235 138.32H70.6915C70.6382 137.979 70.4782 137.712 70.2115 137.52C69.9555 137.328 69.6088 137.232 69.1715 137.232C68.7448 137.232 68.4142 137.323 68.1795 137.504C67.9448 137.675 67.8275 137.899 67.8275 138.176C67.8275 138.453 67.9875 138.672 68.3075 138.832C68.6382 138.992 69.0702 139.136 69.6035 139.264C70.1368 139.381 70.6275 139.52 71.0755 139.68C71.5342 139.829 71.9022 140.053 72.1795 140.352C72.4568 140.651 72.5955 141.088 72.5955 141.664C72.6062 142.389 72.3235 142.992 71.7475 143.472C71.1822 143.952 70.4088 144.192 69.4275 144.192ZM78.159 144.192C77.3803 144.192 76.687 144.021 76.079 143.68C75.4817 143.328 75.0123 142.843 74.671 142.224C74.3297 141.605 74.159 140.885 74.159 140.064C74.159 139.232 74.3243 138.501 74.655 137.872C74.9963 137.243 75.4657 136.752 76.063 136.4C76.671 136.048 77.375 135.872 78.175 135.872C78.9537 135.872 79.631 136.048 80.207 136.4C80.783 136.741 81.231 137.2 81.551 137.776C81.871 138.352 82.031 138.987 82.031 139.68C82.031 139.787 82.0257 139.904 82.015 140.032C82.015 140.149 82.0097 140.283 81.999 140.432H75.823C75.8763 141.2 76.127 141.787 76.575 142.192C77.0337 142.587 77.5617 142.784 78.159 142.784C78.639 142.784 79.039 142.677 79.359 142.464C79.6897 142.24 79.935 141.941 80.095 141.568H81.791C81.5777 142.315 81.151 142.939 80.511 143.44C79.8817 143.941 79.0977 144.192 78.159 144.192ZM78.159 137.264C77.5937 137.264 77.0923 137.435 76.655 137.776C76.2177 138.107 75.951 138.608 75.855 139.28H80.335C80.303 138.661 80.0843 138.171 79.679 137.808C79.2737 137.445 78.767 137.264 78.159 137.264ZM86.9156 144C86.137 144 85.5183 143.813 85.0596 143.44C84.601 143.056 84.3716 142.379 84.3716 141.408V137.488H83.0116V136.064H84.3716L84.5796 134.048H86.0676V136.064H88.3076V137.488H86.0676V141.408C86.0676 141.845 86.1583 142.149 86.3396 142.32C86.5316 142.48 86.857 142.56 87.3156 142.56H88.2276V144H86.9156ZM93.2244 144.192C92.2217 144.192 91.395 143.947 90.7444 143.456C90.0937 142.965 89.7204 142.315 89.6244 141.504H91.3364C91.4217 141.867 91.6244 142.181 91.9444 142.448C92.2644 142.704 92.6857 142.832 93.2084 142.832C93.7204 142.832 94.0937 142.725 94.3284 142.512C94.563 142.299 94.6804 142.053 94.6804 141.776C94.6804 141.371 94.515 141.099 94.1844 140.96C93.8644 140.811 93.4164 140.677 92.8404 140.56C92.3924 140.464 91.9444 140.336 91.4964 140.176C91.059 140.016 90.691 139.792 90.3924 139.504C90.1044 139.205 89.9604 138.805 89.9604 138.304C89.9604 137.611 90.227 137.035 90.7604 136.576C91.2937 136.107 92.0404 135.872 93.0004 135.872C93.8857 135.872 94.6004 136.085 95.1444 136.512C95.699 136.939 96.0244 137.541 96.1204 138.32H94.4884C94.435 137.979 94.275 137.712 94.0084 137.52C93.7524 137.328 93.4057 137.232 92.9684 137.232C92.5417 137.232 92.211 137.323 91.9764 137.504C91.7417 137.675 91.6244 137.899 91.6244 138.176C91.6244 138.453 91.7844 138.672 92.1044 138.832C92.435 138.992 92.867 139.136 93.4004 139.264C93.9337 139.381 94.4244 139.52 94.8724 139.68C95.331 139.829 95.699 140.053 95.9764 140.352C96.2537 140.651 96.3924 141.088 96.3924 141.664C96.403 142.389 96.1204 142.992 95.5444 143.472C94.979 143.952 94.2057 144.192 93.2244 144.192ZM103.235 134.56C102.915 134.56 102.648 134.464 102.435 134.272C102.232 134.069 102.131 133.819 102.131 133.52C102.131 133.221 102.232 132.976 102.435 132.784C102.648 132.581 102.915 132.48 103.235 132.48C103.555 132.48 103.816 132.581 104.019 132.784C104.232 132.976 104.339 133.221 104.339 133.52C104.339 133.819 104.232 134.069 104.019 134.272C103.816 134.464 103.555 134.56 103.235 134.56ZM102.387 144V136.064H104.083V144H102.387ZM106.322 144V136.064H107.826L107.954 137.456C108.199 136.965 108.557 136.581 109.026 136.304C109.506 136.016 110.055 135.872 110.674 135.872C111.634 135.872 112.386 136.171 112.93 136.768C113.485 137.365 113.762 138.256 113.762 139.44V144H112.082V139.616C112.082 138.08 111.453 137.312 110.194 137.312C109.565 137.312 109.042 137.536 108.626 137.984C108.221 138.432 108.018 139.072 108.018 139.904V144H106.322ZM123.551 144.192C122.729 144.192 122.009 144.048 121.391 143.76C120.772 143.472 120.287 143.061 119.935 142.528C119.593 141.995 119.417 141.36 119.407 140.624H121.199C121.209 141.221 121.417 141.728 121.823 142.144C122.228 142.56 122.799 142.768 123.535 142.768C124.185 142.768 124.692 142.613 125.055 142.304C125.428 141.984 125.615 141.579 125.615 141.088C125.615 140.693 125.524 140.373 125.343 140.128C125.172 139.883 124.932 139.68 124.623 139.52C124.324 139.36 123.977 139.216 123.583 139.088C123.188 138.96 122.772 138.821 122.335 138.672C121.471 138.384 120.82 138.011 120.383 137.552C119.956 137.093 119.743 136.491 119.743 135.744C119.732 135.115 119.876 134.565 120.175 134.096C120.484 133.627 120.911 133.264 121.455 133.008C122.009 132.741 122.655 132.608 123.391 132.608C124.116 132.608 124.751 132.741 125.295 133.008C125.849 133.275 126.281 133.648 126.591 134.128C126.9 134.597 127.06 135.147 127.071 135.776H125.279C125.279 135.488 125.204 135.216 125.055 134.96C124.905 134.693 124.687 134.475 124.399 134.304C124.111 134.133 123.759 134.048 123.343 134.048C122.809 134.037 122.367 134.171 122.015 134.448C121.673 134.725 121.503 135.109 121.503 135.6C121.503 136.037 121.631 136.373 121.887 136.608C122.143 136.843 122.495 137.04 122.943 137.2C123.391 137.349 123.903 137.525 124.479 137.728C125.033 137.909 125.529 138.128 125.967 138.384C126.404 138.64 126.751 138.976 127.007 139.392C127.273 139.808 127.407 140.336 127.407 140.976C127.407 141.541 127.263 142.069 126.975 142.56C126.687 143.04 126.255 143.435 125.679 143.744C125.103 144.043 124.393 144.192 123.551 144.192ZM132.909 144.192C132.13 144.192 131.437 144.021 130.829 143.68C130.232 143.328 129.762 142.843 129.421 142.224C129.08 141.605 128.909 140.885 128.909 140.064C128.909 139.232 129.074 138.501 129.405 137.872C129.746 137.243 130.216 136.752 130.813 136.4C131.421 136.048 132.125 135.872 132.925 135.872C133.704 135.872 134.381 136.048 134.957 136.4C135.533 136.741 135.981 137.2 136.301 137.776C136.621 138.352 136.781 138.987 136.781 139.68C136.781 139.787 136.776 139.904 136.765 140.032C136.765 140.149 136.76 140.283 136.749 140.432H130.573C130.626 141.2 130.877 141.787 131.325 142.192C131.784 142.587 132.312 142.784 132.909 142.784C133.389 142.784 133.789 142.677 134.109 142.464C134.44 142.24 134.685 141.941 134.845 141.568H136.541C136.328 142.315 135.901 142.939 135.261 143.44C134.632 143.941 133.848 144.192 132.909 144.192ZM132.909 137.264C132.344 137.264 131.842 137.435 131.405 137.776C130.968 138.107 130.701 138.608 130.605 139.28H135.085C135.053 138.661 134.834 138.171 134.429 137.808C134.024 137.445 133.517 137.264 132.909 137.264ZM142.301 144.192C141.522 144.192 140.823 144.016 140.205 143.664C139.597 143.312 139.117 142.827 138.765 142.208C138.423 141.579 138.253 140.853 138.253 140.032C138.253 139.211 138.423 138.491 138.765 137.872C139.117 137.243 139.597 136.752 140.205 136.4C140.823 136.048 141.522 135.872 142.301 135.872C143.282 135.872 144.103 136.128 144.765 136.64C145.437 137.152 145.869 137.845 146.061 138.72H144.285C144.178 138.283 143.943 137.941 143.581 137.696C143.218 137.451 142.791 137.328 142.301 137.328C141.885 137.328 141.501 137.435 141.149 137.648C140.797 137.851 140.514 138.155 140.301 138.56C140.087 138.955 139.981 139.445 139.981 140.032C139.981 140.619 140.087 141.115 140.301 141.52C140.514 141.915 140.797 142.219 141.149 142.432C141.501 142.645 141.885 142.752 142.301 142.752C142.791 142.752 143.218 142.629 143.581 142.384C143.943 142.139 144.178 141.792 144.285 141.344H146.061C145.879 142.197 145.453 142.885 144.781 143.408C144.109 143.931 143.282 144.192 142.301 144.192ZM150.828 144.192C149.868 144.192 149.111 143.893 148.556 143.296C148.012 142.699 147.74 141.808 147.74 140.624V136.064H149.436V140.448C149.436 141.984 150.065 142.752 151.324 142.752C151.953 142.752 152.471 142.528 152.876 142.08C153.281 141.632 153.484 140.992 153.484 140.16V136.064H155.18V144H153.676L153.548 142.608C153.303 143.099 152.94 143.488 152.46 143.776C151.991 144.053 151.447 144.192 150.828 144.192ZM157.338 144V136.064H158.858L159.002 137.568C159.279 137.045 159.663 136.635 160.154 136.336C160.655 136.027 161.258 135.872 161.962 135.872V137.648H161.498C161.028 137.648 160.607 137.728 160.234 137.888C159.871 138.037 159.578 138.299 159.354 138.672C159.14 139.035 159.034 139.541 159.034 140.192V144H157.338ZM166.909 144.192C166.13 144.192 165.437 144.021 164.829 143.68C164.232 143.328 163.762 142.843 163.421 142.224C163.08 141.605 162.909 140.885 162.909 140.064C162.909 139.232 163.074 138.501 163.405 137.872C163.746 137.243 164.216 136.752 164.813 136.4C165.421 136.048 166.125 135.872 166.925 135.872C167.704 135.872 168.381 136.048 168.957 136.4C169.533 136.741 169.981 137.2 170.301 137.776C170.621 138.352 170.781 138.987 170.781 139.68C170.781 139.787 170.776 139.904 170.765 140.032C170.765 140.149 170.76 140.283 170.749 140.432H164.573C164.626 141.2 164.877 141.787 165.325 142.192C165.784 142.587 166.312 142.784 166.909 142.784C167.389 142.784 167.789 142.677 168.109 142.464C168.44 142.24 168.685 141.941 168.845 141.568H170.541C170.328 142.315 169.901 142.939 169.261 143.44C168.632 143.941 167.848 144.192 166.909 144.192ZM166.909 137.264C166.344 137.264 165.842 137.435 165.405 137.776C164.968 138.107 164.701 138.608 164.605 139.28H169.085C169.053 138.661 168.834 138.171 168.429 137.808C168.024 137.445 167.517 137.264 166.909 137.264ZM41.7713 168.192C40.7686 168.192 39.9419 167.947 39.2913 167.456C38.6406 166.965 38.2673 166.315 38.1713 165.504H39.8832C39.9686 165.867 40.1713 166.181 40.4913 166.448C40.8113 166.704 41.2326 166.832 41.7552 166.832C42.2673 166.832 42.6406 166.725 42.8753 166.512C43.1099 166.299 43.2273 166.053 43.2273 165.776C43.2273 165.371 43.0619 165.099 42.7313 164.96C42.4113 164.811 41.9633 164.677 41.3873 164.56C40.9393 164.464 40.4913 164.336 40.0433 164.176C39.6059 164.016 39.2379 163.792 38.9393 163.504C38.6513 163.205 38.5073 162.805 38.5073 162.304C38.5073 161.611 38.7739 161.035 39.3073 160.576C39.8406 160.107 40.5873 159.872 41.5473 159.872C42.4326 159.872 43.1473 160.085 43.6913 160.512C44.2459 160.939 44.5713 161.541 44.6673 162.32H43.0353C42.9819 161.979 42.8219 161.712 42.5553 161.52C42.2993 161.328 41.9526 161.232 41.5153 161.232C41.0886 161.232 40.7579 161.323 40.5233 161.504C40.2886 161.675 40.1713 161.899 40.1713 162.176C40.1713 162.453 40.3313 162.672 40.6513 162.832C40.9819 162.992 41.4139 163.136 41.9473 163.264C42.4806 163.381 42.9713 163.52 43.4193 163.68C43.8779 163.829 44.2459 164.053 44.5233 164.352C44.8006 164.651 44.9393 165.088 44.9393 165.664C44.9499 166.389 44.6673 166.992 44.0913 167.472C43.5259 167.952 42.7526 168.192 41.7713 168.192ZM47.3281 171.52L49.2321 167.344H48.7681L45.6321 160.064H47.4721L49.9041 165.936L52.4481 160.064H54.2401L49.1201 171.52H47.3281ZM58.3806 168.192C57.378 168.192 56.5513 167.947 55.9006 167.456C55.25 166.965 54.8766 166.315 54.7806 165.504H56.4926C56.578 165.867 56.7806 166.181 57.1006 166.448C57.4206 166.704 57.842 166.832 58.3646 166.832C58.8766 166.832 59.25 166.725 59.4846 166.512C59.7193 166.299 59.8366 166.053 59.8366 165.776C59.8366 165.371 59.6713 165.099 59.3406 164.96C59.0206 164.811 58.5726 164.677 57.9966 164.56C57.5486 164.464 57.1006 164.336 56.6526 164.176C56.2153 164.016 55.8473 163.792 55.5486 163.504C55.2606 163.205 55.1166 162.805 55.1166 162.304C55.1166 161.611 55.3833 161.035 55.9166 160.576C56.45 160.107 57.1966 159.872 58.1566 159.872C59.042 159.872 59.7566 160.085 60.3006 160.512C60.8553 160.939 61.1806 161.541 61.2766 162.32H59.6446C59.5913 161.979 59.4313 161.712 59.1646 161.52C58.9086 161.328 58.562 161.232 58.1246 161.232C57.698 161.232 57.3673 161.323 57.1326 161.504C56.898 161.675 56.7806 161.899 56.7806 162.176C56.7806 162.453 56.9406 162.672 57.2606 162.832C57.5913 162.992 58.0233 163.136 58.5566 163.264C59.09 163.381 59.5806 163.52 60.0286 163.68C60.4873 163.829 60.8553 164.053 61.1326 164.352C61.41 164.651 61.5486 165.088 61.5486 165.664C61.5593 166.389 61.2766 166.992 60.7006 167.472C60.1353 167.952 59.362 168.192 58.3806 168.192ZM66.4313 168C65.6526 168 65.0339 167.813 64.5753 167.44C64.1166 167.056 63.8873 166.379 63.8873 165.408V161.488H62.5273V160.064H63.8873L64.0953 158.048H65.5833V160.064H67.8233V161.488H65.5833V165.408C65.5833 165.845 65.6739 166.149 65.8553 166.32C66.0473 166.48 66.3726 166.56 66.8313 166.56H67.7433V168H66.4313ZM73.0809 168.192C72.3022 168.192 71.6089 168.021 71.0009 167.68C70.4035 167.328 69.9342 166.843 69.5929 166.224C69.2515 165.605 69.0809 164.885 69.0809 164.064C69.0809 163.232 69.2462 162.501 69.5769 161.872C69.9182 161.243 70.3875 160.752 70.9849 160.4C71.5929 160.048 72.2969 159.872 73.0969 159.872C73.8755 159.872 74.5529 160.048 75.1289 160.4C75.7049 160.741 76.1529 161.2 76.4729 161.776C76.7929 162.352 76.9529 162.987 76.9529 163.68C76.9529 163.787 76.9475 163.904 76.9369 164.032C76.9369 164.149 76.9315 164.283 76.9209 164.432H70.7449C70.7982 165.2 71.0489 165.787 71.4969 166.192C71.9555 166.587 72.4835 166.784 73.0809 166.784C73.5609 166.784 73.9609 166.677 74.2809 166.464C74.6115 166.24 74.8569 165.941 75.0169 165.568H76.7129C76.4995 166.315 76.0729 166.939 75.4329 167.44C74.8035 167.941 74.0195 168.192 73.0809 168.192ZM73.0809 161.264C72.5155 161.264 72.0142 161.435 71.5769 161.776C71.1395 162.107 70.8729 162.608 70.7769 163.28H75.2569C75.2249 162.661 75.0062 162.171 74.6009 161.808C74.1955 161.445 73.6889 161.264 73.0809 161.264ZM78.7126 168V160.064H80.2166L80.3606 161.184C80.6166 160.779 80.9526 160.459 81.3686 160.224C81.7953 159.989 82.286 159.872 82.8406 159.872C84.0993 159.872 84.974 160.368 85.4646 161.36C85.7526 160.901 86.1366 160.539 86.6166 160.272C87.1073 160.005 87.6353 159.872 88.2006 159.872C89.1926 159.872 89.9713 160.171 90.5366 160.768C91.102 161.365 91.3846 162.256 91.3846 163.44V168H89.6886V163.616C89.6886 162.08 89.102 161.312 87.9286 161.312C87.3313 161.312 86.8406 161.536 86.4566 161.984C86.0833 162.432 85.8966 163.072 85.8966 163.904V168H84.2006V163.616C84.2006 162.08 83.6086 161.312 82.4246 161.312C81.838 161.312 81.3526 161.536 80.9686 161.984C80.5953 162.432 80.4086 163.072 80.4086 163.904V168H78.7126Z" fill="white" />
  <path d="M304.264 85L310.226 71.602H302.218V69.6H312.624V71.294L306.706 85H304.264Z" fill="white" />
</svg>
