<svg width="81" height="81" viewBox="0 0 81 81" fill="none" xmlns="http://www.w3.org/2000/svg">
  <rect width="81" height="81" rx="15" fill="#1F2336" />
  <path d="M22.1667 35.9167L20.5465 37.5369L18.9263 35.9167L20.5465 34.2965L22.1667 35.9167ZM61.125 54.25C61.125 54.8578 60.8836 55.4407 60.4538 55.8705C60.024 56.3002 59.4411 56.5417 58.8334 56.5417C58.2256 56.5417 57.6427 56.3002 57.2129 55.8705C56.7831 55.4407 56.5417 54.8578 56.5417 54.25H61.125ZM32.0048 48.9952L20.5465 37.5369L23.7869 34.2965L35.2452 45.7548L32.0048 48.9952ZM20.5465 34.2965L32.0048 22.8381L35.2452 26.0786L23.7869 37.5369L20.5465 34.2965ZM22.1667 33.625H45.0834V38.2083H22.1667V33.625ZM61.125 49.6667V54.25H56.5417V49.6667H61.125ZM45.0834 33.625C49.3379 33.625 53.4181 35.3151 56.4265 38.3235C59.4349 41.3319 61.125 45.4122 61.125 49.6667H56.5417C56.5417 46.6277 55.3345 43.7133 53.1856 41.5644C51.0368 39.4156 48.1223 38.2083 45.0834 38.2083V33.625Z" fill="white" />
</svg>
