<svg width="144" height="95" viewBox="0 0 144 95" fill="none" xmlns="http://www.w3.org/2000/svg">
  <path d="M77.9625 0.689L77.7505 0.583L77.724 0.636C75.869 0.2385 73.961 0 72 0C57.372 0 45.5 11.872 45.5 26.5C45.5 41.128 57.372 53 72 53C86.628 53 98.5 41.128 98.5 26.5C98.5 13.9125 89.7285 3.392 77.9625 0.689ZM91.6365 18.55H70.463L77.6445 6.095C84.0045 7.844 89.172 12.508 91.6365 18.55ZM74.915 5.512L67.4155 18.55L64.368 23.85L57.16 11.395C61.1105 7.48765 66.4435 5.29731 72 5.3C72.9805 5.3 73.961 5.3795 74.915 5.512ZM55.305 13.4885L62.831 26.5L65.8785 31.8H51.489C51.065 30.104 50.8 28.3285 50.8 26.5C50.8 21.5975 52.496 17.0925 55.305 13.4885ZM52.3635 34.45H73.5105L66.329 46.905C63.2062 46.0299 60.3247 44.4529 57.9043 42.2943C55.484 40.1357 53.5888 37.4527 52.3635 34.45ZM69.085 47.4615L79.6585 29.15L86.8665 41.605C82.9027 45.5086 77.5633 47.6977 72 47.7C70.993 47.7 70.039 47.594 69.085 47.4615ZM88.695 39.5115L78.095 21.2H92.4845C92.935 22.896 93.2 24.6715 93.2 26.5C93.2 31.4025 91.504 35.9075 88.695 39.5115Z" fill="white" />
  <path d="M44.5296 89.216C43.2576 89.216 42.1656 88.946 41.2536 88.406C40.3416 87.854 39.6396 87.092 39.1476 86.12C38.6556 85.136 38.4096 84.002 38.4096 82.718C38.4096 81.434 38.6556 80.3 39.1476 79.316C39.6396 78.332 40.3416 77.564 41.2536 77.012C42.1656 76.46 43.2576 76.184 44.5296 76.184C46.0416 76.184 47.2776 76.562 48.2376 77.318C49.2096 78.062 49.8156 79.112 50.0556 80.468H47.5176C47.3616 79.784 47.0256 79.25 46.5096 78.866C46.0056 78.47 45.3336 78.272 44.4936 78.272C43.3296 78.272 42.4176 78.668 41.7576 79.46C41.0976 80.252 40.7676 81.338 40.7676 82.718C40.7676 84.098 41.0976 85.184 41.7576 85.976C42.4176 86.756 43.3296 87.146 44.4936 87.146C45.3336 87.146 46.0056 86.966 46.5096 86.606C47.0256 86.234 47.3616 85.724 47.5176 85.076H50.0556C49.8156 86.372 49.2096 87.386 48.2376 88.118C47.2776 88.85 46.0416 89.216 44.5296 89.216ZM55.1191 89.216C54.3511 89.216 53.7211 89.096 53.2291 88.856C52.7371 88.604 52.3711 88.274 52.1311 87.866C51.8911 87.458 51.7711 87.008 51.7711 86.516C51.7711 85.688 52.0951 85.016 52.7431 84.5C53.3911 83.984 54.3631 83.726 55.6591 83.726H57.9271V83.51C57.9271 82.898 57.7531 82.448 57.4051 82.16C57.0571 81.872 56.6251 81.728 56.1091 81.728C55.6411 81.728 55.2331 81.842 54.8851 82.07C54.5371 82.286 54.3211 82.61 54.2371 83.042H51.9871C52.0471 82.394 52.2631 81.83 52.6351 81.35C53.0191 80.87 53.5111 80.504 54.1111 80.252C54.7111 79.988 55.3831 79.856 56.1271 79.856C57.3991 79.856 58.4011 80.174 59.1331 80.81C59.8651 81.446 60.2311 82.346 60.2311 83.51V89H58.2691L58.0531 87.56C57.7891 88.04 57.4171 88.436 56.9371 88.748C56.4691 89.06 55.8631 89.216 55.1191 89.216ZM55.6411 87.416C56.3011 87.416 56.8111 87.2 57.1711 86.768C57.5431 86.336 57.7771 85.802 57.8731 85.166H55.9111C55.2991 85.166 54.8611 85.28 54.5971 85.508C54.3331 85.724 54.2011 85.994 54.2011 86.318C54.2011 86.666 54.3331 86.936 54.5971 87.128C54.8611 87.32 55.2091 87.416 55.6411 87.416ZM62.4298 89V80.072H64.4638L64.6618 81.278C64.9498 80.846 65.3278 80.504 65.7958 80.252C66.2758 79.988 66.8278 79.856 67.4518 79.856C68.8318 79.856 69.8098 80.39 70.3858 81.458C70.7098 80.966 71.1418 80.576 71.6818 80.288C72.2338 80 72.8338 79.856 73.4818 79.856C74.6458 79.856 75.5398 80.204 76.1638 80.9C76.7878 81.596 77.0998 82.616 77.0998 83.96V89H74.7958V84.176C74.7958 83.408 74.6458 82.82 74.3458 82.412C74.0578 82.004 73.6078 81.8 72.9958 81.8C72.3718 81.8 71.8678 82.028 71.4838 82.484C71.1118 82.94 70.9258 83.576 70.9258 84.392V89H68.6218V84.176C68.6218 83.408 68.4718 82.82 68.1718 82.412C67.8718 82.004 67.4098 81.8 66.7858 81.8C66.1738 81.8 65.6758 82.028 65.2918 82.484C64.9198 82.94 64.7338 83.576 64.7338 84.392V89H62.4298ZM83.6252 89.216C82.7252 89.216 81.9272 89.024 81.2312 88.64C80.5352 88.256 79.9892 87.716 79.5932 87.02C79.1972 86.324 78.9992 85.52 78.9992 84.608C78.9992 83.684 79.1912 82.862 79.5752 82.142C79.9712 81.422 80.5112 80.864 81.1952 80.468C81.8912 80.06 82.7072 79.856 83.6432 79.856C84.5192 79.856 85.2932 80.048 85.9652 80.432C86.6372 80.816 87.1592 81.344 87.5312 82.016C87.9152 82.676 88.1072 83.414 88.1072 84.23C88.1072 84.362 88.1012 84.5 88.0892 84.644C88.0892 84.788 88.0832 84.938 88.0712 85.094H81.2852C81.3332 85.79 81.5732 86.336 82.0052 86.732C82.4492 87.128 82.9832 87.326 83.6072 87.326C84.0752 87.326 84.4652 87.224 84.7772 87.02C85.1012 86.804 85.3412 86.528 85.4972 86.192H87.8372C87.6692 86.756 87.3872 87.272 86.9912 87.74C86.6072 88.196 86.1272 88.556 85.5512 88.82C84.9872 89.084 84.3452 89.216 83.6252 89.216ZM83.6432 81.728C83.0792 81.728 82.5812 81.89 82.1492 82.214C81.7172 82.526 81.4412 83.006 81.3212 83.654H85.7672C85.7312 83.066 85.5152 82.598 85.1192 82.25C84.7232 81.902 84.2312 81.728 83.6432 81.728ZM90.045 89V80.072H92.097L92.313 81.746C92.637 81.17 93.075 80.714 93.627 80.378C94.191 80.03 94.851 79.856 95.607 79.856V82.286H94.959C94.455 82.286 94.005 82.364 93.609 82.52C93.213 82.676 92.901 82.946 92.673 83.33C92.457 83.714 92.349 84.248 92.349 84.932V89H90.045ZM100.26 89.216C99.4917 89.216 98.8617 89.096 98.3697 88.856C97.8777 88.604 97.5117 88.274 97.2717 87.866C97.0317 87.458 96.9117 87.008 96.9117 86.516C96.9117 85.688 97.2357 85.016 97.8837 84.5C98.5317 83.984 99.5037 83.726 100.8 83.726H103.068V83.51C103.068 82.898 102.894 82.448 102.546 82.16C102.198 81.872 101.766 81.728 101.25 81.728C100.782 81.728 100.374 81.842 100.026 82.07C99.6777 82.286 99.4617 82.61 99.3777 83.042H97.1277C97.1877 82.394 97.4037 81.83 97.7757 81.35C98.1597 80.87 98.6517 80.504 99.2517 80.252C99.8517 79.988 100.524 79.856 101.268 79.856C102.54 79.856 103.542 80.174 104.274 80.81C105.006 81.446 105.372 82.346 105.372 83.51V89H103.41L103.194 87.56C102.93 88.04 102.558 88.436 102.078 88.748C101.61 89.06 101.004 89.216 100.26 89.216ZM100.782 87.416C101.442 87.416 101.952 87.2 102.312 86.768C102.684 86.336 102.918 85.802 103.014 85.166H101.052C100.44 85.166 100.002 85.28 99.7377 85.508C99.4737 85.724 99.3417 85.994 99.3417 86.318C99.3417 86.666 99.4737 86.936 99.7377 87.128C100.002 87.32 100.35 87.416 100.782 87.416Z" fill="white" />
</svg>
