<svg width="356" height="325" viewBox="0 0 356 325" fill="none" xmlns="http://www.w3.org/2000/svg">
  <rect x="0.63916" y="0.478271" width="355" height="323.653" rx="28" fill="#1F2336" />
  <path d="M202.136 60.0245C202.311 74.0258 194.243 87.6341 180.707 93.7764C177.536 95.2241 175.328 94.2314 172.682 92.6183C160.408 85.0351 154.227 74.012 154.139 59.5489C154.133 58.4166 154.483 57.3074 155.144 56.3614C155.806 55.4154 156.75 54.675 157.857 54.2338L176.793 46.7057C177.174 46.5556 177.583 46.4783 177.996 46.4783C178.409 46.4783 178.817 46.5556 179.198 46.7057L197.938 54.1304C199.171 54.6162 200.226 55.4337 200.972 56.4815C201.719 57.5293 202.123 58.7612 202.136 60.0245ZM178.761 53.7374C178.513 53.6409 178.389 53.7167 178.389 53.9649L178.346 85.7728C178.346 87.4548 179.053 87.7719 180.467 86.7241C189.782 79.8027 194.541 71.0752 194.745 60.5415C194.76 60.1693 194.585 59.9142 194.221 59.7763L178.761 53.7374Z" fill="#FFC107" />
  <path d="M149.095 176.922C146.53 176.922 144.31 176.367 142.435 175.257C140.585 174.123 139.155 172.556 138.143 170.558C137.132 168.536 136.626 166.205 136.626 163.565C136.626 160.901 137.132 158.57 138.143 156.572C139.155 154.55 140.585 152.971 142.435 151.836C144.31 150.702 146.53 150.134 149.095 150.134C152.129 150.134 154.608 150.874 156.532 152.354C158.456 153.834 159.677 155.906 160.195 158.57H155.829C155.484 157.066 154.744 155.869 153.609 154.981C152.475 154.093 150.958 153.649 149.058 153.649C146.468 153.649 144.421 154.537 142.916 156.313C141.412 158.065 140.659 160.482 140.659 163.565C140.659 166.624 141.412 169.029 142.916 170.78C144.421 172.532 146.468 173.407 149.058 173.407C150.958 173.407 152.475 172.988 153.609 172.149C154.744 171.311 155.484 170.164 155.829 168.708H160.195C159.677 171.274 158.456 173.284 156.532 174.739C154.608 176.195 152.129 176.922 149.095 176.922ZM169.501 176.478L162.619 158.126H166.726L171.832 172.741L176.938 158.126H181.008L174.163 176.478H169.501ZM191.876 176.922C190.075 176.922 188.472 176.528 187.066 175.738C185.685 174.924 184.599 173.802 183.81 172.371C183.021 170.941 182.626 169.276 182.626 167.376C182.626 165.452 183.008 163.763 183.773 162.307C184.562 160.852 185.648 159.717 187.029 158.903C188.435 158.089 190.063 157.682 191.913 157.682C193.714 157.682 195.28 158.089 196.612 158.903C197.944 159.693 198.98 160.753 199.72 162.085C200.46 163.417 200.83 164.885 200.83 166.488C200.83 166.735 200.818 167.006 200.793 167.302C200.793 167.574 200.781 167.882 200.756 168.227H186.474C186.597 170.003 187.177 171.36 188.213 172.297C189.274 173.21 190.495 173.666 191.876 173.666C192.986 173.666 193.911 173.42 194.651 172.926C195.416 172.408 195.983 171.718 196.353 170.854H200.275C199.782 172.581 198.795 174.024 197.315 175.183C195.86 176.343 194.047 176.922 191.876 176.922ZM191.876 160.901C190.569 160.901 189.409 161.296 188.398 162.085C187.387 162.85 186.77 164.009 186.548 165.563H196.908C196.834 164.133 196.328 162.998 195.391 162.159C194.454 161.321 193.282 160.901 191.876 160.901ZM212.225 176.922C209.907 176.922 207.995 176.355 206.49 175.22C204.986 174.086 204.122 172.581 203.9 170.706H207.859C208.057 171.545 208.525 172.273 209.265 172.889C210.005 173.481 210.98 173.777 212.188 173.777C213.372 173.777 214.236 173.531 214.778 173.037C215.321 172.544 215.592 171.977 215.592 171.335C215.592 170.398 215.21 169.769 214.445 169.448C213.705 169.103 212.669 168.795 211.337 168.523C210.301 168.301 209.265 168.005 208.229 167.635C207.218 167.265 206.367 166.747 205.676 166.081C205.01 165.391 204.677 164.466 204.677 163.306C204.677 161.703 205.294 160.371 206.527 159.31C207.761 158.225 209.487 157.682 211.707 157.682C213.755 157.682 215.407 158.176 216.665 159.162C217.948 160.149 218.7 161.543 218.922 163.343H215.148C215.025 162.554 214.655 161.937 214.038 161.493C213.446 161.049 212.645 160.827 211.633 160.827C210.647 160.827 209.882 161.037 209.339 161.456C208.797 161.851 208.525 162.369 208.525 163.01C208.525 163.652 208.895 164.157 209.635 164.527C210.4 164.897 211.399 165.23 212.632 165.526C213.866 165.798 215 166.118 216.036 166.488C217.097 166.834 217.948 167.352 218.589 168.042C219.231 168.733 219.551 169.744 219.551 171.076C219.576 172.754 218.922 174.147 217.59 175.257C216.283 176.367 214.495 176.922 212.225 176.922Z" fill="white" />
  <path d="M177.432 257.478V236.018L173.251 236.98V234.094L178.986 231.578H181.502V257.478H177.432Z" fill="white" />
</svg>
