<svg width="356" height="325" viewBox="0 0 356 325" fill="none" xmlns="http://www.w3.org/2000/svg">
  <rect x="0.63916" y="0.478271" width="355" height="323.653" rx="28" fill="#1F2336" />
  <path d="M203.139 77.9783C203.139 85.0066 200.505 91.747 195.817 96.7167C191.128 101.686 184.77 104.478 178.139 104.478C171.509 104.478 165.15 101.686 160.461 96.7167C155.773 91.747 153.139 85.0066 153.139 77.9783C153.139 70.9501 155.773 64.2097 160.461 59.24C165.15 54.2703 171.509 51.4783 178.139 51.4783C184.77 51.4783 191.128 54.2703 195.817 59.24C200.505 64.2097 203.139 70.9501 203.139 77.9783ZM180.884 68.0693C180.884 67.3158 180.601 66.5932 180.099 66.0604C179.596 65.5276 178.914 65.2284 178.204 65.2284C177.493 65.2284 176.811 65.5276 176.308 66.0604C175.806 66.5932 175.523 67.3158 175.523 68.0693C175.523 68.8227 175.806 69.5453 176.308 70.078C176.811 70.6108 177.493 70.9102 178.204 70.9102C178.914 70.9102 179.596 70.6108 180.099 70.078C180.601 69.5453 180.884 68.8227 180.884 68.0693ZM180.948 84.6147L181.034 77.0011C181.048 76.0465 180.619 75.4404 179.747 75.1828C177.789 74.6373 175.838 74.6449 173.894 75.2055C173.336 75.3571 172.886 75.6828 172.543 76.1828C172.243 76.6222 172.179 77.1223 172.35 77.6829C172.449 77.9884 172.619 78.2617 172.844 78.4766C173.069 78.6915 173.342 78.8408 173.637 78.9101L175.824 79.4329C176.681 79.645 177.11 80.2132 177.11 81.1375L177.089 84.6147C177.089 85.5541 176.653 86.092 175.781 86.2283C175.08 86.3496 174.408 86.4935 173.765 86.6602C173.308 86.7814 172.936 87.0465 172.65 87.4556C172.236 88.0465 172.171 88.7284 172.457 89.5011C172.576 89.8417 172.792 90.1354 173.076 90.3427C173.359 90.55 173.697 90.6607 174.044 90.6601L182.084 90.7511C183.071 90.7662 183.621 90.2511 183.735 89.2056C183.892 87.7511 183.306 86.7511 181.977 86.2056C181.291 85.9177 180.948 85.3874 180.948 84.6147Z" fill="#0DCAF0" />
  <path d="M70.4166 186.478V160.578H74.3386V186.478H70.4166ZM79.4463 186.478V168.126H82.9243L83.2203 171.345C83.7876 170.211 84.614 169.323 85.6993 168.681C86.8093 168.015 88.0796 167.682 89.5103 167.682C91.7303 167.682 93.4693 168.373 94.7273 169.754C96.01 171.136 96.6513 173.195 96.6513 175.933V186.478H92.7663V176.34C92.7663 172.788 91.311 171.012 88.4003 171.012C86.945 171.012 85.7363 171.53 84.7743 172.566C83.837 173.602 83.3683 175.082 83.3683 177.006V186.478H79.4463ZM102.196 186.478V171.419H99.5685V168.126H102.196V165.462C102.196 163.464 102.689 162.034 103.676 161.17C104.687 160.282 106.105 159.838 107.931 159.838H109.855V163.168H108.523C107.659 163.168 107.043 163.353 106.673 163.723C106.303 164.069 106.118 164.661 106.118 165.499V168.126H110.336V171.419H106.118V186.478H102.196ZM121.923 186.922C120.172 186.922 118.593 186.528 117.187 185.738C115.806 184.924 114.708 183.802 113.894 182.371C113.08 180.916 112.673 179.226 112.673 177.302C112.673 175.378 113.08 173.701 113.894 172.27C114.733 170.815 115.855 169.693 117.261 168.903C118.667 168.089 120.233 167.682 121.96 167.682C123.711 167.682 125.278 168.089 126.659 168.903C128.065 169.693 129.175 170.815 129.989 172.27C130.828 173.701 131.247 175.378 131.247 177.302C131.247 179.226 130.828 180.916 129.989 182.371C129.175 183.802 128.065 184.924 126.659 185.738C125.253 186.528 123.674 186.922 121.923 186.922ZM121.923 183.555C122.86 183.555 123.724 183.321 124.513 182.852C125.327 182.384 125.981 181.693 126.474 180.78C126.967 179.843 127.214 178.684 127.214 177.302C127.214 175.921 126.967 174.774 126.474 173.861C126.005 172.924 125.364 172.221 124.55 171.752C123.761 171.284 122.897 171.049 121.96 171.049C121.023 171.049 120.147 171.284 119.333 171.752C118.544 172.221 117.902 172.924 117.409 173.861C116.916 174.774 116.669 175.921 116.669 177.302C116.669 178.684 116.916 179.843 117.409 180.78C117.902 181.693 118.544 182.384 119.333 182.852C120.122 183.321 120.986 183.555 121.923 183.555ZM135.488 186.478V168.126H139.003L139.336 171.604C139.978 170.396 140.866 169.446 142 168.755C143.16 168.04 144.553 167.682 146.181 167.682V171.789H145.108C144.023 171.789 143.049 171.974 142.185 172.344C141.347 172.69 140.668 173.294 140.15 174.157C139.657 174.996 139.41 176.168 139.41 177.672V186.478H135.488ZM149.544 186.478V168.126H153.022L153.355 170.716C153.947 169.779 154.724 169.039 155.686 168.496C156.673 167.954 157.807 167.682 159.09 167.682C162.001 167.682 164.023 168.829 165.158 171.123C165.824 170.063 166.712 169.224 167.822 168.607C168.957 167.991 170.178 167.682 171.485 167.682C173.779 167.682 175.58 168.373 176.887 169.754C178.194 171.136 178.848 173.195 178.848 175.933V186.478H174.926V176.34C174.926 172.788 173.569 171.012 170.856 171.012C169.475 171.012 168.34 171.53 167.452 172.566C166.589 173.602 166.157 175.082 166.157 177.006V186.478H162.235V176.34C162.235 172.788 160.866 171.012 158.128 171.012C156.771 171.012 155.649 171.53 154.761 172.566C153.898 173.602 153.466 175.082 153.466 177.006V186.478H149.544ZM189.653 186.922C188.099 186.922 186.816 186.663 185.805 186.145C184.793 185.627 184.041 184.949 183.548 184.11C183.054 183.247 182.808 182.31 182.808 181.298C182.808 179.522 183.498 178.116 184.88 177.08C186.261 176.044 188.234 175.526 190.8 175.526H195.61V175.193C195.61 173.763 195.215 172.69 194.426 171.974C193.661 171.259 192.662 170.901 191.429 170.901C190.343 170.901 189.394 171.173 188.58 171.715C187.79 172.233 187.309 173.01 187.137 174.046H183.215C183.338 172.714 183.782 171.58 184.547 170.642C185.336 169.68 186.323 168.953 187.507 168.459C188.715 167.941 190.035 167.682 191.466 167.682C194.031 167.682 196.017 168.361 197.423 169.717C198.829 171.049 199.532 172.875 199.532 175.193V186.478H196.128L195.795 183.333C195.277 184.345 194.524 185.196 193.538 185.886C192.551 186.577 191.256 186.922 189.653 186.922ZM190.43 183.74C191.49 183.74 192.378 183.494 193.094 183C193.834 182.482 194.401 181.804 194.796 180.965C195.215 180.127 195.474 179.202 195.573 178.19H191.207C189.653 178.19 188.543 178.462 187.877 179.004C187.235 179.547 186.915 180.225 186.915 181.039C186.915 181.878 187.223 182.544 187.84 183.037C188.481 183.506 189.344 183.74 190.43 183.74ZM211.439 186.478C209.638 186.478 208.208 186.047 207.147 185.183C206.086 184.295 205.556 182.729 205.556 180.484V171.419H202.411V168.126H205.556L206.037 163.464H209.478V168.126H214.658V171.419H209.478V180.484C209.478 181.496 209.688 182.199 210.107 182.593C210.551 182.963 211.303 183.148 212.364 183.148H214.473V186.478H211.439ZM220.922 164.648C220.182 164.648 219.565 164.426 219.072 163.982C218.603 163.514 218.369 162.934 218.369 162.243C218.369 161.553 218.603 160.985 219.072 160.541C219.565 160.073 220.182 159.838 220.922 159.838C221.662 159.838 222.266 160.073 222.735 160.541C223.228 160.985 223.475 161.553 223.475 162.243C223.475 162.934 223.228 163.514 222.735 163.982C222.266 164.426 221.662 164.648 220.922 164.648ZM218.961 186.478V168.126H222.883V186.478H218.961ZM236.645 186.922C234.893 186.922 233.315 186.528 231.909 185.738C230.527 184.924 229.43 183.802 228.616 182.371C227.802 180.916 227.395 179.226 227.395 177.302C227.395 175.378 227.802 173.701 228.616 172.27C229.454 170.815 230.577 169.693 231.983 168.903C233.389 168.089 234.955 167.682 236.682 167.682C238.433 167.682 239.999 168.089 241.381 168.903C242.787 169.693 243.897 170.815 244.711 172.27C245.549 173.701 245.969 175.378 245.969 177.302C245.969 179.226 245.549 180.916 244.711 182.371C243.897 183.802 242.787 184.924 241.381 185.738C239.975 186.528 238.396 186.922 236.645 186.922ZM236.645 183.555C237.582 183.555 238.445 183.321 239.235 182.852C240.049 182.384 240.702 181.693 241.196 180.78C241.689 179.843 241.936 178.684 241.936 177.302C241.936 175.921 241.689 174.774 241.196 173.861C240.727 172.924 240.086 172.221 239.272 171.752C238.482 171.284 237.619 171.049 236.682 171.049C235.744 171.049 234.869 171.284 234.055 171.752C233.265 172.221 232.624 172.924 232.131 173.861C231.637 174.774 231.391 175.921 231.391 177.302C231.391 178.684 231.637 179.843 232.131 180.78C232.624 181.693 233.265 182.384 234.055 182.852C234.844 183.321 235.707 183.555 236.645 183.555ZM250.21 186.478V168.126H253.688L253.984 171.345C254.551 170.211 255.378 169.323 256.463 168.681C257.573 168.015 258.843 167.682 260.274 167.682C262.494 167.682 264.233 168.373 265.491 169.754C266.774 171.136 267.415 173.195 267.415 175.933V186.478H263.53V176.34C263.53 172.788 262.075 171.012 259.164 171.012C257.709 171.012 256.5 171.53 255.538 172.566C254.601 173.602 254.132 175.082 254.132 177.006V186.478H250.21ZM279.36 186.922C277.042 186.922 275.13 186.355 273.625 185.22C272.121 184.086 271.257 182.581 271.035 180.706H274.994C275.192 181.545 275.66 182.273 276.4 182.889C277.14 183.481 278.115 183.777 279.323 183.777C280.507 183.777 281.371 183.531 281.913 183.037C282.456 182.544 282.727 181.977 282.727 181.335C282.727 180.398 282.345 179.769 281.58 179.448C280.84 179.103 279.804 178.795 278.472 178.523C277.436 178.301 276.4 178.005 275.364 177.635C274.353 177.265 273.502 176.747 272.811 176.081C272.145 175.391 271.812 174.466 271.812 173.306C271.812 171.703 272.429 170.371 273.662 169.31C274.896 168.225 276.622 167.682 278.842 167.682C280.89 167.682 282.542 168.176 283.8 169.162C285.083 170.149 285.835 171.543 286.057 173.343H282.283C282.16 172.554 281.79 171.937 281.173 171.493C280.581 171.049 279.78 170.827 278.768 170.827C277.782 170.827 277.017 171.037 276.474 171.456C275.932 171.851 275.66 172.369 275.66 173.01C275.66 173.652 276.03 174.157 276.77 174.527C277.535 174.897 278.534 175.23 279.767 175.526C281.001 175.798 282.135 176.118 283.171 176.488C284.232 176.834 285.083 177.352 285.724 178.042C286.366 178.733 286.686 179.744 286.686 181.076C286.711 182.754 286.057 184.147 284.725 185.257C283.418 186.367 281.63 186.922 279.36 186.922Z" fill="white" />
  <path d="M162.092 267.478L172.119 244.945H158.651V241.578H176.152V244.427L166.199 267.478H162.092ZM187.645 267.922C185.968 267.922 184.438 267.626 183.057 267.034C181.7 266.418 180.615 265.493 179.801 264.259C178.987 263.026 178.555 261.484 178.506 259.634H182.391C182.44 261.016 182.909 262.187 183.797 263.149C184.71 264.087 185.992 264.555 187.645 264.555C189.224 264.555 190.432 264.124 191.271 263.26C192.11 262.372 192.529 261.275 192.529 259.967C192.529 258.389 191.962 257.217 190.827 256.452C189.717 255.688 188.348 255.305 186.72 255.305H184.796V252.049H186.757C188.212 252.049 189.384 251.704 190.272 251.013C191.185 250.323 191.641 249.348 191.641 248.09C191.641 247.03 191.283 246.166 190.568 245.5C189.877 244.834 188.891 244.501 187.608 244.501C186.276 244.501 185.228 244.896 184.463 245.685C183.698 246.45 183.279 247.412 183.205 248.571H179.32C179.369 247.067 179.739 245.759 180.43 244.649C181.145 243.539 182.12 242.676 183.353 242.059C184.586 241.443 186.005 241.134 187.608 241.134C189.335 241.134 190.778 241.443 191.937 242.059C193.121 242.651 194.009 243.465 194.601 244.501C195.218 245.513 195.526 246.623 195.526 247.831C195.526 249.213 195.144 250.421 194.379 251.457C193.614 252.493 192.591 253.184 191.308 253.529C192.788 253.85 194.009 254.578 194.971 255.712C195.933 256.822 196.414 258.265 196.414 260.041C196.414 261.472 196.081 262.792 195.415 264C194.749 265.184 193.762 266.134 192.455 266.849C191.148 267.565 189.544 267.922 187.645 267.922Z" fill="white" />
</svg>
