<svg width="144" height="93" viewBox="0 0 144 93" fill="none" xmlns="http://www.w3.org/2000/svg">
  <path d="M94.95 23.4575H92.451C91.0409 23.4575 89.901 24.3729 89.901 25.5C89.901 26.6245 91.0409 27.5374 92.451 27.5374H94.95C96.3576 27.5374 97.5 26.6271 97.5 25.5C97.5 24.3755 96.355 23.4575 94.95 23.4575ZM72 11.475C70.1566 11.4693 68.3303 11.8281 66.6261 12.5309C64.9219 13.2337 63.3735 14.2666 62.0701 15.5701C60.7666 16.8735 59.7337 18.4219 59.0309 20.1261C58.3281 21.8303 57.9693 23.6566 57.975 25.5C57.975 33.2801 64.2199 39.525 72 39.525C79.7775 39.525 86.025 33.2801 86.025 25.5C86.025 17.7199 79.7749 11.475 72 11.475ZM72 35.7C66.3619 35.7 61.8 31.1329 61.8 25.5C61.8 19.8619 66.3619 15.3 72 15.3C74.7052 15.3 77.2996 16.3746 79.2125 18.2875C81.1254 20.2004 82.2 22.7948 82.2 25.5C82.2 28.2052 81.1254 30.7996 79.2125 32.7125C77.2996 34.6254 74.7052 35.7 72 35.7ZM54.15 25.5C54.15 24.3755 53.005 23.4575 51.6 23.4575H49.05C47.6399 23.4575 46.5 24.3729 46.5 25.5C46.5 26.6245 47.6399 27.5374 49.05 27.5374H51.6C53.005 27.5374 54.15 26.6245 54.15 25.5ZM72 7.65C73.1245 7.65 74.0374 6.51015 74.0374 5.1V2.55C74.0374 1.13985 73.1245 0 72 0C70.8729 0 69.9575 1.13985 69.9575 2.55V5.1C69.9575 6.51015 70.8729 7.65 72 7.65ZM72 43.35C70.8729 43.35 69.9575 44.4898 69.9575 45.9V48.45C69.9575 49.8601 70.8729 51 72 51C73.1245 51 74.0374 49.8601 74.0374 48.45V45.9C74.0374 44.4898 73.1245 43.35 72 43.35ZM90.7808 9.6033C91.7778 8.60625 91.9384 7.15275 91.1428 6.35715C90.3472 5.56155 88.8912 5.72475 87.8993 6.7218L86.1143 8.50425C85.1172 9.5013 84.9565 10.9548 85.7521 11.7504C86.5477 12.546 88.0038 12.3828 88.9983 11.3857L90.7808 9.6033ZM55.0017 39.6091L53.2167 41.3967C52.2197 42.3937 52.059 43.8421 52.8546 44.6377C53.6502 45.4333 55.1062 45.2752 56.0982 44.2782L57.8832 42.4958C58.8803 41.4987 59.0409 40.0452 58.2453 39.247C57.4497 38.4489 55.9937 38.6172 55.0017 39.6091ZM56.1007 6.71925C55.1062 5.7222 53.6502 5.559 52.8546 6.3546C52.059 7.1502 52.2222 8.60625 53.2141 9.6033L54.9991 11.3857C55.9962 12.3828 57.4472 12.546 58.2428 11.7504C59.0384 10.9548 58.8777 9.49875 57.8832 8.50425L56.1007 6.71925ZM86.1117 42.4983L87.8967 44.2808C88.8937 45.2778 90.3447 45.4359 91.1403 44.6454C91.9359 43.8498 91.7752 42.3937 90.7782 41.3993L88.9958 39.6168C87.9987 38.6197 86.5452 38.4565 85.747 39.2521C84.9489 40.0477 85.1147 41.5012 86.1117 42.4983Z" fill="white" />
  <path d="M49.963 88V74H52.083V86.32H58.443V88H49.963ZM61.8447 76.2C61.4447 76.2 61.1114 76.08 60.8447 75.84C60.5914 75.5867 60.4647 75.2733 60.4647 74.9C60.4647 74.5267 60.5914 74.22 60.8447 73.98C61.1114 73.7267 61.4447 73.6 61.8447 73.6C62.2447 73.6 62.5714 73.7267 62.8247 73.98C63.0914 74.22 63.2247 74.5267 63.2247 74.9C63.2247 75.2733 63.0914 75.5867 62.8247 75.84C62.5714 76.08 62.2447 76.2 61.8447 76.2ZM60.7847 88V78.08H62.9047V88H60.7847ZM69.7633 84.96C69.2433 84.96 68.7633 84.9 68.3233 84.78L67.4633 85.62C67.6099 85.7133 67.7899 85.7933 68.0033 85.86C68.2166 85.9267 68.5166 85.9867 68.9033 86.04C69.2899 86.0933 69.8166 86.1467 70.4833 86.2C71.8033 86.32 72.7566 86.64 73.3433 87.16C73.9299 87.6667 74.2233 88.3467 74.2233 89.2C74.2233 89.7867 74.0633 90.34 73.7433 90.86C73.4366 91.3933 72.9499 91.82 72.2833 92.14C71.6299 92.4733 70.7899 92.64 69.7633 92.64C68.3766 92.64 67.2499 92.3733 66.3833 91.84C65.5299 91.32 65.1033 90.5267 65.1033 89.46C65.1033 89.0467 65.2099 88.6333 65.4233 88.22C65.6499 87.82 66.0033 87.44 66.4833 87.08C66.2033 86.96 65.9566 86.8333 65.7433 86.7C65.5433 86.5533 65.3633 86.4067 65.2033 86.26V85.78L66.9233 84.02C66.1499 83.3533 65.7633 82.48 65.7633 81.4C65.7633 80.7467 65.9166 80.1533 66.2233 79.62C66.5433 79.0733 67.0033 78.64 67.6033 78.32C68.2033 78 68.9233 77.84 69.7633 77.84C70.3233 77.84 70.8433 77.92 71.3233 78.08H75.0233V79.48L73.2633 79.58C73.5833 80.1267 73.7433 80.7333 73.7433 81.4C73.7433 82.0667 73.5833 82.6667 73.2633 83.2C72.9566 83.7333 72.5033 84.16 71.9033 84.48C71.3166 84.8 70.6033 84.96 69.7633 84.96ZM69.7633 83.3C70.3766 83.3 70.8699 83.14 71.2433 82.82C71.6299 82.4867 71.8233 82.02 71.8233 81.42C71.8233 80.8067 71.6299 80.34 71.2433 80.02C70.8699 79.7 70.3766 79.54 69.7633 79.54C69.1366 79.54 68.6299 79.7 68.2433 80.02C67.8699 80.34 67.6833 80.8067 67.6833 81.42C67.6833 82.02 67.8699 82.4867 68.2433 82.82C68.6299 83.14 69.1366 83.3 69.7633 83.3ZM67.1033 89.26C67.1033 89.8333 67.3566 90.26 67.8633 90.54C68.3699 90.8333 69.0033 90.98 69.7633 90.98C70.4966 90.98 71.0899 90.82 71.5433 90.5C71.9966 90.1933 72.2233 89.78 72.2233 89.26C72.2233 88.8733 72.0699 88.54 71.7633 88.26C71.4566 87.9933 70.8766 87.8267 70.0233 87.76C69.3833 87.72 68.8166 87.66 68.3233 87.58C67.8566 87.8333 67.5366 88.1067 67.3633 88.4C67.1899 88.6933 67.1033 88.98 67.1033 89.26ZM76.9142 88V73.6H79.0342V79.68C79.3676 79.1067 79.8276 78.66 80.4142 78.34C81.0142 78.0067 81.6742 77.84 82.3942 77.84C83.5809 77.84 84.5142 78.2133 85.1942 78.96C85.8742 79.7067 86.2142 80.82 86.2142 82.3V88H84.1142V82.52C84.1142 80.6 83.3476 79.64 81.8142 79.64C81.0142 79.64 80.3476 79.92 79.8142 80.48C79.2942 81.04 79.0342 81.84 79.0342 82.88V88H76.9142ZM92.8711 88C91.8978 88 91.1244 87.7667 90.5511 87.3C89.9778 86.82 89.6911 85.9733 89.6911 84.76V79.86H87.9911V78.08H89.6911L89.9511 75.56H91.8111V78.08H94.6111V79.86H91.8111V84.76C91.8111 85.3067 91.9244 85.6867 92.1511 85.9C92.3911 86.1 92.7978 86.2 93.3711 86.2H94.5111V88H92.8711Z" fill="white" />
</svg>
