<svg width="144" height="100" viewBox="0 0 144 100" fill="none" xmlns="http://www.w3.org/2000/svg">
  <path d="M57.4998 53.1667C56.1707 53.1667 55.0332 52.6939 54.0875 51.7482C53.1418 50.8024 52.6681 49.6642 52.6665 48.3334V24.1667C52.6665 22.8376 53.1402 21.7001 54.0875 20.7544C55.0348 19.8087 56.1723 19.335 57.4998 19.3334H59.9165V14.5001C59.9165 11.157 61.095 8.30778 63.4521 5.95233C65.8091 3.59689 68.6584 2.41836 71.9998 2.41675C75.3429 2.41675 78.1929 3.59528 80.55 5.95233C82.9071 8.30939 84.0848 11.1586 84.0832 14.5001V19.3334H86.4998C87.829 19.3334 88.9673 19.8071 89.9146 20.7544C90.8619 21.7017 91.3348 22.8392 91.3332 24.1667V48.3334C91.3332 49.6626 90.8603 50.8008 89.9146 51.7482C88.9689 52.6955 87.8306 53.1684 86.4998 53.1667H57.4998ZM57.4998 48.3334H86.4998V24.1667H57.4998V48.3334ZM71.9998 41.0834C73.329 41.0834 74.4673 40.6106 75.4146 39.6648C76.3619 38.7191 76.8348 37.5809 76.8332 36.2501C76.8332 34.9209 76.3603 33.7835 75.4146 32.8377C74.4689 31.892 73.3306 31.4184 71.9998 31.4167C70.6707 31.4167 69.5332 31.8904 68.5875 32.8377C67.6418 33.7851 67.1681 34.9225 67.1665 36.2501C67.1665 37.5793 67.6402 38.7175 68.5875 39.6648C69.5348 40.6122 70.6723 41.085 71.9998 41.0834ZM64.7498 19.3334H79.2498V14.5001C79.2498 12.4862 78.545 10.7744 77.1353 9.36467C75.7255 7.95494 74.0137 7.25008 71.9998 7.25008C69.9859 7.25008 68.2741 7.95494 66.8644 9.36467C65.4547 10.7744 64.7498 12.4862 64.7498 14.5001V19.3334Z" fill="white" />
  <path d="M43.9213 94V81.4H46.2253V92.2H51.8053V94H43.9213ZM57.661 94.216C56.797 94.216 56.017 94.018 55.321 93.622C54.637 93.226 54.091 92.68 53.683 91.984C53.287 91.276 53.089 90.46 53.089 89.536C53.089 88.612 53.293 87.802 53.701 87.106C54.109 86.398 54.655 85.846 55.339 85.45C56.035 85.054 56.815 84.856 57.679 84.856C58.531 84.856 59.299 85.054 59.983 85.45C60.679 85.846 61.225 86.398 61.621 87.106C62.029 87.802 62.233 88.612 62.233 89.536C62.233 90.46 62.029 91.276 61.621 91.984C61.225 92.68 60.679 93.226 59.983 93.622C59.287 94.018 58.513 94.216 57.661 94.216ZM57.661 92.218C58.261 92.218 58.783 91.996 59.227 91.552C59.671 91.096 59.893 90.424 59.893 89.536C59.893 88.648 59.671 87.982 59.227 87.538C58.783 87.082 58.267 86.854 57.679 86.854C57.067 86.854 56.539 87.082 56.095 87.538C55.663 87.982 55.447 88.648 55.447 89.536C55.447 90.424 55.663 91.096 56.095 91.552C56.539 91.996 57.061 92.218 57.661 92.218ZM68.667 94.216C67.755 94.216 66.951 94.018 66.255 93.622C65.559 93.226 65.007 92.674 64.599 91.966C64.203 91.258 64.005 90.448 64.005 89.536C64.005 88.624 64.203 87.814 64.599 87.106C65.007 86.398 65.559 85.846 66.255 85.45C66.951 85.054 67.755 84.856 68.667 84.856C69.807 84.856 70.767 85.156 71.547 85.756C72.327 86.344 72.825 87.16 73.041 88.204H70.611C70.491 87.772 70.251 87.436 69.891 87.196C69.543 86.944 69.129 86.818 68.649 86.818C68.013 86.818 67.473 87.058 67.029 87.538C66.585 88.018 66.363 88.684 66.363 89.536C66.363 90.388 66.585 91.054 67.029 91.534C67.473 92.014 68.013 92.254 68.649 92.254C69.129 92.254 69.543 92.134 69.891 91.894C70.251 91.654 70.491 91.312 70.611 90.868H73.041C72.825 91.876 72.327 92.686 71.547 93.298C70.767 93.91 69.807 94.216 68.667 94.216ZM75.086 94V81.04H77.39V88.69L80.558 85.072H83.294L79.64 89.14L83.888 94H81.008L77.39 89.518V94H75.086ZM88.9162 94.216C88.0162 94.216 87.2182 94.024 86.5222 93.64C85.8262 93.256 85.2802 92.716 84.8842 92.02C84.4882 91.324 84.2902 90.52 84.2902 89.608C84.2902 88.684 84.4822 87.862 84.8662 87.142C85.2622 86.422 85.8022 85.864 86.4862 85.468C87.1822 85.06 87.9982 84.856 88.9342 84.856C89.8102 84.856 90.5842 85.048 91.2562 85.432C91.9282 85.816 92.4502 86.344 92.8222 87.016C93.2062 87.676 93.3982 88.414 93.3982 89.23C93.3982 89.362 93.3922 89.5 93.3802 89.644C93.3802 89.788 93.3742 89.938 93.3622 90.094H86.5762C86.6242 90.79 86.8642 91.336 87.2962 91.732C87.7402 92.128 88.2742 92.326 88.8982 92.326C89.3662 92.326 89.7562 92.224 90.0682 92.02C90.3922 91.804 90.6322 91.528 90.7882 91.192H93.1282C92.9602 91.756 92.6782 92.272 92.2822 92.74C91.8982 93.196 91.4182 93.556 90.8422 93.82C90.2782 94.084 89.6362 94.216 88.9162 94.216ZM88.9342 86.728C88.3702 86.728 87.8722 86.89 87.4402 87.214C87.0082 87.526 86.7322 88.006 86.6122 88.654H91.0582C91.0222 88.066 90.8062 87.598 90.4102 87.25C90.0142 86.902 89.5222 86.728 88.9342 86.728ZM95.336 94V85.072H97.388L97.604 86.746C97.928 86.17 98.366 85.714 98.918 85.378C99.482 85.03 100.142 84.856 100.898 84.856V87.286H100.25C99.746 87.286 99.296 87.364 98.9 87.52C98.504 87.676 98.192 87.946 97.964 88.33C97.748 88.714 97.64 89.248 97.64 89.932V94H95.336Z" fill="white" />
</svg>
