<svg width="89" height="88" viewBox="0 0 89 88" fill="none" xmlns="http://www.w3.org/2000/svg">
  <rect width="88.604" height="87.5332" rx="24" fill="url(#paint0_linear_36_11107)" />
  <path d="M29.4645 41.1221L16.2779 43.4354C16.267 43.4372 16.2558 43.4365 16.2452 43.4332C16.2346 43.43 16.2249 43.4243 16.2169 43.4166C16.2089 43.409 16.2028 43.3996 16.199 43.3891C16.1953 43.3787 16.194 43.3675 16.1953 43.3565C16.2095 43.238 16.2688 43.1337 16.3731 43.0436C19.8619 40.0618 23.2731 37.0048 26.7055 33.9604C32.7685 28.5843 38.8297 23.2137 44.8893 17.8484C44.9181 17.823 44.954 17.807 44.9922 17.8026C45.0305 17.7981 45.0692 17.8053 45.1034 17.8234L73.7836 33.1318C73.8024 33.1418 73.8176 33.1574 73.8271 33.1765C73.8366 33.1956 73.8399 33.2171 73.8366 33.2382C73.8333 33.2592 73.8235 33.2787 73.8086 33.294C73.7938 33.3092 73.7745 33.3195 73.7535 33.3233L60.5995 35.6416C60.5567 35.649 60.5179 35.6714 60.4899 35.7049C60.462 35.7383 60.4467 35.7807 60.4468 35.8244L60.443 43.4129C60.443 43.4295 60.4464 43.4459 60.4528 43.4612C60.4593 43.4765 60.4688 43.4903 60.4807 43.5018C60.4926 43.5134 60.5067 43.5225 60.5221 43.5285C60.5376 43.5345 60.5541 43.5373 60.5707 43.5368C66.647 43.3682 72.5802 42.4002 78.3702 40.6326C79.284 40.3539 80.7516 39.8769 82.7728 39.2018C82.7937 39.1943 82.8058 39.2014 82.8091 39.2231C82.8108 39.2364 82.8125 39.2493 82.8141 39.2619C82.8158 39.2719 82.8129 39.2802 82.8054 39.2869C82.111 39.8819 81.2769 40.484 80.303 41.0933C75.3826 44.1727 70.1366 46.32 64.5653 47.5351C63.3197 47.8067 61.8801 48.0158 60.5332 48.2373C60.5102 48.2412 60.4894 48.2531 60.4745 48.2707C60.4596 48.2884 60.4515 48.3107 60.4518 48.3337L60.4718 51.9352C60.4718 51.9484 60.4745 51.9615 60.4796 51.9736C60.4847 51.9858 60.4922 51.9968 60.5017 52.006C60.5111 52.0152 60.5223 52.0225 60.5346 52.0273C60.5469 52.0321 60.56 52.0344 60.5732 52.0341C65.6956 51.9039 70.8393 51.2154 75.7652 49.8747C78.0777 49.2455 80.3318 48.5386 82.5275 47.7541C82.863 47.6348 82.9022 47.6978 82.6451 47.9432C82.5775 48.0074 82.4423 48.1147 82.2396 48.2649C81.3399 48.9317 80.4098 49.5526 79.4493 50.1276C73.6972 53.5751 67.1966 55.8859 60.5357 56.7496C60.5129 56.7527 60.4919 56.764 60.4767 56.7815C60.4615 56.799 60.4531 56.8215 60.4531 56.8448V61.5341C60.4531 61.5722 60.4397 61.6092 60.4152 61.6385C60.3907 61.6678 60.3567 61.6875 60.3191 61.6943L29.6748 67.0883C29.6599 67.0909 29.6446 67.0902 29.63 67.0862C29.6153 67.0822 29.6018 67.0751 29.5902 67.0653C29.5786 67.0555 29.5694 67.0433 29.563 67.0296C29.5566 67.0158 29.5534 67.0008 29.5534 66.9857L29.5346 41.1809C29.5346 41.1333 29.5112 41.1137 29.4645 41.1221ZM36.3895 42.9297C36.4179 42.9138 36.4538 42.9042 36.4972 42.9009C40.2914 42.6205 44.0105 42.7344 47.786 43.1725C50.9848 43.5447 54.1869 43.8652 57.3924 44.1339C57.4175 44.136 57.4427 44.1328 57.4665 44.1247C57.4903 44.1165 57.5121 44.1034 57.5306 44.0864C57.549 44.0693 57.5638 44.0486 57.5738 44.0255C57.5839 44.0024 57.589 43.9775 57.5889 43.9524V33.7439C57.5889 33.707 57.6019 33.6713 57.6255 33.6431C57.6491 33.615 57.6818 33.5961 57.7179 33.5899L63.9406 32.5058C64.1217 32.4741 64.1305 32.4149 63.9669 32.3281L45.5803 22.5177C45.5285 22.49 45.4695 22.479 45.4111 22.4859C45.3527 22.4928 45.2977 22.5175 45.2536 22.5565L26.7694 38.9189C26.6559 39.0198 26.6738 39.057 26.8232 39.0303L33.0034 37.9462C33.1361 37.9228 33.2024 37.9783 33.2024 38.1127L33.2099 63.7936C33.2099 63.809 33.2132 63.8243 33.2197 63.8383C33.2262 63.8523 33.2357 63.8647 33.2475 63.8746C33.2593 63.8845 33.2732 63.8917 33.2881 63.8957C33.3031 63.8996 33.3187 63.9002 33.3339 63.8975L57.4337 59.6776C57.4726 59.6708 57.5079 59.6506 57.5333 59.6203C57.5587 59.5901 57.5726 59.5519 57.5726 59.5124L57.5739 57.8162C57.5739 57.8059 57.5718 57.7957 57.5677 57.7862C57.5637 57.7768 57.5577 57.7683 57.5502 57.7612C57.5426 57.7542 57.5338 57.7488 57.5241 57.7453C57.5144 57.7418 57.5041 57.7404 57.4938 57.7411C55.2647 57.8671 53.0332 57.8337 50.7991 57.6409C46.031 57.2278 41.244 56.7133 36.4546 56.6195C36.4133 56.6188 36.374 56.6018 36.3451 56.5723C36.3163 56.5428 36.3003 56.503 36.3006 56.4617L36.3382 51.656C36.339 51.5 36.4175 51.4157 36.5735 51.4032C39.9534 51.1315 43.3972 51.2329 46.7295 51.5684C49.9641 51.8951 53.8372 52.3458 57.3986 52.6412C57.4228 52.6433 57.4471 52.6403 57.47 52.6325C57.493 52.6247 57.5141 52.6123 57.5319 52.5959C57.5498 52.5796 57.5641 52.5597 57.5739 52.5375C57.5837 52.5154 57.5888 52.4914 57.5889 52.4672V49.3051C57.5889 49.2966 57.5872 49.2881 57.5838 49.2803C57.5804 49.2724 57.5755 49.2654 57.5693 49.2595C57.5631 49.2536 57.5557 49.2491 57.5477 49.2462C57.5396 49.2433 57.5311 49.242 57.5226 49.2425C54.2278 49.404 50.8905 49.2776 47.6057 48.9271C43.7114 48.5115 40.1475 48.2499 36.5034 48.1359C36.3666 48.1309 36.299 48.0604 36.3006 47.9244L36.3457 43.0048C36.3457 42.9896 36.3498 42.9747 36.3575 42.9615C36.3652 42.9483 36.3762 42.9373 36.3895 42.9297Z" fill="white" />
  <path d="M7.70705 52.7316C13.4629 49.169 19.7369 46.46 26.2814 44.7401C26.334 44.7267 26.3761 44.7254 26.4078 44.7363C26.43 44.7435 26.4495 44.7572 26.4634 44.7754C26.4773 44.7935 26.485 44.8153 26.4854 44.8377L26.5117 48.8773C26.5121 48.9091 26.5008 48.94 26.4801 48.9642C26.4594 48.9883 26.4306 49.0042 26.3991 49.0087C19.9598 49.9488 13.6118 51.431 7.37407 53.3137C7.24889 53.3521 7.21217 53.3108 7.26391 53.1898C7.33401 53.0237 7.48172 52.871 7.70705 52.7316Z" fill="white" />
  <path d="M7.4916 61.439C13.1861 57.7137 19.7168 54.9572 26.2863 53.2359C26.3098 53.2296 26.3344 53.2288 26.3583 53.2335C26.3821 53.2382 26.4046 53.2483 26.424 53.263C26.4433 53.2778 26.459 53.2968 26.4699 53.3186C26.4807 53.3403 26.4864 53.3643 26.4866 53.3886L26.5179 57.3293C26.5183 57.3757 26.5018 57.4207 26.4714 57.4559C26.441 57.4911 26.3988 57.5142 26.3526 57.5209C22.22 58.1067 18.119 58.925 14.0498 59.9757C11.7857 60.5607 9.51744 61.1828 7.24499 61.8421C7.23436 61.8449 7.22314 61.8445 7.21271 61.841C7.20229 61.8375 7.19312 61.8311 7.18633 61.8224C7.17954 61.8138 7.17543 61.8033 7.17451 61.7924C7.17359 61.7814 7.1759 61.7704 7.18115 61.7608C7.25042 61.6372 7.3539 61.53 7.4916 61.439Z" fill="white" />
  <defs>
    <linearGradient id="paint0_linear_36_11107" x1="44.302" y1="0" x2="44.302" y2="87.5332" gradientUnits="userSpaceOnUse">
      <stop stop-color="#01C0CC" />
      <stop offset="1" stop-color="#280783" />
    </linearGradient>
  </defs>
</svg>
