<svg width="356" height="325" viewBox="0 0 356 325" fill="none" xmlns="http://www.w3.org/2000/svg">
  <rect x="0.63916" y="0.478271" width="355" height="323.653" rx="28" fill="#1F2336" />
  <path d="M149.222 91.4037C150.335 81.1069 150.373 70.1866 149.335 58.6431C148.734 51.8665 151.877 48.4783 158.766 48.4783C162.948 48.4929 167.287 48.5296 171.785 48.5883C172.552 48.6029 172.935 48.9843 172.935 49.7324L172.913 61.2392C172.913 62.0582 173.245 62.844 173.836 63.4252C174.428 64.0063 175.231 64.3356 176.071 64.3414C179.516 64.3708 183.261 64.4221 187.307 64.4955C188.375 64.5248 189.135 64.7449 189.586 65.1556C190.022 65.5517 190.248 66.0283 190.263 66.5857C190.275 66.943 190.178 67.2945 189.985 67.5932C189.791 67.892 189.51 68.1238 189.18 68.2578C179.253 72.3648 175.176 79.3173 176.951 89.1154C177.538 92.2837 179.704 96.09 182.592 97.6961C184.698 98.8842 184.532 99.4783 182.095 99.4783H156.668C155.618 99.4778 154.58 99.2621 153.621 98.8451C152.662 98.4281 151.803 97.8191 151.101 97.0577C150.399 96.2963 149.869 95.3995 149.545 94.4254C149.222 93.4514 149.112 92.4219 149.222 91.4037Z" fill="#AE45BE" />
  <path d="M188.136 59.7706L176.837 59.8116C176.738 59.8116 176.64 59.794 176.549 59.7598C176.457 59.7255 176.375 59.6754 176.306 59.6123C176.237 59.5491 176.183 59.4744 176.147 59.3924C176.111 59.3104 176.094 59.2228 176.098 59.135L176.213 49.1293C176.214 48.999 176.259 48.8721 176.342 48.7645C176.425 48.6569 176.541 48.5736 176.678 48.5252C176.814 48.4768 176.963 48.4655 177.107 48.4928C177.251 48.52 177.382 48.5846 177.484 48.6783L188.644 58.6634C188.742 58.755 188.808 58.8696 188.834 58.9935C188.861 59.1175 188.846 59.2456 188.793 59.3625C188.739 59.4793 188.649 59.58 188.532 59.6524C188.416 59.7248 188.278 59.7658 188.136 59.7706Z" fill="#AE45BE" />
  <path d="M210.097 85.3116C210.097 89.0688 208.53 92.6721 205.74 95.3289C202.951 97.9857 199.167 99.4782 195.222 99.4782C191.277 99.4782 187.494 97.9857 184.704 95.3289C181.914 92.6721 180.347 89.0688 180.347 85.3116C180.347 81.5543 181.914 77.951 184.704 75.2942C187.494 72.6375 191.277 71.1449 195.222 71.1449C199.167 71.1449 202.951 72.6375 205.74 75.2942C208.53 77.951 210.097 81.5543 210.097 85.3116ZM197.271 77.4589C197.275 77.0833 197.121 76.7216 196.845 76.4537C196.568 76.1857 196.191 76.0334 195.797 76.0301L195.11 76.0244C194.716 76.0211 194.336 76.1673 194.055 76.4307C193.773 76.694 193.613 77.0529 193.61 77.4286L193.539 85.1438C193.536 85.5195 193.689 85.8811 193.966 86.1491C194.242 86.4171 194.619 86.5694 195.014 86.5726L195.7 86.5784C196.095 86.5816 196.474 86.4354 196.756 86.1721C197.037 85.9088 197.197 85.5498 197.201 85.1741L197.271 77.4589ZM197.828 92.4641C197.854 91.9155 197.605 91.3776 197.135 90.9686C196.665 90.5596 196.012 90.3129 195.321 90.283C194.63 90.2531 193.956 90.4423 193.449 90.8091C192.942 91.1759 192.642 91.6902 192.616 92.2387C192.59 92.7873 192.839 93.3252 193.31 93.7342C193.78 94.1432 194.432 94.3898 195.124 94.4197C195.815 94.4496 196.488 94.2603 196.995 93.8936C197.502 93.5268 197.802 93.0126 197.828 92.4641Z" fill="#AE45BE" />
  <path d="M26.3892 181.478V155.578H31.0142L39.7832 172.82L48.5152 155.578H53.1402V181.478H49.2182V162.349L41.3002 177.778H38.2662L30.3112 162.386V181.478H26.3892ZM60.4749 159.648C59.7349 159.648 59.1182 159.426 58.6249 158.982C58.1562 158.514 57.9219 157.934 57.9219 157.243C57.9219 156.553 58.1562 155.985 58.6249 155.541C59.1182 155.073 59.7349 154.838 60.4749 154.838C61.2149 154.838 61.8192 155.073 62.2879 155.541C62.7812 155.985 63.0279 156.553 63.0279 157.243C63.0279 157.934 62.7812 158.514 62.2879 158.982C61.8192 159.426 61.2149 159.648 60.4749 159.648ZM58.5139 181.478V163.126H62.4359V181.478H58.5139ZM74.9393 181.922C72.6206 181.922 70.7089 181.355 69.2043 180.22C67.6996 179.086 66.8363 177.581 66.6143 175.706H70.5733C70.7706 176.545 71.2393 177.273 71.9793 177.889C72.7193 178.481 73.6936 178.777 74.9023 178.777C76.0863 178.777 76.9496 178.531 77.4923 178.037C78.0349 177.544 78.3063 176.977 78.3063 176.335C78.3063 175.398 77.9239 174.769 77.1593 174.448C76.4193 174.103 75.3833 173.795 74.0513 173.523C73.0153 173.301 71.9793 173.005 70.9433 172.635C69.9319 172.265 69.0809 171.747 68.3903 171.081C67.7243 170.391 67.3913 169.466 67.3913 168.306C67.3913 166.703 68.0079 165.371 69.2413 164.31C70.4746 163.225 72.2013 162.682 74.4213 162.682C76.4686 162.682 78.1213 163.176 79.3793 164.162C80.6619 165.149 81.4143 166.543 81.6363 168.343H77.8623C77.7389 167.554 77.3689 166.937 76.7523 166.493C76.1603 166.049 75.3586 165.827 74.3473 165.827C73.3606 165.827 72.5959 166.037 72.0533 166.456C71.5106 166.851 71.2393 167.369 71.2393 168.01C71.2393 168.652 71.6093 169.157 72.3493 169.527C73.1139 169.897 74.1129 170.23 75.3463 170.526C76.5796 170.798 77.7143 171.118 78.7503 171.488C79.8109 171.834 80.6619 172.352 81.3033 173.042C81.9446 173.733 82.2653 174.744 82.2653 176.076C82.2899 177.754 81.6363 179.147 80.3043 180.257C78.9969 181.367 77.2086 181.922 74.9393 181.922ZM95.2419 181.922C93.4412 181.922 91.8255 181.515 90.3949 180.701C88.9889 179.887 87.8789 178.765 87.0649 177.334C86.2755 175.879 85.8809 174.202 85.8809 172.302C85.8809 170.403 86.2755 168.738 87.0649 167.307C87.8789 165.852 88.9889 164.717 90.3949 163.903C91.8255 163.089 93.4412 162.682 95.2419 162.682C97.5112 162.682 99.4105 163.274 100.94 164.458C102.494 165.642 103.493 167.246 103.937 169.268H99.8299C99.5832 168.257 99.0405 167.468 98.2019 166.9C97.3632 166.333 96.3765 166.049 95.2419 166.049C94.2799 166.049 93.3919 166.296 92.5779 166.789C91.7639 167.258 91.1102 167.961 90.6169 168.898C90.1235 169.811 89.8769 170.946 89.8769 172.302C89.8769 173.659 90.1235 174.806 90.6169 175.743C91.1102 176.656 91.7639 177.359 92.5779 177.852C93.3919 178.346 94.2799 178.592 95.2419 178.592C96.3765 178.592 97.3632 178.309 98.2019 177.741C99.0405 177.174 99.5832 176.372 99.8299 175.336H103.937C103.518 177.31 102.531 178.901 100.977 180.109C99.4229 181.318 97.5112 181.922 95.2419 181.922ZM116.774 181.922C115.023 181.922 113.444 181.528 112.038 180.738C110.657 179.924 109.559 178.802 108.745 177.371C107.931 175.916 107.524 174.226 107.524 172.302C107.524 170.378 107.931 168.701 108.745 167.27C109.584 165.815 110.706 164.693 112.112 163.903C113.518 163.089 115.085 162.682 116.811 162.682C118.563 162.682 120.129 163.089 121.51 163.903C122.916 164.693 124.026 165.815 124.84 167.27C125.679 168.701 126.098 170.378 126.098 172.302C126.098 174.226 125.679 175.916 124.84 177.371C124.026 178.802 122.916 179.924 121.51 180.738C120.104 181.528 118.526 181.922 116.774 181.922ZM116.774 178.555C117.712 178.555 118.575 178.321 119.364 177.852C120.178 177.384 120.832 176.693 121.325 175.78C121.819 174.843 122.065 173.684 122.065 172.302C122.065 170.921 121.819 169.774 121.325 168.861C120.857 167.924 120.215 167.221 119.401 166.752C118.612 166.284 117.749 166.049 116.811 166.049C115.874 166.049 114.998 166.284 114.184 166.752C113.395 167.221 112.754 167.924 112.26 168.861C111.767 169.774 111.52 170.921 111.52 172.302C111.52 173.684 111.767 174.843 112.26 175.78C112.754 176.693 113.395 177.384 114.184 177.852C114.974 178.321 115.837 178.555 116.774 178.555ZM130.34 181.478V163.126H133.818L134.114 166.345C134.681 165.211 135.508 164.323 136.593 163.681C137.703 163.015 138.973 162.682 140.404 162.682C142.624 162.682 144.363 163.373 145.621 164.754C146.904 166.136 147.545 168.195 147.545 170.933V181.478H143.66V171.34C143.66 167.788 142.205 166.012 139.294 166.012C137.839 166.012 136.63 166.53 135.668 167.566C134.731 168.602 134.262 170.082 134.262 172.006V181.478H130.34ZM153.089 181.478V166.419H150.462V163.126H153.089V160.462C153.089 158.464 153.582 157.034 154.569 156.17C155.58 155.282 156.999 154.838 158.824 154.838H160.748V158.168H159.416C158.553 158.168 157.936 158.353 157.566 158.723C157.196 159.069 157.011 159.661 157.011 160.499V163.126H168.629V181.478H164.707V166.419H157.011V181.478H153.089ZM166.705 160.055C165.965 160.055 165.348 159.833 164.855 159.389C164.386 158.921 164.152 158.329 164.152 157.613C164.152 156.923 164.386 156.355 164.855 155.911C165.348 155.467 165.965 155.245 166.705 155.245C167.445 155.245 168.049 155.467 168.518 155.911C169.011 156.355 169.258 156.923 169.258 157.613C169.258 158.329 169.011 158.921 168.518 159.389C168.049 159.833 167.445 160.055 166.705 160.055ZM181.355 175.854C180.393 175.854 179.505 175.743 178.691 175.521L177.1 177.075C177.371 177.248 177.704 177.396 178.099 177.519C178.493 177.643 179.048 177.754 179.764 177.852C180.479 177.951 181.453 178.05 182.687 178.148C185.129 178.37 186.892 178.962 187.978 179.924C189.063 180.862 189.606 182.12 189.606 183.698C189.606 184.784 189.31 185.807 188.718 186.769C188.15 187.756 187.25 188.545 186.017 189.137C184.808 189.754 183.254 190.062 181.355 190.062C178.789 190.062 176.705 189.569 175.102 188.582C173.523 187.62 172.734 186.153 172.734 184.179C172.734 183.415 172.931 182.65 173.326 181.885C173.745 181.145 174.399 180.442 175.287 179.776C174.769 179.554 174.312 179.32 173.918 179.073C173.548 178.802 173.215 178.531 172.919 178.259V177.371L176.101 174.115C174.67 172.882 173.955 171.266 173.955 169.268C173.955 168.06 174.238 166.962 174.806 165.975C175.398 164.964 176.249 164.162 177.359 163.57C178.469 162.978 179.801 162.682 181.355 162.682C182.391 162.682 183.353 162.83 184.241 163.126H191.086V165.716L187.83 165.901C188.422 166.913 188.718 168.035 188.718 169.268C188.718 170.502 188.422 171.612 187.83 172.598C187.262 173.585 186.424 174.374 185.314 174.966C184.228 175.558 182.909 175.854 181.355 175.854ZM181.355 172.783C182.489 172.783 183.402 172.487 184.093 171.895C184.808 171.279 185.166 170.415 185.166 169.305C185.166 168.171 184.808 167.307 184.093 166.715C183.402 166.123 182.489 165.827 181.355 165.827C180.195 165.827 179.258 166.123 178.543 166.715C177.852 167.307 177.507 168.171 177.507 169.305C177.507 170.415 177.852 171.279 178.543 171.895C179.258 172.487 180.195 172.783 181.355 172.783ZM176.434 183.809C176.434 184.87 176.902 185.659 177.84 186.177C178.777 186.72 179.949 186.991 181.355 186.991C182.711 186.991 183.809 186.695 184.648 186.103C185.486 185.536 185.906 184.771 185.906 183.809C185.906 183.094 185.622 182.477 185.055 181.959C184.487 181.466 183.414 181.158 181.836 181.034C180.652 180.96 179.603 180.849 178.691 180.701C177.827 181.17 177.235 181.676 176.915 182.218C176.594 182.761 176.434 183.291 176.434 183.809ZM201.355 181.922C199.135 181.922 197.384 181.232 196.101 179.85C194.843 178.469 194.214 176.409 194.214 173.671V163.126H198.136V173.264C198.136 176.816 199.591 178.592 202.502 178.592C203.957 178.592 205.154 178.074 206.091 177.038C207.028 176.002 207.497 174.522 207.497 172.598V163.126H211.419V181.478H207.941L207.645 178.259C207.078 179.394 206.239 180.294 205.129 180.96C204.044 181.602 202.786 181.922 201.355 181.922ZM216.408 181.478V163.126H219.923L220.256 166.604C220.898 165.396 221.786 164.446 222.92 163.755C224.08 163.04 225.473 162.682 227.101 162.682V166.789H226.028C224.943 166.789 223.969 166.974 223.105 167.344C222.267 167.69 221.588 168.294 221.07 169.157C220.577 169.996 220.33 171.168 220.33 172.672V181.478H216.408ZM236.68 181.922C235.126 181.922 233.843 181.663 232.832 181.145C231.821 180.627 231.068 179.949 230.575 179.11C230.082 178.247 229.835 177.31 229.835 176.298C229.835 174.522 230.526 173.116 231.907 172.08C233.288 171.044 235.262 170.526 237.827 170.526H242.637V170.193C242.637 168.763 242.242 167.69 241.453 166.974C240.688 166.259 239.689 165.901 238.456 165.901C237.371 165.901 236.421 166.173 235.607 166.715C234.818 167.233 234.337 168.01 234.164 169.046H230.242C230.365 167.714 230.809 166.58 231.574 165.642C232.363 164.68 233.35 163.953 234.534 163.459C235.743 162.941 237.062 162.682 238.493 162.682C241.058 162.682 243.044 163.361 244.45 164.717C245.856 166.049 246.559 167.875 246.559 170.193V181.478H243.155L242.822 178.333C242.304 179.345 241.552 180.196 240.565 180.886C239.578 181.577 238.283 181.922 236.68 181.922ZM237.457 178.74C238.518 178.74 239.406 178.494 240.121 178C240.861 177.482 241.428 176.804 241.823 175.965C242.242 175.127 242.501 174.202 242.6 173.19H238.234C236.68 173.19 235.57 173.462 234.904 174.004C234.263 174.547 233.942 175.225 233.942 176.039C233.942 176.878 234.25 177.544 234.867 178.037C235.508 178.506 236.372 178.74 237.457 178.74ZM258.467 181.478C256.666 181.478 255.235 181.047 254.175 180.183C253.114 179.295 252.584 177.729 252.584 175.484V166.419H249.439V163.126H252.584L253.065 158.464H256.506V163.126H261.686V166.419H256.506V175.484C256.506 176.496 256.715 177.199 257.135 177.593C257.579 177.963 258.331 178.148 259.392 178.148H261.501V181.478H258.467ZM267.949 159.648C267.209 159.648 266.593 159.426 266.099 158.982C265.631 158.514 265.396 157.934 265.396 157.243C265.396 156.553 265.631 155.985 266.099 155.541C266.593 155.073 267.209 154.838 267.949 154.838C268.689 154.838 269.294 155.073 269.762 155.541C270.256 155.985 270.502 156.553 270.502 157.243C270.502 157.934 270.256 158.514 269.762 158.982C269.294 159.426 268.689 159.648 267.949 159.648ZM265.988 181.478V163.126H269.91V181.478H265.988ZM283.672 181.922C281.921 181.922 280.342 181.528 278.936 180.738C277.555 179.924 276.457 178.802 275.643 177.371C274.829 175.916 274.422 174.226 274.422 172.302C274.422 170.378 274.829 168.701 275.643 167.27C276.482 165.815 277.604 164.693 279.01 163.903C280.416 163.089 281.982 162.682 283.709 162.682C285.46 162.682 287.027 163.089 288.408 163.903C289.814 164.693 290.924 165.815 291.738 167.27C292.577 168.701 292.996 170.378 292.996 172.302C292.996 174.226 292.577 175.916 291.738 177.371C290.924 178.802 289.814 179.924 288.408 180.738C287.002 181.528 285.423 181.922 283.672 181.922ZM283.672 178.555C284.609 178.555 285.473 178.321 286.262 177.852C287.076 177.384 287.73 176.693 288.223 175.78C288.716 174.843 288.963 173.684 288.963 172.302C288.963 170.921 288.716 169.774 288.223 168.861C287.754 167.924 287.113 167.221 286.299 166.752C285.51 166.284 284.646 166.049 283.709 166.049C282.772 166.049 281.896 166.284 281.082 166.752C280.293 167.221 279.651 167.924 279.158 168.861C278.665 169.774 278.418 170.921 278.418 172.302C278.418 173.684 278.665 174.843 279.158 175.78C279.651 176.693 280.293 177.384 281.082 177.852C281.871 178.321 282.735 178.555 283.672 178.555ZM297.237 181.478V163.126H300.715L301.011 166.345C301.579 165.211 302.405 164.323 303.49 163.681C304.6 163.015 305.871 162.682 307.301 162.682C309.521 162.682 311.26 163.373 312.518 164.754C313.801 166.136 314.442 168.195 314.442 170.933V181.478H310.557V171.34C310.557 167.788 309.102 166.012 306.191 166.012C304.736 166.012 303.527 166.53 302.565 167.566C301.628 168.602 301.159 170.082 301.159 172.006V181.478H297.237ZM326.388 181.922C324.069 181.922 322.157 181.355 320.653 180.22C319.148 179.086 318.285 177.581 318.063 175.706H322.022C322.219 176.545 322.688 177.273 323.428 177.889C324.168 178.481 325.142 178.777 326.351 178.777C327.535 178.777 328.398 178.531 328.941 178.037C329.483 177.544 329.755 176.977 329.755 176.335C329.755 175.398 329.372 174.769 328.608 174.448C327.868 174.103 326.832 173.795 325.5 173.523C324.464 173.301 323.428 173.005 322.392 172.635C321.38 172.265 320.529 171.747 319.839 171.081C319.173 170.391 318.84 169.466 318.84 168.306C318.84 166.703 319.456 165.371 320.69 164.31C321.923 163.225 323.65 162.682 325.87 162.682C327.917 162.682 329.57 163.176 330.828 164.162C332.11 165.149 332.863 166.543 333.085 168.343H329.311C329.187 167.554 328.817 166.937 328.201 166.493C327.609 166.049 326.807 165.827 325.796 165.827C324.809 165.827 324.044 166.037 323.502 166.456C322.959 166.851 322.688 167.369 322.688 168.01C322.688 168.652 323.058 169.157 323.798 169.527C324.562 169.897 325.561 170.23 326.795 170.526C328.028 170.798 329.163 171.118 330.199 171.488C331.259 171.834 332.11 172.352 332.752 173.042C333.393 173.733 333.714 174.744 333.714 176.076C333.738 177.754 333.085 179.147 331.753 180.257C330.445 181.367 328.657 181.922 326.388 181.922Z" fill="white" />
  <path d="M179.636 262.922C177.293 262.922 175.27 262.367 173.568 261.257C171.891 260.123 170.596 258.556 169.683 256.558C168.795 254.536 168.351 252.192 168.351 249.528C168.351 246.864 168.795 244.533 169.683 242.535C170.596 240.513 171.891 238.946 173.568 237.836C175.27 236.702 177.293 236.134 179.636 236.134C181.98 236.134 183.99 236.702 185.667 237.836C187.345 238.946 188.627 240.513 189.515 242.535C190.428 244.533 190.884 246.864 190.884 249.528C190.884 252.192 190.428 254.536 189.515 256.558C188.627 258.556 187.345 260.123 185.667 261.257C183.99 262.367 181.98 262.922 179.636 262.922ZM179.636 259.407C181.042 259.407 182.288 259.013 183.373 258.223C184.483 257.434 185.347 256.299 185.963 254.819C186.58 253.339 186.888 251.576 186.888 249.528C186.888 247.481 186.58 245.717 185.963 244.237C185.347 242.757 184.483 241.623 183.373 240.833C182.288 240.044 181.042 239.649 179.636 239.649C178.206 239.649 176.948 240.044 175.862 240.833C174.777 241.623 173.926 242.757 173.309 244.237C172.693 245.717 172.384 247.481 172.384 249.528C172.384 251.576 172.693 253.339 173.309 254.819C173.926 256.299 174.777 257.434 175.862 258.223C176.948 259.013 178.206 259.407 179.636 259.407Z" fill="white" />
</svg>
