<svg width="33" height="37" viewBox="0 0 33 37" fill="none" xmlns="http://www.w3.org/2000/svg">
  <path d="M12.875 6.13935C12.875 5.16689 13.2569 4.23426 13.9367 3.54663C14.6166 2.859 15.5386 2.47269 16.5 2.47269C17.4614 2.47269 18.3834 2.859 19.0633 3.54663C19.7431 4.23426 20.125 5.16689 20.125 6.13935C22.2065 7.1349 23.9809 8.68462 25.2581 10.6224C26.5353 12.5602 27.267 14.813 27.375 17.1394V22.6394C27.5114 23.7792 27.9105 24.8706 28.5401 25.8259C29.1697 26.7812 30.0123 27.5736 31 28.1394H2C2.9877 27.5736 3.83028 26.7812 4.4599 25.8259C5.08952 24.8706 5.4886 23.7792 5.625 22.6394V17.1394C5.73295 14.813 6.46473 12.5602 7.74191 10.6224C9.01908 8.68462 10.7935 7.1349 12.875 6.13935ZM11.0625 28.1394V29.9727C11.0625 31.4314 11.6354 32.8303 12.6551 33.8618C13.6748 34.8932 15.0579 35.4727 16.5 35.4727C17.9421 35.4727 19.3252 34.8932 20.3449 33.8618C21.3646 32.8303 21.9375 31.4314 21.9375 29.9727V28.1394" fill="black" />
  <path d="M11.0625 28.1394V29.9727C11.0625 31.4314 11.6354 32.8303 12.6551 33.8618C13.6748 34.8932 15.0579 35.4727 16.5 35.4727C17.9421 35.4727 19.3252 34.8932 20.3449 33.8618C21.3646 32.8303 21.9375 31.4314 21.9375 29.9727V28.1394M12.875 6.13935C12.875 5.16689 13.2569 4.23426 13.9367 3.54663C14.6166 2.859 15.5386 2.47269 16.5 2.47269C17.4614 2.47269 18.3834 2.859 19.0633 3.54663C19.7431 4.23426 20.125 5.16689 20.125 6.13935C22.2065 7.1349 23.9809 8.68462 25.2581 10.6224C26.5353 12.5602 27.267 14.813 27.375 17.1394V22.6394C27.5114 23.7791 27.9105 24.8706 28.5401 25.8259C29.1697 26.7812 30.0123 27.5736 31 28.1394H2C2.9877 27.5736 3.83028 26.7812 4.4599 25.8259C5.08952 24.8706 5.4886 23.7791 5.625 22.6394V17.1394C5.73295 14.813 6.46473 12.5602 7.74191 10.6224C9.01908 8.68462 10.7935 7.1349 12.875 6.13935Z" stroke="white" stroke-width="3" stroke-linecap="round" stroke-linejoin="round" />
</svg>
