<svg width="356" height="325" viewBox="0 0 356 325" fill="none" xmlns="http://www.w3.org/2000/svg">
  <rect x="0.63916" y="0.478271" width="355" height="323.653" rx="28" fill="#1F2336" />
  <path d="M186.485 57.5841C176.821 47.3102 165.611 51.7204 160.376 65.0247C160.149 65.6106 159.733 66.0698 159.219 66.3046C158.704 66.5393 158.131 66.5309 157.621 66.2811C157.452 66.199 157.282 66.1087 157.113 66.0102C156.408 65.6588 155.85 64.997 155.561 64.1674C155.271 63.3379 155.273 62.407 155.566 61.5754C161.648 44.6001 177.965 40.313 190.045 52.2623C192.249 54.4468 192.955 53.9214 192.164 50.6856C191.938 49.7165 192.009 48.772 192.376 47.8522C192.786 46.8667 193.436 46.185 194.326 45.8073C195.597 45.2652 196.621 45.5445 197.398 46.645C198.062 47.5648 198.373 48.8132 198.331 50.39C198.246 53.2808 198.331 56.2783 198.585 59.3826C198.783 61.6657 198.437 63.4725 197.547 64.8029C196.812 65.9034 195.399 66.4618 193.308 66.4783C189.819 66.4783 186.428 66.4372 183.136 66.3551C182.486 66.3414 181.857 66.085 181.342 65.6235C180.827 65.1621 180.453 64.5203 180.275 63.7929C179.965 62.5281 180.275 61.3701 181.208 60.3189C181.606 59.873 182.131 59.6028 182.691 59.5551L185.955 59.3088C187.297 59.2102 187.474 58.6353 186.485 57.5841Z" fill="#AE45BE" />
  <path d="M164.777 81.5928C166.93 83.8046 169.386 85.3869 172.146 86.3397C179.624 88.9174 187.578 83.3026 190.331 75.2634C191.125 72.9665 192.549 72.0903 194.6 72.6348C195.569 72.89 196.009 74.0725 195.923 76.1823C195.85 77.8497 195.446 79.398 194.709 80.8272C189.276 91.2909 181.054 95.2637 170.044 92.7456C166.72 91.98 163.758 89.9892 161.157 86.7735C159.64 84.885 158.824 85.2338 158.708 87.82L158.578 90.8571C158.535 91.8949 158.101 92.6094 157.278 93.0008C155.89 93.6303 154.662 93.5622 153.593 92.7965C153.001 92.3542 152.697 91.7247 152.683 90.908L152.639 74.8551C152.636 74.5714 152.681 74.2899 152.772 74.0269C152.862 73.7638 152.995 73.5244 153.165 73.3226C153.334 73.1209 153.536 72.9608 153.758 72.8514C153.98 72.7421 154.219 72.6858 154.46 72.6859L168.44 72.6092C169.119 72.6092 169.711 72.8815 170.217 73.4259C171.07 74.3107 171.301 75.4251 170.911 76.7692C170.622 77.756 170.036 78.4536 169.155 78.862C168.144 79.3384 167.045 79.4149 165.861 79.0916C162.624 78.1728 162.263 79.0066 164.777 81.5928Z" fill="#AE45BE" />
  <path d="M108.403 175.478V149.578H117.468C119.491 149.578 121.168 149.924 122.5 150.614C123.832 151.28 124.819 152.205 125.46 153.389C126.126 154.549 126.459 155.868 126.459 157.348C126.459 158.754 126.139 160.049 125.497 161.233C124.881 162.393 123.906 163.318 122.574 164.008C121.242 164.699 119.54 165.044 117.468 165.044H112.325V175.478H108.403ZM112.325 161.825H117.283C119.133 161.825 120.453 161.431 121.242 160.641C122.056 159.827 122.463 158.73 122.463 157.348C122.463 155.918 122.056 154.808 121.242 154.018C120.453 153.204 119.133 152.797 117.283 152.797H112.325V161.825ZM135.392 175.922C133.838 175.922 132.556 175.663 131.544 175.145C130.533 174.627 129.781 173.949 129.287 173.11C128.794 172.247 128.547 171.31 128.547 170.298C128.547 168.522 129.238 167.116 130.619 166.08C132.001 165.044 133.974 164.526 136.539 164.526H141.349V164.193C141.349 162.763 140.955 161.69 140.165 160.974C139.401 160.259 138.402 159.901 137.168 159.901C136.083 159.901 135.133 160.173 134.319 160.715C133.53 161.233 133.049 162.01 132.876 163.046H128.954C129.078 161.714 129.522 160.58 130.286 159.642C131.076 158.68 132.062 157.953 133.246 157.459C134.455 156.941 135.775 156.682 137.205 156.682C139.771 156.682 141.756 157.361 143.162 158.717C144.568 160.049 145.271 161.875 145.271 164.193V175.478H141.867L141.534 172.333C141.016 173.345 140.264 174.196 139.277 174.886C138.291 175.577 136.996 175.922 135.392 175.922ZM136.169 172.74C137.23 172.74 138.118 172.494 138.833 172C139.573 171.482 140.141 170.804 140.535 169.965C140.955 169.127 141.214 168.202 141.312 167.19H136.946C135.392 167.19 134.282 167.462 133.616 168.004C132.975 168.547 132.654 169.225 132.654 170.039C132.654 170.878 132.963 171.544 133.579 172.037C134.221 172.506 135.084 172.74 136.169 172.74ZM157.179 175.478C155.378 175.478 153.948 175.047 152.887 174.183C151.826 173.295 151.296 171.729 151.296 169.484V160.419H148.151V157.126H151.296L151.777 152.464H155.218V157.126H160.398V160.419H155.218V169.484C155.218 170.496 155.428 171.199 155.847 171.593C156.291 171.963 157.043 172.148 158.104 172.148H160.213V175.478H157.179ZM172.667 175.922C170.866 175.922 169.251 175.515 167.82 174.701C166.414 173.887 165.304 172.765 164.49 171.334C163.701 169.879 163.306 168.202 163.306 166.302C163.306 164.403 163.701 162.738 164.49 161.307C165.304 159.852 166.414 158.717 167.82 157.903C169.251 157.089 170.866 156.682 172.667 156.682C174.936 156.682 176.836 157.274 178.365 158.458C179.919 159.642 180.918 161.246 181.362 163.268H177.255C177.008 162.257 176.466 161.468 175.627 160.9C174.788 160.333 173.802 160.049 172.667 160.049C171.705 160.049 170.817 160.296 170.003 160.789C169.189 161.258 168.535 161.961 168.042 162.898C167.549 163.811 167.302 164.946 167.302 166.302C167.302 167.659 167.549 168.806 168.042 169.743C168.535 170.656 169.189 171.359 170.003 171.852C170.817 172.346 171.705 172.592 172.667 172.592C173.802 172.592 174.788 172.309 175.627 171.741C176.466 171.174 177.008 170.372 177.255 169.336H181.362C180.943 171.31 179.956 172.901 178.402 174.109C176.848 175.318 174.936 175.922 172.667 175.922ZM185.616 175.478V148.838H189.538V160.086C190.154 159.026 191.005 158.199 192.091 157.607C193.201 156.991 194.422 156.682 195.754 156.682C197.949 156.682 199.676 157.373 200.934 158.754C202.192 160.136 202.821 162.195 202.821 164.933V175.478H198.936V165.34C198.936 161.788 197.517 160.012 194.681 160.012C193.201 160.012 191.967 160.53 190.981 161.566C190.019 162.602 189.538 164.082 189.538 166.006V175.478H185.616ZM216.024 175.922C214.223 175.922 212.62 175.528 211.214 174.738C209.833 173.924 208.747 172.802 207.958 171.371C207.169 169.941 206.774 168.276 206.774 166.376C206.774 164.452 207.156 162.763 207.921 161.307C208.71 159.852 209.796 158.717 211.177 157.903C212.583 157.089 214.211 156.682 216.061 156.682C217.862 156.682 219.428 157.089 220.76 157.903C222.092 158.693 223.128 159.753 223.868 161.085C224.608 162.417 224.978 163.885 224.978 165.488C224.978 165.735 224.966 166.006 224.941 166.302C224.941 166.574 224.929 166.882 224.904 167.227H210.622C210.745 169.003 211.325 170.36 212.361 171.297C213.422 172.21 214.643 172.666 216.024 172.666C217.134 172.666 218.059 172.42 218.799 171.926C219.564 171.408 220.131 170.718 220.501 169.854H224.423C223.93 171.581 222.943 173.024 221.463 174.183C220.008 175.343 218.195 175.922 216.024 175.922ZM216.024 159.901C214.717 159.901 213.557 160.296 212.546 161.085C211.535 161.85 210.918 163.009 210.696 164.563H221.056C220.982 163.133 220.476 161.998 219.539 161.159C218.602 160.321 217.43 159.901 216.024 159.901ZM236.373 175.922C234.055 175.922 232.143 175.355 230.638 174.22C229.134 173.086 228.27 171.581 228.048 169.706H232.007C232.205 170.545 232.673 171.273 233.413 171.889C234.153 172.481 235.128 172.777 236.336 172.777C237.52 172.777 238.384 172.531 238.926 172.037C239.469 171.544 239.74 170.977 239.74 170.335C239.74 169.398 239.358 168.769 238.593 168.448C237.853 168.103 236.817 167.795 235.485 167.523C234.449 167.301 233.413 167.005 232.377 166.635C231.366 166.265 230.515 165.747 229.824 165.081C229.158 164.391 228.825 163.466 228.825 162.306C228.825 160.703 229.442 159.371 230.675 158.31C231.909 157.225 233.635 156.682 235.855 156.682C237.903 156.682 239.555 157.176 240.813 158.162C242.096 159.149 242.848 160.543 243.07 162.343H239.296C239.173 161.554 238.803 160.937 238.186 160.493C237.594 160.049 236.793 159.827 235.781 159.827C234.795 159.827 234.03 160.037 233.487 160.456C232.945 160.851 232.673 161.369 232.673 162.01C232.673 162.652 233.043 163.157 233.783 163.527C234.548 163.897 235.547 164.23 236.78 164.526C238.014 164.798 239.148 165.118 240.184 165.488C241.245 165.834 242.096 166.352 242.737 167.042C243.379 167.733 243.699 168.744 243.699 170.076C243.724 171.754 243.07 173.147 241.738 174.257C240.431 175.367 238.643 175.922 236.373 175.922Z" fill="white" />
  <path d="M167.161 256.478V253.666C168.839 252.334 170.442 250.99 171.971 249.633C173.501 248.277 174.857 246.945 176.041 245.637C177.25 244.305 178.2 243.01 178.89 241.752C179.581 240.47 179.926 239.236 179.926 238.052C179.926 237.263 179.791 236.523 179.519 235.832C179.248 235.117 178.804 234.55 178.187 234.13C177.571 233.686 176.744 233.464 175.708 233.464C174.154 233.464 172.983 233.958 172.193 234.944C171.429 235.931 171.059 237.115 171.083 238.496H167.272C167.297 236.671 167.679 235.142 168.419 233.908C169.184 232.675 170.195 231.738 171.453 231.096C172.736 230.455 174.179 230.134 175.782 230.134C178.224 230.134 180.173 230.825 181.628 232.206C183.108 233.563 183.848 235.462 183.848 237.904C183.848 239.36 183.491 240.803 182.775 242.233C182.085 243.664 181.172 245.045 180.037 246.377C178.927 247.685 177.731 248.918 176.448 250.077C175.166 251.237 173.945 252.285 172.785 253.222H184.625V256.478H167.161Z" fill="white" />
</svg>
