<svg width="480" height="470" viewBox="0 0 480 470" fill="none" xmlns="http://www.w3.org/2000/svg">
  <rect x="0.499512" width="479" height="469.333" rx="28" fill="#1F2336" />
  <path d="M45.2004 78.0551V55.3371H37.5414V52.1551H56.7444V55.3371H49.1224V78.0551H45.2004ZM60.2666 78.0551V51.4151H64.1886V62.6631C64.8053 61.6024 65.6563 60.7761 66.7416 60.1841C67.8516 59.5674 69.0726 59.2591 70.4046 59.2591C72.5999 59.2591 74.3266 59.9497 75.5846 61.3311C76.8426 62.7124 77.4716 64.7721 77.4716 67.5101V78.0551H73.5866V67.9171C73.5866 64.3651 72.1683 62.5891 69.3316 62.5891C67.8516 62.5891 66.6183 63.1071 65.6316 64.1431C64.6696 65.1791 64.1886 66.6591 64.1886 68.5831V78.0551H60.2666ZM82.0908 78.0551V59.7031H85.6058L85.9388 63.1811C86.5802 61.9724 87.4682 61.0227 88.6028 60.3321C89.7622 59.6167 91.1558 59.2591 92.7838 59.2591V63.3661H91.7108C90.6255 63.3661 89.6512 63.5511 88.7878 63.9211C87.9492 64.2664 87.2708 64.8707 86.7528 65.7341C86.2595 66.5727 86.0128 67.7444 86.0128 69.2491V78.0551H82.0908ZM104.225 78.4991C102.424 78.4991 100.821 78.1044 99.4146 77.3151C98.0333 76.5011 96.948 75.3787 96.1586 73.9481C95.3693 72.5174 94.9746 70.8524 94.9746 68.9531C94.9746 67.0291 95.357 65.3394 96.1216 63.8841C96.911 62.4287 97.9963 61.2941 99.3776 60.4801C100.784 59.6661 102.412 59.2591 104.262 59.2591C106.062 59.2591 107.629 59.6661 108.961 60.4801C110.293 61.2694 111.329 62.3301 112.069 63.6621C112.809 64.9941 113.179 66.4617 113.179 68.0651C113.179 68.3117 113.166 68.5831 113.142 68.8791C113.142 69.1504 113.129 69.4587 113.105 69.8041H98.8226C98.946 71.5801 99.5256 72.9367 100.562 73.8741C101.622 74.7867 102.843 75.2431 104.225 75.2431C105.335 75.2431 106.26 74.9964 107 74.5031C107.764 73.9851 108.332 73.2944 108.702 72.4311H112.624C112.13 74.1577 111.144 75.6007 109.664 76.7601C108.208 77.9194 106.395 78.4991 104.225 78.4991ZM104.225 62.4781C102.917 62.4781 101.758 62.8727 100.747 63.6621C99.7353 64.4267 99.1186 65.5861 98.8966 67.1401H109.257C109.183 65.7094 108.677 64.5747 107.74 63.7361C106.802 62.8974 105.631 62.4781 104.225 62.4781ZM123.464 78.4991C121.91 78.4991 120.627 78.2401 119.616 77.7221C118.605 77.2041 117.852 76.5257 117.359 75.6871C116.866 74.8237 116.619 73.8864 116.619 72.8751C116.619 71.0991 117.31 69.6931 118.691 68.6571C120.072 67.6211 122.046 67.1031 124.611 67.1031H129.421V66.7701C129.421 65.3394 129.026 64.2664 128.237 63.5511C127.472 62.8357 126.473 62.4781 125.24 62.4781C124.155 62.4781 123.205 62.7494 122.391 63.2921C121.602 63.8101 121.121 64.5871 120.948 65.6231H117.026C117.149 64.2911 117.593 63.1564 118.358 62.2191C119.147 61.2571 120.134 60.5294 121.318 60.0361C122.527 59.5181 123.846 59.2591 125.277 59.2591C127.842 59.2591 129.828 59.9374 131.234 61.2941C132.64 62.6261 133.343 64.4514 133.343 66.7701V78.0551H129.939L129.606 74.9101C129.088 75.9214 128.336 76.7724 127.349 77.4631C126.362 78.1537 125.067 78.4991 123.464 78.4991ZM124.241 75.3171C125.302 75.3171 126.19 75.0704 126.905 74.5771C127.645 74.0591 128.212 73.3807 128.607 72.5421C129.026 71.7034 129.285 70.7784 129.384 69.7671H125.018C123.464 69.7671 122.354 70.0384 121.688 70.5811C121.047 71.1237 120.726 71.8021 120.726 72.6161C120.726 73.4547 121.034 74.1207 121.651 74.6141C122.292 75.0827 123.156 75.3171 124.241 75.3171ZM145.251 78.0551C143.45 78.0551 142.019 77.6234 140.959 76.7601C139.898 75.8721 139.368 74.3057 139.368 72.0611V62.9961H136.223V59.7031H139.368L139.849 55.0411H143.29V59.7031H148.47V62.9961H143.29V72.0611C143.29 73.0724 143.499 73.7754 143.919 74.1701C144.363 74.5401 145.115 74.7251 146.176 74.7251H148.285V78.0551H145.251ZM161.836 78.0551V51.4151H165.758V78.0551H161.836ZM179.309 78.4991C177.508 78.4991 175.905 78.1044 174.499 77.3151C173.117 76.5011 172.032 75.3787 171.243 73.9481C170.453 72.5174 170.059 70.8524 170.059 68.9531C170.059 67.0291 170.441 65.3394 171.206 63.8841C171.995 62.4287 173.08 61.2941 174.462 60.4801C175.868 59.6661 177.496 59.2591 179.346 59.2591C181.146 59.2591 182.713 59.6661 184.045 60.4801C185.377 61.2694 186.413 62.3301 187.153 63.6621C187.893 64.9941 188.263 66.4617 188.263 68.0651C188.263 68.3117 188.25 68.5831 188.226 68.8791C188.226 69.1504 188.213 69.4587 188.189 69.8041H173.907C174.03 71.5801 174.61 72.9367 175.646 73.8741C176.706 74.7867 177.927 75.2431 179.309 75.2431C180.419 75.2431 181.344 74.9964 182.084 74.5031C182.848 73.9851 183.416 73.2944 183.786 72.4311H187.708C187.214 74.1577 186.228 75.6007 184.748 76.7601C183.292 77.9194 181.479 78.4991 179.309 78.4991ZM179.309 62.4781C178.001 62.4781 176.842 62.8727 175.831 63.6621C174.819 64.4267 174.203 65.5861 173.981 67.1401H184.341C184.267 65.7094 183.761 64.5747 182.824 63.7361C181.886 62.8974 180.715 62.4781 179.309 62.4781ZM196.752 78.0551L189.87 59.7031H193.977L199.083 74.3181L204.189 59.7031H208.259L201.414 78.0551H196.752ZM219.127 78.4991C217.326 78.4991 215.723 78.1044 214.317 77.3151C212.936 76.5011 211.85 75.3787 211.061 73.9481C210.272 72.5174 209.877 70.8524 209.877 68.9531C209.877 67.0291 210.259 65.3394 211.024 63.8841C211.813 62.4287 212.899 61.2941 214.28 60.4801C215.686 59.6661 217.314 59.2591 219.164 59.2591C220.965 59.2591 222.531 59.6661 223.863 60.4801C225.195 61.2694 226.231 62.3301 226.971 63.6621C227.711 64.9941 228.081 66.4617 228.081 68.0651C228.081 68.3117 228.069 68.5831 228.044 68.8791C228.044 69.1504 228.032 69.4587 228.007 69.8041H213.725C213.848 71.5801 214.428 72.9367 215.464 73.8741C216.525 74.7867 217.746 75.2431 219.127 75.2431C220.237 75.2431 221.162 74.9964 221.902 74.5031C222.667 73.9851 223.234 73.2944 223.604 72.4311H227.526C227.033 74.1577 226.046 75.6007 224.566 76.7601C223.111 77.9194 221.298 78.4991 219.127 78.4991ZM219.127 62.4781C217.82 62.4781 216.66 62.8727 215.649 63.6621C214.638 64.4267 214.021 65.5861 213.799 67.1401H224.159C224.085 65.7094 223.579 64.5747 222.642 63.7361C221.705 62.8974 220.533 62.4781 219.127 62.4781ZM232.15 78.0551V51.4151H236.072V78.0551H232.15ZM248.365 78.4991C246.046 78.4991 244.135 77.9317 242.63 76.7971C241.125 75.6624 240.262 74.1577 240.04 72.2831H243.999C244.196 73.1217 244.665 73.8494 245.405 74.4661C246.145 75.0581 247.119 75.3541 248.328 75.3541C249.512 75.3541 250.375 75.1074 250.918 74.6141C251.461 74.1207 251.732 73.5534 251.732 72.9121C251.732 71.9747 251.35 71.3457 250.585 71.0251C249.845 70.6797 248.809 70.3714 247.477 70.1001C246.441 69.8781 245.405 69.5821 244.369 69.2121C243.358 68.8421 242.507 68.3241 241.816 67.6581C241.15 66.9674 240.817 66.0424 240.817 64.8831C240.817 63.2797 241.434 61.9477 242.667 60.8871C243.9 59.8017 245.627 59.2591 247.847 59.2591C249.894 59.2591 251.547 59.7524 252.805 60.7391C254.088 61.7257 254.84 63.1194 255.062 64.9201H251.288C251.165 64.1307 250.795 63.5141 250.178 63.0701C249.586 62.6261 248.784 62.4041 247.773 62.4041C246.786 62.4041 246.022 62.6137 245.479 63.0331C244.936 63.4277 244.665 63.9457 244.665 64.5871C244.665 65.2284 245.035 65.7341 245.775 66.1041C246.54 66.4741 247.539 66.8071 248.772 67.1031C250.005 67.3744 251.14 67.6951 252.176 68.0651C253.237 68.4104 254.088 68.9284 254.729 69.6191C255.37 70.3097 255.691 71.3211 255.691 72.6531C255.716 74.3304 255.062 75.7241 253.73 76.8341C252.423 77.9441 250.634 78.4991 248.365 78.4991Z" fill="white" />
  <path d="M38.2327 141.542V126.842H40.4587V141.542H38.2327ZM43.3577 141.542V131.126H45.3317L45.4997 132.953C45.8217 132.309 46.2907 131.805 46.9067 131.441C47.5367 131.063 48.2577 130.874 49.0697 130.874C50.3297 130.874 51.3167 131.266 52.0307 132.05C52.7587 132.834 53.1227 134.003 53.1227 135.557V141.542H50.9177V135.788C50.9177 133.772 50.0917 132.764 48.4397 132.764C47.6137 132.764 46.9277 133.058 46.3817 133.646C45.8497 134.234 45.5837 135.074 45.5837 136.166V141.542H43.3577ZM56.2694 141.542V132.995H54.7784V131.126H56.2694V129.614C56.2694 128.48 56.5494 127.668 57.1094 127.178C57.6834 126.674 58.4884 126.422 59.5244 126.422H60.6164V128.312H59.8604C59.3704 128.312 59.0204 128.417 58.8104 128.627C58.6004 128.823 58.4954 129.159 58.4954 129.635V131.126H60.8894V132.995H58.4954V141.542H56.2694ZM67.466 141.794C66.472 141.794 65.576 141.57 64.778 141.122C63.994 140.66 63.371 140.023 62.909 139.211C62.447 138.385 62.216 137.426 62.216 136.334C62.216 135.242 62.447 134.29 62.909 133.478C63.385 132.652 64.022 132.015 64.82 131.567C65.618 131.105 66.507 130.874 67.487 130.874C68.481 130.874 69.37 131.105 70.154 131.567C70.952 132.015 71.582 132.652 72.044 133.478C72.52 134.29 72.758 135.242 72.758 136.334C72.758 137.426 72.52 138.385 72.044 139.211C71.582 140.023 70.952 140.66 70.154 141.122C69.356 141.57 68.46 141.794 67.466 141.794ZM67.466 139.883C67.998 139.883 68.488 139.75 68.936 139.484C69.398 139.218 69.769 138.826 70.049 138.308C70.329 137.776 70.469 137.118 70.469 136.334C70.469 135.55 70.329 134.899 70.049 134.381C69.783 133.849 69.419 133.45 68.957 133.184C68.509 132.918 68.019 132.785 67.487 132.785C66.955 132.785 66.458 132.918 65.996 133.184C65.548 133.45 65.184 133.849 64.904 134.381C64.624 134.899 64.484 135.55 64.484 136.334C64.484 137.118 64.624 137.776 64.904 138.308C65.184 138.826 65.548 139.218 65.996 139.484C66.444 139.75 66.934 139.883 67.466 139.883ZM75.1653 141.542V131.126H77.1603L77.3493 133.1C77.7133 132.414 78.2173 131.875 78.8613 131.483C79.5193 131.077 80.3103 130.874 81.2343 130.874V133.205H80.6253C80.0093 133.205 79.4563 133.31 78.9663 133.52C78.4903 133.716 78.1053 134.059 77.8113 134.549C77.5313 135.025 77.3913 135.69 77.3913 136.544V141.542H75.1653ZM83.1428 141.542V131.126H85.1168L85.3058 132.596C85.6418 132.064 86.0828 131.644 86.6288 131.336C87.1888 131.028 87.8328 130.874 88.5608 130.874C90.2128 130.874 91.3608 131.525 92.0048 132.827C92.3828 132.225 92.8868 131.749 93.5168 131.399C94.1608 131.049 94.8538 130.874 95.5958 130.874C96.8978 130.874 97.9198 131.266 98.6618 132.05C99.4038 132.834 99.7748 134.003 99.7748 135.557V141.542H97.5488V135.788C97.5488 133.772 96.7788 132.764 95.2388 132.764C94.4548 132.764 93.8108 133.058 93.3068 133.646C92.8168 134.234 92.5718 135.074 92.5718 136.166V141.542H90.3458V135.788C90.3458 133.772 89.5688 132.764 88.0148 132.764C87.2448 132.764 86.6078 133.058 86.1038 133.646C85.6138 134.234 85.3688 135.074 85.3688 136.166V141.542H83.1428ZM105.907 141.794C105.025 141.794 104.297 141.647 103.723 141.353C103.149 141.059 102.722 140.674 102.442 140.198C102.162 139.708 102.022 139.176 102.022 138.602C102.022 137.594 102.414 136.796 103.198 136.208C103.982 135.62 105.102 135.326 106.558 135.326H109.288V135.137C109.288 134.325 109.064 133.716 108.616 133.31C108.182 132.904 107.615 132.701 106.915 132.701C106.299 132.701 105.76 132.855 105.298 133.163C104.85 133.457 104.577 133.898 104.479 134.486H102.253C102.323 133.73 102.575 133.086 103.009 132.554C103.457 132.008 104.017 131.595 104.689 131.315C105.375 131.021 106.124 130.874 106.936 130.874C108.392 130.874 109.519 131.259 110.317 132.029C111.115 132.785 111.514 133.821 111.514 135.137V141.542H109.582L109.393 139.757C109.099 140.331 108.672 140.814 108.112 141.206C107.552 141.598 106.817 141.794 105.907 141.794ZM106.348 139.988C106.95 139.988 107.454 139.848 107.86 139.568C108.28 139.274 108.602 138.889 108.826 138.413C109.064 137.937 109.211 137.412 109.267 136.838H106.789C105.907 136.838 105.277 136.992 104.899 137.3C104.535 137.608 104.353 137.993 104.353 138.455C104.353 138.931 104.528 139.309 104.878 139.589C105.242 139.855 105.732 139.988 106.348 139.988ZM118.273 141.542C117.251 141.542 116.439 141.297 115.837 140.807C115.235 140.303 114.934 139.414 114.934 138.14V132.995H113.149V131.126H114.934L115.207 128.48H117.16V131.126H120.1V132.995H117.16V138.14C117.16 138.714 117.279 139.113 117.517 139.337C117.769 139.547 118.196 139.652 118.798 139.652H119.995V141.542H118.273ZM123.655 129.152C123.235 129.152 122.885 129.026 122.605 128.774C122.339 128.508 122.206 128.179 122.206 127.787C122.206 127.395 122.339 127.073 122.605 126.821C122.885 126.555 123.235 126.422 123.655 126.422C124.075 126.422 124.418 126.555 124.684 126.821C124.964 127.073 125.104 127.395 125.104 127.787C125.104 128.179 124.964 128.508 124.684 128.774C124.418 129.026 124.075 129.152 123.655 129.152ZM122.542 141.542V131.126H124.768V141.542H122.542ZM132.578 141.794C131.584 141.794 130.688 141.57 129.89 141.122C129.106 140.66 128.483 140.023 128.021 139.211C127.559 138.385 127.328 137.426 127.328 136.334C127.328 135.242 127.559 134.29 128.021 133.478C128.497 132.652 129.134 132.015 129.932 131.567C130.73 131.105 131.619 130.874 132.599 130.874C133.593 130.874 134.482 131.105 135.266 131.567C136.064 132.015 136.694 132.652 137.156 133.478C137.632 134.29 137.87 135.242 137.87 136.334C137.87 137.426 137.632 138.385 137.156 139.211C136.694 140.023 136.064 140.66 135.266 141.122C134.468 141.57 133.572 141.794 132.578 141.794ZM132.578 139.883C133.11 139.883 133.6 139.75 134.048 139.484C134.51 139.218 134.881 138.826 135.161 138.308C135.441 137.776 135.581 137.118 135.581 136.334C135.581 135.55 135.441 134.899 135.161 134.381C134.895 133.849 134.531 133.45 134.069 133.184C133.621 132.918 133.131 132.785 132.599 132.785C132.067 132.785 131.57 132.918 131.108 133.184C130.66 133.45 130.296 133.849 130.016 134.381C129.736 134.899 129.596 135.55 129.596 136.334C129.596 137.118 129.736 137.776 130.016 138.308C130.296 138.826 130.66 139.218 131.108 139.484C131.556 139.75 132.046 139.883 132.578 139.883ZM140.278 141.542V131.126H142.252L142.42 132.953C142.742 132.309 143.211 131.805 143.827 131.441C144.457 131.063 145.178 130.874 145.99 130.874C147.25 130.874 148.237 131.266 148.951 132.05C149.679 132.834 150.043 134.003 150.043 135.557V141.542H147.838V135.788C147.838 133.772 147.012 132.764 145.36 132.764C144.534 132.764 143.848 133.058 143.302 133.646C142.77 134.234 142.504 135.074 142.504 136.166V141.542H140.278Z" fill="white" />
  <path d="M416.392 141.542L422.083 128.753H414.439V126.842H424.372V128.459L418.723 141.542H416.392ZM430.895 141.794C429.943 141.794 429.075 141.626 428.291 141.29C427.521 140.94 426.905 140.415 426.443 139.715C425.981 139.015 425.736 138.14 425.708 137.09H427.913C427.941 137.874 428.207 138.539 428.711 139.085C429.229 139.617 429.957 139.883 430.895 139.883C431.791 139.883 432.477 139.638 432.953 139.148C433.429 138.644 433.667 138.021 433.667 137.279C433.667 136.383 433.345 135.718 432.701 135.284C432.071 134.85 431.294 134.633 430.37 134.633H429.278V132.785H430.391C431.217 132.785 431.882 132.589 432.386 132.197C432.904 131.805 433.163 131.252 433.163 130.538C433.163 129.936 432.96 129.446 432.554 129.068C432.162 128.69 431.602 128.501 430.874 128.501C430.118 128.501 429.523 128.725 429.089 129.173C428.655 129.607 428.417 130.153 428.375 130.811H426.17C426.198 129.957 426.408 129.215 426.8 128.585C427.206 127.955 427.759 127.465 428.459 127.115C429.159 126.765 429.964 126.59 430.874 126.59C431.854 126.59 432.673 126.765 433.331 127.115C434.003 127.451 434.507 127.913 434.843 128.501C435.193 129.075 435.368 129.705 435.368 130.391C435.368 131.175 435.151 131.861 434.717 132.449C434.283 133.037 433.702 133.429 432.974 133.625C433.814 133.807 434.507 134.22 435.053 134.864C435.599 135.494 435.872 136.313 435.872 137.321C435.872 138.133 435.683 138.882 435.305 139.568C434.927 140.24 434.367 140.779 433.625 141.185C432.883 141.591 431.973 141.794 430.895 141.794Z" fill="white" />
  <path d="M38.303 204.542V189.842H40.529V202.778H47.207V204.542H38.303ZM53.9396 204.794C52.9456 204.794 52.0496 204.57 51.2516 204.122C50.4676 203.66 49.8446 203.023 49.3826 202.211C48.9206 201.385 48.6896 200.426 48.6896 199.334C48.6896 198.242 48.9206 197.29 49.3826 196.478C49.8586 195.652 50.4956 195.015 51.2936 194.567C52.0916 194.105 52.9806 193.874 53.9606 193.874C54.9546 193.874 55.8436 194.105 56.6276 194.567C57.4256 195.015 58.0556 195.652 58.5176 196.478C58.9936 197.29 59.2316 198.242 59.2316 199.334C59.2316 200.426 58.9936 201.385 58.5176 202.211C58.0556 203.023 57.4256 203.66 56.6276 204.122C55.8296 204.57 54.9336 204.794 53.9396 204.794ZM53.9396 202.883C54.4716 202.883 54.9616 202.75 55.4096 202.484C55.8716 202.218 56.2426 201.826 56.5226 201.308C56.8026 200.776 56.9426 200.118 56.9426 199.334C56.9426 198.55 56.8026 197.899 56.5226 197.381C56.2566 196.849 55.8926 196.45 55.4306 196.184C54.9826 195.918 54.4926 195.785 53.9606 195.785C53.4286 195.785 52.9316 195.918 52.4696 196.184C52.0216 196.45 51.6576 196.849 51.3776 197.381C51.0976 197.899 50.9576 198.55 50.9576 199.334C50.9576 200.118 51.0976 200.776 51.3776 201.308C51.6576 201.826 52.0216 202.218 52.4696 202.484C52.9176 202.75 53.4076 202.883 53.9396 202.883ZM63.3283 204.542L60.2623 194.126H62.4883L64.5043 201.98L66.7723 194.126H69.2503L71.5183 201.98L73.5343 194.126H75.7603L72.6943 204.542H70.4053L68.0113 196.352L65.6173 204.542H63.3283Z" fill="white" />
  <path d="M424.998 204.794C423.668 204.794 422.52 204.479 421.554 203.849C420.602 203.205 419.867 202.316 419.349 201.182C418.845 200.034 418.593 198.704 418.593 197.192C418.593 195.68 418.845 194.357 419.349 193.223C419.867 192.075 420.602 191.186 421.554 190.556C422.52 189.912 423.668 189.59 424.998 189.59C426.328 189.59 427.469 189.912 428.421 190.556C429.373 191.186 430.101 192.075 430.605 193.223C431.123 194.357 431.382 195.68 431.382 197.192C431.382 198.704 431.123 200.034 430.605 201.182C430.101 202.316 429.373 203.205 428.421 203.849C427.469 204.479 426.328 204.794 424.998 204.794ZM424.998 202.799C425.796 202.799 426.503 202.575 427.119 202.127C427.749 201.679 428.239 201.035 428.589 200.195C428.939 199.355 429.114 198.354 429.114 197.192C429.114 196.03 428.939 195.029 428.589 194.189C428.239 193.349 427.749 192.705 427.119 192.257C426.503 191.809 425.796 191.585 424.998 191.585C424.186 191.585 423.472 191.809 422.856 192.257C422.24 192.705 421.757 193.349 421.407 194.189C421.057 195.029 420.882 196.03 420.882 197.192C420.882 198.354 421.057 199.355 421.407 200.195C421.757 201.035 422.24 201.679 422.856 202.127C423.472 202.575 424.186 202.799 424.998 202.799Z" fill="white" />
  <path d="M38.0901 267.542V252.842H40.7151L45.6921 262.628L50.6481 252.842H53.2731V267.542H51.0471V256.685L46.5531 265.442H44.8311L40.3161 256.706V267.542H38.0901ZM61.048 267.794C60.026 267.794 59.116 267.57 58.318 267.122C57.534 266.66 56.918 266.023 56.47 265.211C56.022 264.399 55.798 263.454 55.798 262.376C55.798 261.284 56.015 260.325 56.449 259.499C56.897 258.673 57.513 258.029 58.297 257.567C59.095 257.105 60.019 256.874 61.069 256.874C62.091 256.874 62.98 257.105 63.736 257.567C64.492 258.015 65.08 258.617 65.5 259.373C65.92 260.129 66.13 260.962 66.13 261.872C66.13 262.012 66.123 262.166 66.109 262.334C66.109 262.488 66.102 262.663 66.088 262.859H57.982C58.052 263.867 58.381 264.637 58.969 265.169C59.571 265.687 60.264 265.946 61.048 265.946C61.678 265.946 62.203 265.806 62.623 265.526C63.057 265.232 63.379 264.84 63.589 264.35H65.815C65.535 265.33 64.975 266.149 64.135 266.807C63.309 267.465 62.28 267.794 61.048 267.794ZM61.048 258.701C60.306 258.701 59.648 258.925 59.074 259.373C58.5 259.807 58.15 260.465 58.024 261.347H63.904C63.862 260.535 63.575 259.891 63.043 259.415C62.511 258.939 61.846 258.701 61.048 258.701ZM73.1857 267.794C72.1777 267.794 71.2887 267.556 70.5187 267.08C69.7487 266.604 69.1467 265.953 68.7127 265.127C68.2787 264.301 68.0617 263.363 68.0617 262.313C68.0617 261.263 68.2787 260.332 68.7127 259.52C69.1467 258.694 69.7487 258.05 70.5187 257.588C71.3027 257.112 72.1987 256.874 73.2067 256.874C74.0327 256.874 74.7537 257.035 75.3697 257.357C75.9997 257.679 76.4897 258.134 76.8397 258.722V252.422H79.0657V267.542H77.0707L76.8397 265.925C76.5037 266.415 76.0417 266.849 75.4537 267.227C74.8657 267.605 74.1097 267.794 73.1857 267.794ZM73.5847 265.862C74.5367 265.862 75.3137 265.533 75.9157 264.875C76.5317 264.217 76.8397 263.37 76.8397 262.334C76.8397 261.284 76.5317 260.437 75.9157 259.793C75.3137 259.135 74.5367 258.806 73.5847 258.806C72.6327 258.806 71.8487 259.135 71.2327 259.793C70.6167 260.437 70.3087 261.284 70.3087 262.334C70.3087 263.02 70.4487 263.629 70.7287 264.161C71.0087 264.693 71.3937 265.113 71.8837 265.421C72.3877 265.715 72.9547 265.862 73.5847 265.862ZM83.1323 255.152C82.7123 255.152 82.3623 255.026 82.0823 254.774C81.8163 254.508 81.6833 254.179 81.6833 253.787C81.6833 253.395 81.8163 253.073 82.0823 252.821C82.3623 252.555 82.7123 252.422 83.1323 252.422C83.5523 252.422 83.8953 252.555 84.1613 252.821C84.4413 253.073 84.5813 253.395 84.5813 253.787C84.5813 254.179 84.4413 254.508 84.1613 254.774C83.8953 255.026 83.5523 255.152 83.1323 255.152ZM82.0193 267.542V257.126H84.2453V267.542H82.0193ZM91.0269 267.794C89.7669 267.794 88.7729 267.402 88.0449 266.618C87.3309 265.834 86.9739 264.665 86.9739 263.111V257.126H89.1999V262.88C89.1999 264.896 90.0259 265.904 91.6779 265.904C92.5039 265.904 93.1829 265.61 93.7149 265.022C94.2469 264.434 94.5129 263.594 94.5129 262.502V257.126H96.7389V267.542H94.7649L94.5969 265.715C94.2749 266.359 93.7989 266.87 93.1689 267.248C92.5529 267.612 91.8389 267.794 91.0269 267.794ZM99.5706 267.542V257.126H101.545L101.734 258.596C102.07 258.064 102.511 257.644 103.057 257.336C103.617 257.028 104.261 256.874 104.989 256.874C106.641 256.874 107.789 257.525 108.433 258.827C108.811 258.225 109.315 257.749 109.945 257.399C110.589 257.049 111.282 256.874 112.024 256.874C113.326 256.874 114.348 257.266 115.09 258.05C115.832 258.834 116.203 260.003 116.203 261.557V267.542H113.977V261.788C113.977 259.772 113.207 258.764 111.667 258.764C110.883 258.764 110.239 259.058 109.735 259.646C109.245 260.234 109 261.074 109 262.166V267.542H106.774V261.788C106.774 259.772 105.997 258.764 104.443 258.764C103.673 258.764 103.036 259.058 102.532 259.646C102.042 260.234 101.797 261.074 101.797 262.166V267.542H99.5706Z" fill="white" />
  <path d="M424.598 267.542V255.362L422.225 255.908V254.27L425.48 252.842H426.908V267.542H424.598Z" fill="white" />
  <path d="M428.873 282.542H40.1254C38.1229 282.542 36.4995 283.872 36.4995 285.512V285.572C36.4995 287.212 38.1229 288.542 40.1254 288.542H428.873C430.876 288.542 432.5 287.212 432.5 285.572V285.512C432.5 283.872 430.876 282.542 428.873 282.542Z" fill="#FFC107" />
  <path d="M38.4754 346.542V331.842H40.7014V338.142H47.8204V331.842H50.0464V346.542H47.8204V339.969H40.7014V346.542H38.4754ZM54.2119 334.152C53.7919 334.152 53.4419 334.026 53.1619 333.774C52.8959 333.508 52.7629 333.179 52.7629 332.787C52.7629 332.395 52.8959 332.073 53.1619 331.821C53.4419 331.555 53.7919 331.422 54.2119 331.422C54.6319 331.422 54.9749 331.555 55.2409 331.821C55.5209 332.073 55.6609 332.395 55.6609 332.787C55.6609 333.179 55.5209 333.508 55.2409 333.774C54.9749 334.026 54.6319 334.152 54.2119 334.152ZM53.0989 346.542V336.126H55.3249V346.542H53.0989ZM62.5264 343.35C61.9804 343.35 61.4764 343.287 61.0144 343.161L60.1114 344.043C60.2654 344.141 60.4544 344.225 60.6784 344.295C60.9024 344.365 61.2174 344.428 61.6234 344.484C62.0294 344.54 62.5824 344.596 63.2824 344.652C64.6684 344.778 65.6694 345.114 66.2854 345.66C66.9014 346.192 67.2094 346.906 67.2094 347.802C67.2094 348.418 67.0414 348.999 66.7054 349.545C66.3834 350.105 65.8724 350.553 65.1724 350.889C64.4864 351.239 63.6044 351.414 62.5264 351.414C61.0704 351.414 59.8874 351.134 58.9774 350.574C58.0814 350.028 57.6334 349.195 57.6334 348.075C57.6334 347.641 57.7454 347.207 57.9694 346.773C58.2074 346.353 58.5784 345.954 59.0824 345.576C58.7884 345.45 58.5294 345.317 58.3054 345.177C58.0954 345.023 57.9064 344.869 57.7384 344.715V344.211L59.5444 342.363C58.7324 341.663 58.3264 340.746 58.3264 339.612C58.3264 338.926 58.4874 338.303 58.8094 337.743C59.1454 337.169 59.6284 336.714 60.2584 336.378C60.8884 336.042 61.6444 335.874 62.5264 335.874C63.1144 335.874 63.6604 335.958 64.1644 336.126H68.0494V337.596L66.2014 337.701C66.5374 338.275 66.7054 338.912 66.7054 339.612C66.7054 340.312 66.5374 340.942 66.2014 341.502C65.8794 342.062 65.4034 342.51 64.7734 342.846C64.1574 343.182 63.4084 343.35 62.5264 343.35ZM62.5264 341.607C63.1704 341.607 63.6884 341.439 64.0804 341.103C64.4864 340.753 64.6894 340.263 64.6894 339.633C64.6894 338.989 64.4864 338.499 64.0804 338.163C63.6884 337.827 63.1704 337.659 62.5264 337.659C61.8684 337.659 61.3364 337.827 60.9304 338.163C60.5384 338.499 60.3424 338.989 60.3424 339.633C60.3424 340.263 60.5384 340.753 60.9304 341.103C61.3364 341.439 61.8684 341.607 62.5264 341.607ZM59.7334 347.865C59.7334 348.467 59.9994 348.915 60.5314 349.209C61.0634 349.517 61.7284 349.671 62.5264 349.671C63.2964 349.671 63.9194 349.503 64.3954 349.167C64.8714 348.845 65.1094 348.411 65.1094 347.865C65.1094 347.459 64.9484 347.109 64.6264 346.815C64.3044 346.535 63.6954 346.36 62.7994 346.29C62.1274 346.248 61.5324 346.185 61.0144 346.101C60.5244 346.367 60.1884 346.654 60.0064 346.962C59.8244 347.27 59.7334 347.571 59.7334 347.865ZM70.0349 346.542V331.422H72.2609V337.806C72.6109 337.204 73.0939 336.735 73.7099 336.399C74.3399 336.049 75.0329 335.874 75.7889 335.874C77.0349 335.874 78.0149 336.266 78.7289 337.05C79.4429 337.834 79.7999 339.003 79.7999 340.557V346.542H77.5949V340.788C77.5949 338.772 76.7899 337.764 75.1799 337.764C74.3399 337.764 73.6399 338.058 73.0799 338.646C72.5339 339.234 72.2609 340.074 72.2609 341.166V346.542H70.0349Z" fill="white" />
  <path d="M424.998 346.794C423.668 346.794 422.52 346.479 421.554 345.849C420.602 345.205 419.867 344.316 419.349 343.182C418.845 342.034 418.593 340.704 418.593 339.192C418.593 337.68 418.845 336.357 419.349 335.223C419.867 334.075 420.602 333.186 421.554 332.556C422.52 331.912 423.668 331.59 424.998 331.59C426.328 331.59 427.469 331.912 428.421 332.556C429.373 333.186 430.101 334.075 430.605 335.223C431.123 336.357 431.382 337.68 431.382 339.192C431.382 340.704 431.123 342.034 430.605 343.182C430.101 344.316 429.373 345.205 428.421 345.849C427.469 346.479 426.328 346.794 424.998 346.794ZM424.998 344.799C425.796 344.799 426.503 344.575 427.119 344.127C427.749 343.679 428.239 343.035 428.589 342.195C428.939 341.355 429.114 340.354 429.114 339.192C429.114 338.03 428.939 337.029 428.589 336.189C428.239 335.349 427.749 334.705 427.119 334.257C426.503 333.809 425.796 333.585 424.998 333.585C424.186 333.585 423.472 333.809 422.856 334.257C422.24 334.705 421.757 335.349 421.407 336.189C421.057 337.029 420.882 338.03 420.882 339.192C420.882 340.354 421.057 341.355 421.407 342.195C421.757 343.035 422.24 343.679 422.856 344.127C423.472 344.575 424.186 344.799 424.998 344.799Z" fill="white" />
  <path d="M44.8179 409.794C43.3619 409.794 42.1019 409.479 41.0379 408.849C39.9879 408.205 39.1759 407.316 38.6019 406.182C38.0279 405.034 37.7409 403.711 37.7409 402.213C37.7409 400.701 38.0279 399.378 38.6019 398.244C39.1759 397.096 39.9879 396.2 41.0379 395.556C42.1019 394.912 43.3619 394.59 44.8179 394.59C46.5399 394.59 47.9469 395.01 49.0389 395.85C50.1309 396.69 50.8239 397.866 51.1179 399.378H48.6399C48.4439 398.524 48.0239 397.845 47.3799 397.341C46.7359 396.837 45.8749 396.585 44.7969 396.585C43.3269 396.585 42.1649 397.089 41.3109 398.097C40.4569 399.091 40.0299 400.463 40.0299 402.213C40.0299 403.949 40.4569 405.314 41.3109 406.308C42.1649 407.302 43.3269 407.799 44.7969 407.799C45.8749 407.799 46.7359 407.561 47.3799 407.085C48.0239 406.609 48.4439 405.958 48.6399 405.132H51.1179C50.8239 406.588 50.1309 407.729 49.0389 408.555C47.9469 409.381 46.5399 409.794 44.8179 409.794ZM53.4807 409.542V399.126H55.4757L55.6647 401.1C56.0287 400.414 56.5327 399.875 57.1767 399.483C57.8347 399.077 58.6257 398.874 59.5497 398.874V401.205H58.9407C58.3247 401.205 57.7717 401.31 57.2817 401.52C56.8057 401.716 56.4207 402.059 56.1267 402.549C55.8467 403.025 55.7067 403.69 55.7067 404.544V409.542H53.4807ZM62.7183 397.152C62.2983 397.152 61.9483 397.026 61.6683 396.774C61.4023 396.508 61.2693 396.179 61.2693 395.787C61.2693 395.395 61.4023 395.073 61.6683 394.821C61.9483 394.555 62.2983 394.422 62.7183 394.422C63.1383 394.422 63.4813 394.555 63.7473 394.821C64.0273 395.073 64.1673 395.395 64.1673 395.787C64.1673 396.179 64.0273 396.508 63.7473 396.774C63.4813 397.026 63.1383 397.152 62.7183 397.152ZM61.6053 409.542V399.126H63.8313V409.542H61.6053ZM71.1378 409.542C70.1158 409.542 69.3038 409.297 68.7018 408.807C68.0998 408.303 67.7988 407.414 67.7988 406.14V400.995H66.0138V399.126H67.7988L68.0718 396.48H70.0248V399.126H72.9648V400.995H70.0248V406.14C70.0248 406.714 70.1438 407.113 70.3818 407.337C70.6338 407.547 71.0608 407.652 71.6628 407.652H72.8598V409.542H71.1378ZM76.52 397.152C76.1 397.152 75.75 397.026 75.47 396.774C75.204 396.508 75.071 396.179 75.071 395.787C75.071 395.395 75.204 395.073 75.47 394.821C75.75 394.555 76.1 394.422 76.52 394.422C76.94 394.422 77.283 394.555 77.549 394.821C77.829 395.073 77.969 395.395 77.969 395.787C77.969 396.179 77.829 396.508 77.549 396.774C77.283 397.026 76.94 397.152 76.52 397.152ZM75.407 409.542V399.126H77.633V409.542H75.407ZM85.5066 409.794C84.4846 409.794 83.5676 409.563 82.7556 409.101C81.9576 408.639 81.3276 408.002 80.8656 407.19C80.4176 406.364 80.1936 405.412 80.1936 404.334C80.1936 403.256 80.4176 402.311 80.8656 401.499C81.3276 400.673 81.9576 400.029 82.7556 399.567C83.5676 399.105 84.4846 398.874 85.5066 398.874C86.7946 398.874 87.8726 399.21 88.7406 399.882C89.6226 400.554 90.1896 401.464 90.4416 402.612H88.1106C87.9706 402.038 87.6626 401.59 87.1866 401.268C86.7106 400.946 86.1506 400.785 85.5066 400.785C84.9606 400.785 84.4566 400.925 83.9946 401.205C83.5326 401.471 83.1616 401.87 82.8816 402.402C82.6016 402.92 82.4616 403.564 82.4616 404.334C82.4616 405.104 82.6016 405.755 82.8816 406.287C83.1616 406.805 83.5326 407.204 83.9946 407.484C84.4566 407.764 84.9606 407.904 85.5066 407.904C86.1506 407.904 86.7106 407.743 87.1866 407.421C87.6626 407.099 87.9706 406.644 88.1106 406.056H90.4416C90.2036 407.176 89.6436 408.079 88.7616 408.765C87.8796 409.451 86.7946 409.794 85.5066 409.794ZM96.3837 409.794C95.5017 409.794 94.7737 409.647 94.1997 409.353C93.6257 409.059 93.1987 408.674 92.9187 408.198C92.6387 407.708 92.4987 407.176 92.4987 406.602C92.4987 405.594 92.8907 404.796 93.6747 404.208C94.4587 403.62 95.5787 403.326 97.0347 403.326H99.7647V403.137C99.7647 402.325 99.5407 401.716 99.0927 401.31C98.6587 400.904 98.0917 400.701 97.3917 400.701C96.7757 400.701 96.2367 400.855 95.7747 401.163C95.3267 401.457 95.0537 401.898 94.9557 402.486H92.7297C92.7997 401.73 93.0517 401.086 93.4857 400.554C93.9337 400.008 94.4937 399.595 95.1657 399.315C95.8517 399.021 96.6007 398.874 97.4127 398.874C98.8687 398.874 99.9957 399.259 100.794 400.029C101.592 400.785 101.991 401.821 101.991 403.137V409.542H100.059L99.8697 407.757C99.5757 408.331 99.1487 408.814 98.5887 409.206C98.0287 409.598 97.2937 409.794 96.3837 409.794ZM96.8247 407.988C97.4267 407.988 97.9307 407.848 98.3367 407.568C98.7567 407.274 99.0787 406.889 99.3027 406.413C99.5407 405.937 99.6877 405.412 99.7437 404.838H97.2657C96.3837 404.838 95.7537 404.992 95.3757 405.3C95.0117 405.608 94.8297 405.993 94.8297 406.455C94.8297 406.931 95.0047 407.309 95.3547 407.589C95.7187 407.855 96.2087 407.988 96.8247 407.988ZM104.586 409.542V394.422H106.812V409.542H104.586Z" fill="white" />
  <path d="M415.598 409.542V397.362L413.225 397.908V396.27L416.48 394.842H417.908V409.542H415.598Z" fill="white" />
  <path d="M428.873 424.542H40.1254C38.1229 424.542 36.4995 425.872 36.4995 427.512V427.572C36.4995 429.212 38.1229 430.542 40.1254 430.542H428.873C430.876 430.542 432.5 429.212 432.5 427.572V427.512C432.5 425.872 430.876 424.542 428.873 424.542Z" fill="#FF0707" />
</svg>
