<svg width="110" height="110" viewBox="0 0 110 110" fill="none" xmlns="http://www.w3.org/2000/svg">
  <g clip-path="url(#clip0_55_257)">
    <path d="M42.449 34.3584C42.449 33.6232 42.157 32.9182 41.6371 32.3983C41.1173 31.8785 40.4122 31.5864 39.677 31.5864C38.9418 31.5864 38.2368 31.8785 37.7169 32.3983C37.1971 32.9182 36.905 33.6232 36.905 34.3584C36.905 35.0936 37.1971 35.7987 37.7169 36.3185C38.2368 36.8384 38.9418 37.1304 39.677 37.1304C40.4122 37.1304 41.1173 36.8384 41.6371 36.3185C42.157 35.7987 42.449 35.0936 42.449 34.3584Z" stroke="#8BA274" stroke-width="2" />
    <path d="M21.9285 50.38C21.879 44.924 25.9105 41.844 30.954 44.8085C32.615 45.782 34.0835 44.4345 33.5775 42.7295C33.4782 42.3962 33.2615 42.1092 32.967 41.921C26.3175 37.6695 18.656 41.6075 18.48 49.4615C18.392 53.4582 18.3883 59.0755 18.469 66.3135C18.48 67.2595 18.9567 67.7509 19.899 67.7875L20.152 67.7985C21.2887 67.8462 21.8662 67.3035 21.8845 66.1705C21.9725 61.7045 21.9872 56.441 21.9285 50.38Z" stroke="#8DCBEB" stroke-width="2" />
    <path d="M67.0341 50.1544C66.9846 43.1749 59.9391 38.0654 53.4986 40.9144C49.4396 42.7074 47.3954 45.8937 47.3661 50.4734C47.3258 56.12 47.3276 61.3597 47.3716 66.1924C47.3789 67.3987 47.9821 67.9395 49.1811 67.8149L49.3791 67.7929C50.2628 67.7012 50.7174 67.2135 50.7431 66.3299C50.8861 61.5229 50.9118 56.5417 50.8201 51.3864C50.7871 49.5347 51.0493 48.079 51.6066 47.0194C54.6811 41.1674 63.5361 43.5104 63.5251 50.1434C63.5178 55.1557 63.5306 60.5677 63.5636 66.3794C63.5637 66.6266 63.6294 66.8694 63.7541 67.083C63.8787 67.2965 64.0578 67.4732 64.2731 67.5949C64.7608 67.8735 65.2154 67.956 65.6371 67.8424C66.5611 67.593 67.0286 66.9917 67.0396 66.0384C67.0836 61.3707 67.0818 56.076 67.0341 50.1544Z" stroke="#8DCBEB" stroke-width="2" />
    <path d="M88.374 66.9515C88.6233 70.4458 87.5178 72.8567 85.0575 74.184C82.0325 75.8193 79.1615 75.2602 76.4445 72.5065C76.2865 72.3452 76.0897 72.2271 75.8731 72.1636C75.6564 72.1 75.4271 72.0931 75.207 72.1435C74.7413 72.2535 74.382 72.4753 74.129 72.809C73.491 73.656 73.5423 74.459 74.283 75.218C78.4355 79.475 84.887 79.849 89.056 75.548C90.893 73.656 91.8133 71.346 91.817 68.618C91.8316 62.095 91.8481 56.0028 91.8665 50.3415C91.894 42.306 83.556 37.5705 76.7745 41.6955C74.03 43.3675 72.3085 46.475 72.226 49.6815C72.149 52.8935 72.149 56.0083 72.226 59.026C72.4185 66.4785 79.772 70.6915 86.449 67.6885C86.988 67.4465 87.5105 67.045 88.0275 66.759C88.2438 66.6417 88.3593 66.7058 88.374 66.9515Z" stroke="#8DCBEB" stroke-width="2" />
    <path d="M41.4975 43.4114C41.4975 43.1977 41.4554 42.986 41.3736 42.7884C41.2918 42.5909 41.1719 42.4115 41.0207 42.2603C40.8695 42.1091 40.6901 41.9892 40.4925 41.9074C40.295 41.8256 40.0833 41.7834 39.8695 41.7834H39.6055C39.3917 41.7834 39.18 41.8256 38.9825 41.9074C38.785 41.9892 38.6055 42.1091 38.4544 42.2603C38.3032 42.4115 38.1833 42.5909 38.1015 42.7884C38.0196 42.986 37.9775 43.1977 37.9775 43.4114V66.1924C37.9775 66.4062 38.0196 66.6179 38.1015 66.8155C38.1833 67.013 38.3032 67.1924 38.4544 67.3436C38.6055 67.4948 38.785 67.6147 38.9825 67.6965C39.18 67.7783 39.3917 67.8204 39.6055 67.8204H39.8695C40.3013 67.8204 40.7154 67.6489 41.0207 67.3436C41.326 67.0383 41.4975 66.6242 41.4975 66.1924V43.4114Z" stroke="#8DCBEB" stroke-width="2" />
    <path d="M88.3191 49.7034C88.3191 48.1309 87.6944 46.6229 86.5825 45.511C85.4706 44.3991 83.9626 43.7744 82.3901 43.7744H81.6641C80.0916 43.7744 78.5836 44.3991 77.4717 45.511C76.3598 46.6229 75.7351 48.1309 75.7351 49.7034V59.1744C75.7351 60.7469 76.3598 62.2549 77.4717 63.3669C78.5836 64.4788 80.0916 65.1034 81.6641 65.1034H82.3901C83.9626 65.1034 85.4706 64.4788 86.5825 63.3669C87.6944 62.2549 88.3191 60.7469 88.3191 59.1744V49.7034Z" stroke="#8DCBEB" stroke-width="2" />
    <path d="M0 55C0 24.6243 24.6243 0 55 0C85.3757 0 110 24.6243 110 55C110 85.3757 85.3757 110 55 110C24.6243 110 0 85.3757 0 55ZM42.449 34.3585C42.449 33.6233 42.157 32.9183 41.6371 32.3984C41.1173 31.8785 40.4122 31.5865 39.677 31.5865C38.9418 31.5865 38.2368 31.8785 37.7169 32.3984C37.197 32.9183 36.905 33.6233 36.905 34.3585C36.905 35.0937 37.197 35.7988 37.7169 36.3186C38.2368 36.8385 38.9418 37.1305 39.677 37.1305C40.4122 37.1305 41.1173 36.8385 41.6371 36.3186C42.157 35.7988 42.449 35.0937 42.449 34.3585ZM21.9285 50.38C21.879 44.924 25.9105 41.844 30.954 44.8085C32.615 45.782 34.0835 44.4345 33.5775 42.7295C33.4782 42.3962 33.2615 42.1092 32.967 41.921C26.3175 37.6695 18.656 41.6075 18.48 49.4615C18.392 53.4582 18.3883 59.0755 18.469 66.3135C18.48 67.2595 18.9567 67.7508 19.899 67.7875L20.152 67.7985C21.2887 67.8462 21.8662 67.3035 21.8845 66.1705C21.9725 61.7045 21.9872 56.441 21.9285 50.38ZM67.034 50.1545C66.9845 43.175 59.939 38.0655 53.4985 40.9145C49.4395 42.7075 47.3953 45.8938 47.366 50.4735C47.3257 56.1202 47.3275 61.3598 47.3715 66.1925C47.3788 67.3988 47.982 67.9397 49.181 67.815L49.379 67.793C50.2627 67.7013 50.7173 67.2137 50.743 66.33C50.886 61.523 50.9117 56.5418 50.82 51.3865C50.787 49.5348 51.0492 48.0792 51.6065 47.0195C54.681 41.1675 63.536 43.5105 63.525 50.1435C63.5177 55.1558 63.5305 60.5678 63.5635 66.3795C63.5636 66.6268 63.6293 66.8696 63.754 67.0831C63.8787 67.2967 64.0577 67.4733 64.273 67.595C64.7607 67.8737 65.2153 67.9562 65.637 67.8425C66.561 67.5932 67.0285 66.9918 67.0395 66.0385C67.0835 61.3708 67.0817 56.0762 67.034 50.1545ZM88.374 66.9515C88.6233 70.4458 87.5178 72.8567 85.0575 74.184C82.0325 75.8193 79.1615 75.2602 76.4445 72.5065C76.2865 72.3452 76.0898 72.2271 75.8731 72.1636C75.6564 72.1 75.4271 72.0931 75.207 72.1435C74.7413 72.2535 74.382 72.4753 74.129 72.809C73.491 73.656 73.5423 74.459 74.283 75.218C78.4355 79.475 84.887 79.849 89.056 75.548C90.893 73.656 91.8133 71.346 91.817 68.618C91.8317 62.095 91.8482 56.0028 91.8665 50.3415C91.894 42.306 83.556 37.5705 76.7745 41.6955C74.03 43.3675 72.3085 46.475 72.226 49.6815C72.149 52.8935 72.149 56.0083 72.226 59.026C72.4185 66.4785 79.772 70.6915 86.449 67.6885C86.988 67.4465 87.5105 67.045 88.0275 66.759C88.2438 66.6417 88.3593 66.7058 88.374 66.9515ZM41.4975 43.4115C41.4975 43.1977 41.4554 42.986 41.3736 42.7885C41.2918 42.591 41.1718 42.4115 41.0207 42.2603C40.8695 42.1092 40.69 41.9892 40.4925 41.9074C40.295 41.8256 40.0833 41.7835 39.8695 41.7835H39.6055C39.3917 41.7835 39.18 41.8256 38.9825 41.9074C38.785 41.9892 38.6055 42.1092 38.4543 42.2603C38.3032 42.4115 38.1832 42.591 38.1014 42.7885C38.0196 42.986 37.9775 43.1977 37.9775 43.4115V66.1925C37.9775 66.4063 38.0196 66.618 38.1014 66.8155C38.1832 67.013 38.3032 67.1925 38.4543 67.3437C38.6055 67.4949 38.785 67.6148 38.9825 67.6966C39.18 67.7784 39.3917 67.8205 39.6055 67.8205H39.8695C40.3013 67.8205 40.7154 67.649 41.0207 67.3437C41.326 67.0384 41.4975 66.6243 41.4975 66.1925V43.4115Z" fill="#1B97D7" />
    <path d="M39.677 37.1304C41.208 37.1304 42.449 35.8894 42.449 34.3584C42.449 32.8275 41.208 31.5864 39.677 31.5864C38.1461 31.5864 36.905 32.8275 36.905 34.3584C36.905 35.8894 38.1461 37.1304 39.677 37.1304Z" fill="#FBAD11" />
    <path d="M30.954 44.8085C25.9105 41.844 21.879 44.924 21.9285 50.38C21.9872 56.441 21.9725 61.7045 21.8845 66.1705C21.8662 67.3035 21.2887 67.8462 20.152 67.7985L19.899 67.7875C18.9567 67.7509 18.48 67.2595 18.469 66.3135C18.3883 59.0755 18.392 53.4582 18.48 49.4615C18.656 41.6075 26.3175 37.6695 32.967 41.921C33.2615 42.1092 33.4782 42.3962 33.5775 42.7295C34.0835 44.4345 32.615 45.782 30.954 44.8085Z" fill="white" />
    <path d="M53.4986 40.9146C59.9391 38.0656 66.9846 43.1751 67.0341 50.1546C67.0818 56.0763 67.0836 61.3709 67.0396 66.0386C67.0286 66.9919 66.5611 67.5933 65.6371 67.8426C65.2154 67.9563 64.7608 67.8738 64.2731 67.5951C64.0578 67.4734 63.8787 67.2968 63.7541 67.0832C63.6294 66.8697 63.5637 66.6269 63.5636 66.3796C63.5306 60.5679 63.5178 55.1559 63.5251 50.1436C63.5361 43.5106 54.6811 41.1676 51.6066 47.0196C51.0493 48.0793 50.7871 49.5349 50.8201 51.3866C50.9118 56.5419 50.8861 61.5231 50.7431 66.3301C50.7174 67.2138 50.2628 67.7014 49.3791 67.7931L49.1811 67.8151C47.9821 67.9398 47.3789 67.3989 47.3716 66.1926C47.3276 61.3599 47.3258 56.1203 47.3661 50.4736C47.3954 45.8939 49.4396 42.7076 53.4986 40.9146Z" fill="white" />
    <path d="M88.0275 66.759C87.5105 67.045 86.988 67.4465 86.449 67.6885C79.772 70.6915 72.4185 66.4785 72.226 59.026C72.149 56.0083 72.149 52.8935 72.226 49.6815C72.3085 46.475 74.03 43.3675 76.7745 41.6955C83.556 37.5705 91.894 42.306 91.8665 50.3415C91.8481 56.0028 91.8316 62.095 91.817 68.618C91.8133 71.346 90.893 73.656 89.056 75.548C84.887 79.849 78.4355 79.475 74.283 75.218C73.5423 74.459 73.491 73.656 74.129 72.809C74.382 72.4753 74.7413 72.2535 75.207 72.1435C75.4271 72.0931 75.6564 72.1 75.8731 72.1636C76.0897 72.2271 76.2865 72.3452 76.4445 72.5065C79.1615 75.2602 82.0325 75.8193 85.0575 74.184C87.5178 72.8567 88.6233 70.4458 88.374 66.9515C88.3593 66.7058 88.2438 66.6417 88.0275 66.759ZM88.319 49.7035C88.319 48.131 87.6943 46.623 86.5824 45.5111C85.4705 44.3992 83.9624 43.7745 82.39 43.7745H81.664C80.0915 43.7745 78.5834 44.3992 77.4715 45.5111C76.3596 46.623 75.735 48.131 75.735 49.7035V59.1745C75.735 60.747 76.3596 62.255 77.4715 63.3669C78.5834 64.4788 80.0915 65.1035 81.664 65.1035H82.39C83.9624 65.1035 85.4705 64.4788 86.5824 63.3669C87.6943 62.255 88.319 60.747 88.319 59.1745V49.7035Z" fill="white" />
    <path d="M39.8695 41.7834H39.6055C38.7064 41.7834 37.9775 42.5123 37.9775 43.4114V66.1924C37.9775 67.0916 38.7064 67.8204 39.6055 67.8204H39.8695C40.7687 67.8204 41.4975 67.0916 41.4975 66.1924V43.4114C41.4975 42.5123 40.7687 41.7834 39.8695 41.7834Z" fill="white" />
    <path d="M82.3901 43.7744H81.6641C78.3896 43.7744 75.7351 46.4289 75.7351 49.7034V59.1744C75.7351 62.4489 78.3896 65.1034 81.6641 65.1034H82.3901C85.6646 65.1034 88.3191 62.4489 88.3191 59.1744V49.7034C88.3191 46.4289 85.6646 43.7744 82.3901 43.7744Z" fill="#1B97D7" />
  </g>
  <defs>
    <clipPath id="clip0_55_257">
      <rect width="110" height="110" fill="white" />
    </clipPath>
  </defs>
</svg>
