<svg width="43" height="45" viewBox="0 0 43 45"  fill="none" xmlns="http://www.w3.org/2000/svg">
  <g clip-path="url(#clip0_45_47)">
    <path d="M39.7373 27.3582L36.9229 24.952C37.0561 24.1356 37.1248 23.302 37.1248 22.4684C37.1248 21.6348 37.0561 20.8012 36.9229 19.9848L39.7373 17.5785C39.9496 17.3968 40.1015 17.1547 40.1729 16.8846C40.2443 16.6144 40.2317 16.3289 40.1369 16.066L40.0982 15.9543C39.3234 13.7888 38.1632 11.7813 36.6736 10.0289L36.5963 9.93868C36.4156 9.72621 36.1748 9.57347 35.9055 9.5006C35.6363 9.42773 35.3513 9.43815 35.0881 9.53047L31.5947 10.7723C30.3057 9.71524 28.8662 8.88165 27.3107 8.29727L26.6361 4.64493C26.5852 4.37011 26.4519 4.11728 26.2539 3.92004C26.0559 3.72279 25.8026 3.59046 25.5275 3.54063L25.4115 3.51915C23.1729 3.11524 20.8182 3.11524 18.5795 3.51915L18.4635 3.54063C18.1885 3.59046 17.9351 3.72279 17.7371 3.92004C17.5391 4.11728 17.4058 4.37011 17.3549 4.64493L16.676 8.31446C15.1329 8.89896 13.696 9.73211 12.4221 10.7809L8.90294 9.53047C8.63982 9.43741 8.35462 9.42662 8.08522 9.49954C7.81583 9.57245 7.575 9.72561 7.39474 9.93868L7.31739 10.0289C5.82958 11.7826 4.66955 13.7897 3.89278 15.9543L3.85411 16.066C3.66075 16.6031 3.81974 17.2047 4.25372 17.5785L7.10255 20.0106C6.96934 20.8184 6.90489 21.6434 6.90489 22.4641C6.90489 23.2891 6.96934 24.1141 7.10255 24.9176L4.25372 27.3496C4.04144 27.5313 3.8895 27.7734 3.81812 28.0436C3.74674 28.3137 3.75929 28.5992 3.85411 28.8621L3.89278 28.9738C4.67052 31.1395 5.82208 33.1375 7.31739 34.8992L7.39474 34.9895C7.57544 35.2019 7.81628 35.3547 8.08551 35.4275C8.35474 35.5004 8.63974 35.49 8.90294 35.3977L12.4221 34.1473C13.7025 35.2 15.1334 36.0336 16.676 36.6137L17.3549 40.2832C17.4058 40.558 17.5391 40.8109 17.7371 41.0081C17.9351 41.2053 18.1885 41.3377 18.4635 41.3875L18.5795 41.409C20.8387 41.8151 23.1523 41.8151 25.4115 41.409L25.5275 41.3875C25.8026 41.3377 26.0559 41.2053 26.2539 41.0081C26.4519 40.8109 26.5852 40.558 26.6361 40.2832L27.3107 36.6309C28.8656 36.048 30.3132 35.2117 31.5947 34.1559L35.0881 35.3977C35.3512 35.4907 35.6364 35.5015 35.9058 35.4286C36.1752 35.3557 36.416 35.2025 36.5963 34.9895L36.6736 34.8992C38.1689 33.1332 39.3205 31.1395 40.0982 28.9738L40.1369 28.8621C40.3303 28.3336 40.1713 27.732 39.7373 27.3582ZM33.8721 20.4918C33.9795 21.1406 34.0354 21.8066 34.0354 22.4727C34.0354 23.1387 33.9795 23.8047 33.8721 24.4535L33.5885 26.1766L36.7982 28.9223C36.3117 30.0433 35.6974 31.1045 34.9678 32.0848L30.9803 30.6711L29.6311 31.7797C28.6041 32.6219 27.4611 33.2836 26.2236 33.7477L24.5865 34.3621L23.8174 38.5301C22.6038 38.6676 21.3786 38.6676 20.165 38.5301L19.3959 34.3535L17.7717 33.7305C16.5471 33.2664 15.4084 32.6047 14.39 31.7668L13.0408 30.6539L9.02755 32.0805C8.29708 31.0965 7.68692 30.0352 7.19708 28.918L10.4412 26.1465L10.1619 24.4277C10.0588 23.7875 10.0029 23.1258 10.0029 22.4727C10.0029 21.8152 10.0545 21.1578 10.1619 20.5176L10.4412 18.7988L7.19708 16.0273C7.68263 14.9059 8.29708 13.8488 9.02755 12.8648L13.0408 14.2914L14.39 13.1785C15.4084 12.3406 16.5471 11.6789 17.7717 11.2148L19.4002 10.6004L20.1693 6.42383C21.3768 6.28633 22.61 6.28633 23.8217 6.42383L24.5908 10.5918L26.2279 11.2063C27.4611 11.6703 28.6084 12.332 29.6354 13.1742L30.9846 14.2828L34.9721 12.8691C35.7025 13.8531 36.3127 14.9145 36.8025 16.0316L33.5928 18.7773L33.8721 20.4918ZM21.9998 14.4805C17.8232 14.4805 14.4373 17.8664 14.4373 22.043C14.4373 26.2195 17.8232 29.6055 21.9998 29.6055C26.1764 29.6055 29.5623 26.2195 29.5623 22.043C29.5623 17.8664 26.1764 14.4805 21.9998 14.4805ZM25.4029 25.4461C24.9566 25.8937 24.4261 26.2487 23.8421 26.4906C23.2581 26.7324 22.632 26.8565 21.9998 26.8555C20.715 26.8555 19.5076 26.3527 18.5967 25.4461C18.1491 24.9997 17.7941 24.4693 17.5522 23.8853C17.3103 23.3012 17.1863 22.6751 17.1873 22.043C17.1873 20.7582 17.69 19.5508 18.5967 18.6398C19.5076 17.7289 20.715 17.2305 21.9998 17.2305C23.2846 17.2305 24.492 17.7289 25.4029 18.6398C25.8506 19.0862 26.2055 19.6167 26.4474 20.2007C26.6893 20.7847 26.8133 21.4108 26.8123 22.043C26.8123 23.3277 26.3096 24.5352 25.4029 25.4461Z" fill="white"  />
  </g>
  <defs>
    <clipPath id="clip0_45_47">
      <rect width="43" height="44" fill="white" transform="translate(0 0.472656)" />
    </clipPath>
  </defs>
</svg>
