<svg width="144" height="109" viewBox="0 0 144 109" fill="none" xmlns="http://www.w3.org/2000/svg">
  <path d="M74.7917 30.7083V25.125H88.75V30.7083H74.7917ZM74.7917 19.5417V13.9583H97.125V19.5417H74.7917ZM60.8333 58.625C56.9715 58.625 53.6802 57.2636 50.9592 54.5408C48.2383 51.818 46.8769 48.5266 46.875 44.6667C46.875 42.4333 47.3635 40.3508 48.3406 38.4189C49.3177 36.4871 50.6903 34.8474 52.4583 33.5V16.75C52.4583 14.4236 53.2726 12.4462 54.901 10.8177C56.5295 9.18924 58.5069 8.375 60.8333 8.375C63.1597 8.375 65.1372 9.18924 66.7656 10.8177C68.3941 12.4462 69.2083 14.4236 69.2083 16.75V33.5C70.9764 34.8493 72.349 36.4899 73.326 38.4217C74.3031 40.3535 74.7917 42.4352 74.7917 44.6667C74.7917 48.5285 73.4303 51.8208 70.7075 54.5436C67.9847 57.2664 64.6933 58.6269 60.8333 58.625ZM52.4583 44.6667H69.2083C69.2083 43.3174 68.918 42.0611 68.3373 40.8979C67.7567 39.7347 66.9303 38.7576 65.8583 37.9667L63.625 36.2917V16.75C63.625 15.959 63.357 15.2965 62.821 14.7623C62.285 14.2282 61.6224 13.9602 60.8333 13.9583C60.0424 13.9583 59.3798 14.2263 58.8457 14.7623C58.3115 15.2983 58.0435 15.9609 58.0417 16.75V36.2917L55.8083 37.9667C54.7382 38.7576 53.9119 39.7347 53.3293 40.8979C52.7468 42.0611 52.4565 43.3174 52.4583 44.6667Z" fill="white" />
  <path d="M27.7131 102V92.176H24.4011V90.8H32.7051V92.176H29.4091V102H27.7131ZM34.2283 102V90.48H35.9243V95.344C36.1909 94.8853 36.5589 94.528 37.0283 94.272C37.5083 94.0053 38.0363 93.872 38.6123 93.872C39.5616 93.872 40.3083 94.1707 40.8523 94.768C41.3963 95.3653 41.6683 96.256 41.6683 97.44V102H39.9883V97.616C39.9883 96.08 39.3749 95.312 38.1483 95.312C37.5083 95.312 36.9749 95.536 36.5483 95.984C36.1323 96.432 35.9243 97.072 35.9243 97.904V102H34.2283ZM47.3778 102.192C46.5991 102.192 45.9058 102.021 45.2978 101.68C44.7004 101.328 44.2311 100.843 43.8898 100.224C43.5484 99.6053 43.3778 98.8853 43.3778 98.064C43.3778 97.232 43.5431 96.5013 43.8738 95.872C44.2151 95.2427 44.6844 94.752 45.2818 94.4C45.8898 94.048 46.5938 93.872 47.3938 93.872C48.1724 93.872 48.8498 94.048 49.4258 94.4C50.0018 94.7413 50.4498 95.2 50.7698 95.776C51.0898 96.352 51.2498 96.9867 51.2498 97.68C51.2498 97.7867 51.2444 97.904 51.2338 98.032C51.2338 98.1493 51.2284 98.2827 51.2178 98.432H45.0418C45.0951 99.2 45.3458 99.7867 45.7938 100.192C46.2524 100.587 46.7804 100.784 47.3778 100.784C47.8578 100.784 48.2578 100.677 48.5778 100.464C48.9084 100.24 49.1538 99.9413 49.3138 99.568H51.0098C50.7964 100.315 50.3698 100.939 49.7298 101.44C49.1004 101.941 48.3164 102.192 47.3778 102.192ZM47.3778 95.264C46.8124 95.264 46.3111 95.4347 45.8738 95.776C45.4364 96.1067 45.1698 96.608 45.0738 97.28H49.5538C49.5218 96.6613 49.3031 96.1707 48.8978 95.808C48.4924 95.4453 47.9858 95.264 47.3778 95.264ZM53.0095 102V94.064H54.5295L54.6735 95.568C54.9508 95.0453 55.3348 94.6347 55.8255 94.336C56.3268 94.0267 56.9295 93.872 57.6335 93.872V95.648H57.1695C56.7002 95.648 56.2788 95.728 55.9055 95.888C55.5428 96.0373 55.2495 96.2987 55.0255 96.672C54.8122 97.0347 54.7055 97.5413 54.7055 98.192V102H53.0095ZM59.0876 102V94.064H60.5916L60.7356 95.184C60.9916 94.7787 61.3276 94.4587 61.7436 94.224C62.1703 93.9893 62.661 93.872 63.2156 93.872C64.4743 93.872 65.349 94.368 65.8396 95.36C66.1276 94.9013 66.5116 94.5387 66.9916 94.272C67.4823 94.0053 68.0103 93.872 68.5756 93.872C69.5676 93.872 70.3463 94.1707 70.9116 94.768C71.477 95.3653 71.7596 96.256 71.7596 97.44V102H70.0636V97.616C70.0636 96.08 69.477 95.312 68.3036 95.312C67.7063 95.312 67.2156 95.536 66.8316 95.984C66.4583 96.432 66.2716 97.072 66.2716 97.904V102H64.5756V97.616C64.5756 96.08 63.9836 95.312 62.7996 95.312C62.213 95.312 61.7276 95.536 61.3436 95.984C60.9703 96.432 60.7836 97.072 60.7836 97.904V102H59.0876ZM77.4559 102.192C76.6985 102.192 76.0159 102.021 75.4079 101.68C74.8105 101.328 74.3359 100.843 73.9839 100.224C73.6319 99.5947 73.4559 98.864 73.4559 98.032C73.4559 97.2 73.6319 96.4747 73.9839 95.856C74.3465 95.2267 74.8319 94.7413 75.4399 94.4C76.0479 94.048 76.7252 93.872 77.4719 93.872C78.2292 93.872 78.9065 94.048 79.5039 94.4C80.1119 94.7413 80.5919 95.2267 80.9439 95.856C81.3065 96.4747 81.4879 97.2 81.4879 98.032C81.4879 98.864 81.3065 99.5947 80.9439 100.224C80.5919 100.843 80.1119 101.328 79.5039 101.68C78.8959 102.021 78.2132 102.192 77.4559 102.192ZM77.4559 100.736C77.8612 100.736 78.2345 100.635 78.5759 100.432C78.9279 100.229 79.2105 99.9307 79.4239 99.536C79.6372 99.1307 79.7439 98.6293 79.7439 98.032C79.7439 97.4347 79.6372 96.9387 79.4239 96.544C79.2212 96.1387 78.9439 95.8347 78.5919 95.632C78.2505 95.4293 77.8772 95.328 77.4719 95.328C77.0665 95.328 76.6879 95.4293 76.3359 95.632C75.9945 95.8347 75.7172 96.1387 75.5039 96.544C75.2905 96.9387 75.1839 97.4347 75.1839 98.032C75.1839 98.6293 75.2905 99.1307 75.5039 99.536C75.7172 99.9307 75.9945 100.229 76.3359 100.432C76.6772 100.635 77.0505 100.736 77.4559 100.736ZM86.49 102.192C85.4873 102.192 84.6607 101.947 84.01 101.456C83.3593 100.965 82.986 100.315 82.89 99.504H84.602C84.6873 99.8667 84.89 100.181 85.21 100.448C85.53 100.704 85.9513 100.832 86.474 100.832C86.986 100.832 87.3593 100.725 87.594 100.512C87.8287 100.299 87.946 100.053 87.946 99.776C87.946 99.3707 87.7807 99.0987 87.45 98.96C87.13 98.8107 86.682 98.6773 86.106 98.56C85.658 98.464 85.21 98.336 84.762 98.176C84.3247 98.016 83.9567 97.792 83.658 97.504C83.37 97.2053 83.226 96.8053 83.226 96.304C83.226 95.6107 83.4927 95.0347 84.026 94.576C84.5593 94.1067 85.306 93.872 86.266 93.872C87.1513 93.872 87.866 94.0853 88.41 94.512C88.9647 94.9387 89.29 95.5413 89.386 96.32H87.754C87.7007 95.9787 87.5407 95.712 87.274 95.52C87.018 95.328 86.6713 95.232 86.234 95.232C85.8073 95.232 85.4767 95.3227 85.242 95.504C85.0073 95.6747 84.89 95.8987 84.89 96.176C84.89 96.4533 85.05 96.672 85.37 96.832C85.7007 96.992 86.1327 97.136 86.666 97.264C87.1993 97.3813 87.69 97.52 88.138 97.68C88.5967 97.8293 88.9647 98.0533 89.242 98.352C89.5193 98.6507 89.658 99.088 89.658 99.664C89.6687 100.389 89.386 100.992 88.81 101.472C88.2447 101.952 87.4713 102.192 86.49 102.192ZM94.5406 102C93.762 102 93.1433 101.813 92.6846 101.44C92.226 101.056 91.9966 100.379 91.9966 99.408V95.488H90.6366V94.064H91.9966L92.2046 92.048H93.6926V94.064H95.9326V95.488H93.6926V99.408C93.6926 99.8453 93.7833 100.149 93.9646 100.32C94.1566 100.48 94.482 100.56 94.9406 100.56H95.8526V102H94.5406ZM100.369 102.192C99.6974 102.192 99.1427 102.08 98.7054 101.856C98.268 101.632 97.9427 101.339 97.7294 100.976C97.516 100.603 97.4094 100.197 97.4094 99.76C97.4094 98.992 97.708 98.384 98.3054 97.936C98.9027 97.488 99.756 97.264 100.865 97.264H102.945V97.12C102.945 96.5013 102.775 96.0373 102.433 95.728C102.103 95.4187 101.671 95.264 101.137 95.264C100.668 95.264 100.257 95.3813 99.9054 95.616C99.564 95.84 99.356 96.176 99.2814 96.624H97.5854C97.6387 96.048 97.8307 95.5573 98.1614 95.152C98.5027 94.736 98.9294 94.4213 99.4414 94.208C99.964 93.984 100.535 93.872 101.153 93.872C102.263 93.872 103.121 94.1653 103.729 94.752C104.337 95.328 104.641 96.1173 104.641 97.12V102H103.169L103.025 100.64C102.801 101.077 102.476 101.445 102.049 101.744C101.623 102.043 101.063 102.192 100.369 102.192ZM100.705 100.816C101.164 100.816 101.548 100.709 101.857 100.496C102.177 100.272 102.423 99.9787 102.593 99.616C102.775 99.2533 102.887 98.8533 102.929 98.416H101.041C100.369 98.416 99.8894 98.5333 99.6014 98.768C99.324 99.0027 99.1854 99.296 99.1854 99.648C99.1854 100.011 99.3187 100.299 99.5854 100.512C99.8627 100.715 100.236 100.816 100.705 100.816ZM109.791 102C109.012 102 108.393 101.813 107.935 101.44C107.476 101.056 107.247 100.379 107.247 99.408V95.488H105.887V94.064H107.247L107.455 92.048H108.943V94.064H111.183V95.488H108.943V99.408C108.943 99.8453 109.033 100.149 109.215 100.32C109.407 100.48 109.732 100.56 110.191 100.56H111.103V102H109.791ZM116.099 102.192C115.097 102.192 114.27 101.947 113.619 101.456C112.969 100.965 112.595 100.315 112.499 99.504H114.211C114.297 99.8667 114.499 100.181 114.819 100.448C115.139 100.704 115.561 100.832 116.083 100.832C116.595 100.832 116.969 100.725 117.203 100.512C117.438 100.299 117.555 100.053 117.555 99.776C117.555 99.3707 117.39 99.0987 117.059 98.96C116.739 98.8107 116.291 98.6773 115.715 98.56C115.267 98.464 114.819 98.336 114.371 98.176C113.934 98.016 113.566 97.792 113.267 97.504C112.979 97.2053 112.835 96.8053 112.835 96.304C112.835 95.6107 113.102 95.0347 113.635 94.576C114.169 94.1067 114.915 93.872 115.875 93.872C116.761 93.872 117.475 94.0853 118.019 94.512C118.574 94.9387 118.899 95.5413 118.995 96.32H117.363C117.31 95.9787 117.15 95.712 116.883 95.52C116.627 95.328 116.281 95.232 115.843 95.232C115.417 95.232 115.086 95.3227 114.851 95.504C114.617 95.6747 114.499 95.8987 114.499 96.176C114.499 96.4533 114.659 96.672 114.979 96.832C115.31 96.992 115.742 97.136 116.275 97.264C116.809 97.3813 117.299 97.52 117.747 97.68C118.206 97.8293 118.574 98.0533 118.851 98.352C119.129 98.6507 119.267 99.088 119.267 99.664C119.278 100.389 118.995 100.992 118.419 101.472C117.854 101.952 117.081 102.192 116.099 102.192Z" fill="white" />
</svg>
