<svg width="358" height="404" viewBox="0 0 358 404" fill="none" xmlns="http://www.w3.org/2000/svg">
  <rect x="0.5" width="357" height="404" rx="28" fill="#1F2336" />
  <path d="M356.449 357.896C357.279 362.114 357.617 367.234 357.464 373.258C357.231 382.528 353.685 390.09 346.827 395.943C341.557 400.445 335.34 402.707 328.176 402.732C265.643 402.95 203.101 403.035 140.552 402.987C142.179 402.639 143.904 402.606 145.725 402.89C145.927 402.922 146.068 402.845 146.148 402.659C146.196 402.537 146.196 402.416 146.148 402.295C146.003 401.946 146.116 401.817 146.487 401.906C147.099 402.044 147.631 401.906 148.082 401.493C148.292 401.299 148.348 401.068 148.251 400.801L148.034 400.194C147.984 400.049 147.981 399.893 148.025 399.748C148.068 399.604 148.156 399.479 148.276 399.392C148.55 399.198 148.606 398.943 148.445 398.627C148.243 398.23 147.921 398.016 147.478 397.983C146.487 397.91 146.019 397.376 146.076 396.38C146.084 396.213 146.05 396.046 145.979 395.895C145.794 395.53 145.552 395.344 145.254 395.336C144.488 395.312 144.444 395.129 145.121 394.789C145.346 394.676 145.556 394.526 145.749 394.34C146.064 394.024 146.043 393.737 145.689 393.478C145.31 393.195 144.875 393.004 144.383 392.907C143.868 392.794 143.848 392.624 144.323 392.397C144.621 392.251 144.927 392.162 145.242 392.13C145.661 392.081 145.83 391.851 145.749 391.438C145.685 391.081 145.451 390.843 145.048 390.721C144.46 390.543 143.888 390.442 143.332 390.418C142.752 390.385 142.711 390.223 143.211 389.932C143.469 389.778 143.606 389.559 143.622 389.276C143.638 388.92 143.485 388.616 143.163 388.365C142.864 388.13 142.546 387.993 142.208 387.952C141.732 387.896 141.708 387.758 142.135 387.539C142.353 387.426 142.574 387.373 142.8 387.382C142.977 387.385 143.149 387.318 143.278 387.195C143.407 387.073 143.483 386.904 143.489 386.726C143.497 386.434 143.388 386.208 143.163 386.046C142.993 385.932 142.804 385.859 142.594 385.827C142.32 385.787 142.05 385.714 141.785 385.609C141.382 385.447 141.2 385.147 141.241 384.71C141.289 384.111 141.031 383.637 140.467 383.289C140.338 383.208 140.197 383.168 140.044 383.168C139.907 383.168 139.79 383.135 139.693 383.07C139.444 382.917 139.464 382.807 139.754 382.742C140.181 382.653 140.556 382.467 140.878 382.184C141.224 381.892 141.216 381.609 140.854 381.334C140.467 381.034 140.024 380.852 139.524 380.787C138.984 380.714 138.755 380.411 138.835 379.876C138.932 379.245 138.75 378.751 138.291 378.395C137.872 378.079 137.751 377.674 137.929 377.18C138.154 376.557 137.945 376.225 137.3 376.185C136.688 376.152 136.393 375.828 136.418 375.213C136.458 374.047 135.829 373.444 134.532 373.404C134.476 373.404 134.42 373.381 134.378 373.341C134.336 373.302 134.311 373.247 134.307 373.191C134.304 373.135 134.324 373.081 134.361 373.041C134.399 373.001 134.451 372.979 134.508 372.979C135.112 372.914 135.624 372.744 136.043 372.469C136.72 372.031 136.675 371.687 135.91 371.436L134.677 371.023C134.193 370.861 134.181 370.671 134.641 370.453C134.899 370.323 135.173 370.283 135.463 370.331C135.914 370.404 136.168 370.214 136.224 369.76C136.248 369.59 136.22 369.433 136.14 369.287C135.97 369.003 135.721 368.866 135.39 368.874C134.472 368.906 133.529 368.761 132.562 368.437C132.118 368.283 132.131 368.21 132.598 368.218C133.081 368.218 133.496 367.983 133.843 367.514C133.91 367.422 133.95 367.313 133.959 367.199C133.968 367.085 133.946 366.971 133.894 366.87C133.843 366.768 133.765 366.682 133.668 366.623C133.572 366.563 133.461 366.531 133.347 366.53C132.856 366.53 132.388 366.437 131.945 366.251C131.397 366.032 131.397 365.814 131.945 365.595C132.445 365.393 132.944 365.336 133.444 365.425C133.839 365.49 133.976 365.332 133.855 364.951L133.686 364.417C133.648 364.3 133.574 364.199 133.477 364.127C133.379 364.055 133.262 364.016 133.142 364.016L129.479 364.004C129.399 364.004 129.322 363.972 129.266 363.915C129.209 363.858 129.177 363.781 129.177 363.7V363.385C129.177 363.207 129.266 363.126 129.443 363.142C130.096 363.223 130.68 363.146 131.196 362.911C131.695 362.684 131.744 362.385 131.341 362.012C130.898 361.616 130.313 361.361 129.588 361.247C129.555 361.245 129.522 361.236 129.492 361.221C129.462 361.206 129.436 361.185 129.414 361.16C129.392 361.134 129.375 361.105 129.365 361.073C129.354 361.041 129.35 361.008 129.352 360.974C129.355 360.941 129.364 360.908 129.379 360.878C129.394 360.848 129.414 360.821 129.44 360.799C129.465 360.777 129.494 360.76 129.526 360.75C129.558 360.739 129.591 360.735 129.624 360.737C130.108 360.729 130.587 360.632 131.063 360.446C131.788 360.154 131.816 359.806 131.147 359.401C130.761 359.167 130.334 359.009 129.866 358.928C129.302 358.831 129.258 358.624 129.733 358.308C129.902 358.195 130.092 358.147 130.301 358.163C131.421 358.268 131.691 357.871 131.111 356.973C131.063 356.908 130.869 356.831 130.531 356.742C129.552 356.487 128.839 356.985 127.799 356.438C127.154 356.106 127.191 355.9 127.908 355.819C128.125 355.795 128.339 355.754 128.549 355.697C129.064 355.552 129.201 355.232 128.96 354.738C128.677 354.179 128.19 353.924 127.497 353.973C126.917 354.005 126.86 353.852 127.328 353.512C127.594 353.317 127.884 353.252 128.198 353.317C128.657 353.406 128.915 353.216 128.972 352.746C128.988 352.617 128.972 352.5 128.923 352.394C128.778 352.006 128.504 351.84 128.101 351.896C127.827 351.937 127.569 351.925 127.328 351.86C126.949 351.763 126.776 351.52 126.808 351.131C126.832 350.726 126.76 350.342 126.59 349.978C126.453 349.678 126.22 349.459 125.889 349.322C125.535 349.184 125.156 349.107 124.753 349.091C124.149 349.059 124.125 348.929 124.681 348.702C125.116 348.516 125.567 348.419 126.034 348.411C126.502 348.403 126.659 348.176 126.506 347.731C126.449 347.561 126.357 347.419 126.228 347.306C126.002 347.087 125.728 347.002 125.406 347.051C125.148 347.099 124.926 347.083 124.741 347.002C124.435 346.857 124.298 346.614 124.33 346.274C124.451 344.954 123.778 344.31 122.311 344.343C122.241 344.351 122.17 344.33 122.114 344.286C122.059 344.242 122.023 344.177 122.015 344.106C122.007 344.035 122.028 343.964 122.072 343.908C122.116 343.852 122.18 343.816 122.251 343.808L123.762 343.541C124.568 343.387 124.656 343.047 124.028 342.521C123.601 342.165 123.109 342.031 122.553 342.12C122.086 342.201 121.88 342.003 121.937 341.525C122.114 340.108 121.441 339.4 119.918 339.4C119.854 339.392 119.817 339.36 119.809 339.303C119.785 339.165 119.821 339.04 119.918 338.926C120.015 338.813 120.136 338.773 120.281 338.805C120.804 338.935 121.236 338.833 121.574 338.501C121.912 338.169 121.892 337.866 121.514 337.591C121.111 337.299 120.655 337.194 120.148 337.275C119.672 337.348 119.463 337.141 119.519 336.655C119.696 335.247 119.011 334.538 117.464 334.53C117.384 334.53 117.347 334.49 117.355 334.409C117.372 334.239 117.452 334.093 117.597 333.972C117.664 333.92 117.741 333.886 117.822 333.873C117.903 333.86 117.983 333.869 118.056 333.899C118.645 334.134 119.036 333.996 119.229 333.486C119.551 332.644 119.273 332.328 118.395 332.539C118.073 332.62 117.799 332.611 117.573 332.514C117.186 332.36 117.033 332.077 117.114 331.664C117.307 330.652 116.904 330.081 115.905 329.952C115.76 329.936 115.611 329.895 115.458 329.83C114.692 329.531 114.712 329.3 115.518 329.138C115.913 329.057 116.316 328.96 116.727 328.847C116.843 328.817 116.947 328.75 117.021 328.655C117.095 328.56 117.136 328.444 117.138 328.323C117.139 328.203 117.101 328.085 117.029 327.989C116.956 327.892 116.855 327.822 116.739 327.79L115.107 327.341C114.543 327.179 114.543 327.013 115.107 326.843C115.687 326.673 116.259 326.507 116.824 326.345C116.922 326.317 117.009 326.257 117.07 326.175C117.132 326.093 117.165 325.993 117.165 325.89C117.165 325.787 117.132 325.687 117.07 325.604C117.009 325.522 116.922 325.463 116.824 325.434C115.526 325.094 114.12 324.9 112.605 324.851C112.557 324.851 112.532 324.827 112.532 324.778C112.532 324.633 112.569 324.511 112.641 324.414C112.73 324.285 112.851 324.24 113.004 324.281C113.512 324.394 113.951 324.272 114.321 323.916C114.652 323.6 114.636 323.313 114.273 323.054C113.773 322.69 113.242 322.475 112.677 322.41C112.121 322.346 112.097 322.196 112.605 321.961C113.008 321.775 113.435 321.682 113.886 321.682C114.265 321.682 114.462 321.491 114.479 321.111C114.479 320.998 114.454 320.888 114.406 320.783C114.269 320.459 114.023 320.297 113.669 320.297L112.943 320.285C112.848 320.286 112.753 320.266 112.665 320.227C112.577 320.189 112.498 320.132 112.434 320.061C112.369 319.991 112.319 319.907 112.288 319.816C112.258 319.725 112.246 319.628 112.254 319.532C112.359 318.148 111.67 317.569 110.187 317.796C110.01 317.828 109.897 317.751 109.849 317.565C109.817 317.419 109.833 317.294 109.897 317.188C110.01 316.97 110.179 316.897 110.405 316.97C111.163 317.18 111.715 316.994 112.061 316.411C112.303 316.006 112.194 315.735 111.735 315.597C110.357 315.193 109.067 315.051 107.867 315.172C107.77 315.181 107.722 315.164 107.722 315.124V314.808C107.722 314.606 107.822 314.505 108.024 314.505L111.408 314.492C111.835 314.492 112.001 314.286 111.904 313.873L111.795 313.387C111.714 313.055 111.509 312.918 111.179 312.974C110.22 313.128 109.176 313.047 108.048 312.731C107.532 312.586 107.536 312.46 108.06 312.355C108.568 312.25 109.035 312.035 109.462 311.711C109.857 311.396 109.849 311.092 109.438 310.801C108.987 310.477 108.447 310.278 107.818 310.205C107.286 310.149 107.266 310.011 107.758 309.793C107.983 309.695 108.193 309.55 108.386 309.355C108.505 309.236 108.572 309.074 108.572 308.904C108.572 308.733 108.505 308.568 108.386 308.445C108.265 308.323 108.124 308.238 107.963 308.19C107.488 308.052 107.29 307.736 107.371 307.242C107.492 306.57 107.27 306.024 106.706 305.603C106.497 305.449 106.263 305.388 106.005 305.421C105.828 305.445 105.651 305.433 105.473 305.384C105.414 305.367 105.363 305.329 105.328 305.278C105.293 305.227 105.278 305.165 105.283 305.103C105.289 305.041 105.316 304.984 105.359 304.94C105.403 304.896 105.46 304.868 105.522 304.862C105.892 304.838 106.251 304.749 106.597 304.595C107.339 304.263 107.355 303.899 106.646 303.502C106.34 303.332 106.021 303.239 105.691 303.223C105.199 303.19 104.966 302.927 104.99 302.433C105.062 301.203 104.41 300.571 103.032 300.539C102.971 300.529 102.916 300.499 102.876 300.453C102.835 300.407 102.812 300.349 102.809 300.288C102.806 300.226 102.824 300.166 102.86 300.117C102.896 300.067 102.948 300.032 103.007 300.017L104.627 299.81C104.705 299.8 104.779 299.77 104.843 299.723C104.906 299.677 104.957 299.615 104.989 299.545C105.022 299.474 105.036 299.396 105.03 299.32C105.023 299.243 104.997 299.169 104.954 299.106L104.688 298.681C104.534 298.438 104.313 298.353 104.023 298.426C103.668 298.515 103.362 298.519 103.104 298.438C102.701 298.308 102.54 298.037 102.621 297.624C102.806 296.572 102.399 296.009 101.4 295.936C101.142 295.92 100.936 295.859 100.783 295.754C100.372 295.479 100.409 295.288 100.892 295.183C101.94 294.948 102.363 294.341 102.161 293.362C103.257 293.75 104.317 294.078 105.34 294.345C114.261 296.653 121.683 303.453 128.657 309.076C138.243 316.812 149.533 313.047 158.369 306.55C170.759 297.43 182.411 285.261 196.348 277.234C205.136 272.17 216.462 270.093 225.842 274.125C228.509 275.275 231.007 276.813 233.336 278.74C242.873 286.634 249.207 297.916 256.545 308.007C259.941 312.671 263.567 316.18 269.37 315.828C275.812 315.427 282.593 322.483 286.437 327.268C290.813 332.717 295.04 338.145 299.117 343.553C302.744 348.362 306.378 351.84 310.02 353.985C315.375 357.13 321.08 355.139 326.302 351.641C330.473 348.848 336.287 344.598 341.339 344.974C349.088 345.569 353.778 350.646 356.449 357.896Z" fill="#1083D6" />
  <path d="M138.5 402.805C140.161 402.456 143.142 402.716 145 403C145.206 403.032 146.075 402.611 146.157 402.424C146.206 402.302 146.206 402.927 146.157 402.805C146.009 402.456 146.124 402.326 146.502 402.416C147.127 402.554 147.67 402.415 148.13 402.001C148.344 401.806 148.401 401.575 148.303 401.307L147.514 401C147.463 400.855 148.027 400.395 148.071 400.25C148.116 400.106 148.205 399.98 148.327 399.893C148.607 399.698 148.664 399.442 148.5 399.125C148.294 398.727 147.966 398.512 147.514 398.48C146.502 398.406 145.631 398.999 145.689 398C145.697 397.832 146.057 396.536 145.985 396.384C145.795 396.018 145.077 396.392 144.773 396.384C143.992 396.359 144.419 395.616 145.109 395.275C145.339 395.161 145.553 395.011 145.75 394.824C146.071 394.507 146.05 394.219 145.689 393.959C145.302 393.674 144.082 393.856 143.58 393.758C143.054 393.644 143.81 393.102 144.295 392.874C144.599 392.728 144.912 392.639 145.232 392.606C145.66 392.557 145.832 392.326 145.75 391.911C145.685 391.554 145.446 391.314 145.035 391.193C144.435 391.014 143.309 391.217 142.742 391.193C142.15 391.16 142.651 390.693 143.161 390.4C143.424 390.246 143.564 390.027 143.58 389.742C143.597 389.385 143.44 389.08 143.111 388.828C142.807 388.593 141.345 388.541 141 388.5C140.515 388.443 141.628 388.219 142.063 388C142.285 387.886 142.511 387.833 142.742 387.841C142.923 387.845 143.098 387.778 143.229 387.655C143.361 387.531 143.438 387.362 143.444 387.183C143.453 386.891 143.342 386.664 143.111 386.501C142.939 386.387 142.746 386.314 142.532 386.282C142.252 386.241 141.977 386.168 141.706 386.062C141.295 385.9 140.715 385.939 140.756 385.5C140.806 384.899 140.937 384.084 140.362 383.735C140 384.5 139.729 384.5 139.573 384.5C139.433 384.5 139.671 383.581 139.573 383.516C139.318 383.361 139.338 383.252 139.634 383.187C140.07 383.097 140.452 382.91 140.781 382.626C141.134 382.334 141.126 382.049 140.756 381.773C140.362 381.472 139.91 381.29 139.4 381.225C138.849 381.152 138.615 380.847 138.697 380.311C138.796 379.677 138.611 379.182 138.142 378.824C137.715 378.507 137.591 378.101 137.772 377.605C138.002 376.98 137.789 376.647 137.131 376.606C136.506 376.574 136.206 376.249 136.231 375.631C136.272 374.462 135.631 373.856 134.307 373.816C134.25 373.816 134.193 373.793 134.151 373.753C134.108 373.713 134.082 373.659 134.078 373.603C134.075 373.546 134.095 373.492 134.133 373.452C134.171 373.412 134.225 373.389 134.283 373.389C134.899 373.324 135.421 373.154 135.849 372.877C136.539 372.439 136.494 372.093 135.713 371.842L134.455 371.427C133.962 371.265 133.95 371.074 134.418 370.855C134.681 370.725 134.961 370.684 135.257 370.733C135.717 370.806 135.976 370.615 136.034 370.16C136.058 369.989 136.03 369.831 135.947 369.685C135.775 369.4 135.52 369.262 135.183 369.271C134.246 369.303 133.284 369.157 132.297 368.832C131.845 368.677 131.858 368.604 132.335 368.612C132.828 368.612 133.251 368.377 133.605 367.906C133.673 367.813 133.714 367.704 133.723 367.59C133.732 367.476 133.709 367.362 133.657 367.259C133.605 367.157 133.525 367.072 133.427 367.011C133.328 366.951 133.215 366.919 133.099 366.919C132.598 366.919 132.121 366.825 131.669 366.638C131.11 366.419 131.11 366.2 131.669 365.98C132.178 365.777 132.688 365.72 133.198 365.81C133.6 365.875 133.74 365.716 133.617 365.335L133.444 364.798C133.405 364.681 133.331 364.579 133.231 364.507C133.131 364.435 133.012 364.396 132.889 364.396L129.153 364.384C129.071 364.384 128.993 364.352 128.935 364.295C128.877 364.238 128.845 364.16 128.845 364.079V363.763C128.845 363.584 128.935 363.503 129.116 363.519C129.782 363.6 130.378 363.523 130.904 363.287C131.414 363.06 131.463 362.759 131.052 362.386C130.6 361.988 130.004 361.732 129.264 361.618C129.23 361.615 129.197 361.607 129.167 361.591C129.136 361.576 129.109 361.555 129.087 361.53C129.064 361.505 129.047 361.475 129.036 361.443C129.026 361.411 129.021 361.377 129.024 361.344C129.026 361.31 129.035 361.277 129.051 361.247C129.066 361.217 129.087 361.19 129.113 361.168C129.138 361.146 129.168 361.129 129.201 361.119C129.233 361.108 129.267 361.104 129.301 361.106C129.794 361.098 130.283 361 130.769 360.814C131.508 360.521 131.537 360.172 130.855 359.766C130.46 359.53 130.025 359.372 129.548 359.29C128.972 359.193 128.927 358.986 129.412 358.669C129.585 358.555 129.778 358.506 129.992 358.523C131.134 358.628 131.41 358.23 130.818 357.329C130.768 357.264 130.571 357.186 130.226 357.097C129.227 356.841 128.5 357.341 127.439 356.792C126.782 356.459 126.819 356.252 127.55 356.171C127.772 356.147 127.99 356.106 128.204 356.049C128.73 355.903 128.87 355.582 128.623 355.086C128.335 354.526 127.838 354.27 127.131 354.319C126.539 354.351 126.482 354.197 126.958 353.856C127.23 353.661 127.526 353.596 127.846 353.661C128.315 353.75 128.578 353.559 128.635 353.088C128.652 352.958 128.635 352.84 128.586 352.735C128.438 352.345 128.159 352.178 127.747 352.235C127.468 352.276 127.205 352.263 126.958 352.198C126.572 352.101 126.395 351.857 126.428 351.467C126.453 351.061 126.379 350.675 126.206 350.31C126.066 350.009 125.828 349.79 125.491 349.652C125.129 349.513 124.743 349.436 124.332 349.42C123.715 349.388 123.691 349.258 124.258 349.03C124.702 348.843 125.162 348.746 125.639 348.738C126.116 348.73 126.276 348.502 126.12 348.055C126.062 347.885 125.968 347.742 125.836 347.629C125.606 347.409 125.327 347.324 124.998 347.373C124.735 347.422 124.509 347.405 124.32 347.324C124.007 347.178 123.867 346.934 123.9 346.593C124.024 345.269 123.337 344.623 121.841 344.655C121.769 344.664 121.697 344.643 121.64 344.598C121.584 344.554 121.547 344.489 121.539 344.418C121.531 344.347 121.552 344.275 121.597 344.219C121.642 344.163 121.708 344.127 121.779 344.119L123.321 343.851C124.143 343.697 124.233 343.356 123.592 342.828C123.156 342.47 122.655 342.336 122.088 342.425C121.611 342.507 121.401 342.308 121.459 341.828C121.64 340.407 120.953 339.696 119.4 339.696C119.334 339.688 119.297 339.655 119.289 339.598C119.264 339.46 119.301 339.334 119.4 339.221C119.498 339.107 119.622 339.066 119.77 339.099C120.304 339.229 120.744 339.127 121.089 338.794C121.434 338.461 121.414 338.156 121.027 337.88C120.616 337.588 120.152 337.482 119.634 337.563C119.149 337.636 118.935 337.429 118.993 336.942C119.174 335.528 118.475 334.818 116.897 334.809C116.814 334.809 116.777 334.769 116.786 334.688C116.802 334.517 116.884 334.371 117.032 334.249C117.1 334.197 117.179 334.163 117.261 334.15C117.344 334.137 117.426 334.146 117.501 334.176C118.101 334.411 118.5 334.273 118.697 333.761C119.026 332.917 118.742 332.6 117.846 332.811C117.517 332.892 117.238 332.884 117.008 332.787C116.613 332.632 116.457 332.348 116.539 331.934C116.736 330.918 116.325 330.345 115.306 330.215C115.158 330.199 115.006 330.159 114.85 330.094C114.069 329.793 114.089 329.561 114.911 329.399C115.314 329.318 115.725 329.22 116.144 329.107C116.263 329.077 116.369 329.009 116.444 328.914C116.52 328.819 116.562 328.702 116.563 328.581C116.565 328.46 116.526 328.342 116.452 328.245C116.379 328.149 116.275 328.079 116.157 328.046L114.492 327.596C113.917 327.433 113.917 327.266 114.492 327.096C115.084 326.925 115.668 326.759 116.243 326.596C116.344 326.568 116.432 326.508 116.495 326.426C116.558 326.343 116.592 326.243 116.592 326.139C116.592 326.036 116.558 325.936 116.495 325.853C116.432 325.771 116.344 325.711 116.243 325.682C114.92 325.341 113.485 325.146 111.94 325.097C111.89 325.097 111.866 325.073 111.866 325.024C111.866 324.878 111.903 324.756 111.977 324.659C112.067 324.529 112.19 324.484 112.347 324.525C112.864 324.638 113.312 324.517 113.691 324.159C114.028 323.842 114.011 323.554 113.641 323.294C113.132 322.928 112.589 322.713 112.014 322.648C111.446 322.583 111.422 322.433 111.94 322.197C112.351 322.01 112.786 321.917 113.247 321.917C113.633 321.917 113.834 321.726 113.851 321.344C113.851 321.231 113.826 321.121 113.777 321.015C113.637 320.69 113.386 320.528 113.025 320.528L112.285 320.516C112.187 320.516 112.09 320.496 112.001 320.458C111.911 320.419 111.831 320.362 111.765 320.291C111.699 320.22 111.648 320.136 111.617 320.045C111.585 319.953 111.573 319.856 111.582 319.76C111.689 318.371 110.986 317.79 109.473 318.018C109.293 318.05 109.178 317.973 109.128 317.786C109.095 317.64 109.112 317.514 109.178 317.408C109.293 317.189 109.465 317.116 109.695 317.189C110.468 317.4 111.031 317.213 111.385 316.628C111.631 316.222 111.52 315.95 111.052 315.812C109.646 315.406 108.331 315.264 107.106 315.385C107.007 315.394 106.958 315.377 106.958 315.337L108.591 317C108.591 316.797 107.061 314.715 107.266 314.715L110.719 314.703C111.155 314.703 111.323 314.496 111.224 314.082L111.113 313.594C111.031 313.261 110.822 313.123 110.485 313.18C109.506 313.334 108.442 313.253 107.291 312.936C106.765 312.79 106.522 310.507 107.057 310.402M107.057 310.402C107.575 310.296 108.298 312.238 108.734 311.913C109.136 311.596 109.128 311.291 108.709 310.999C108.249 310.674 107.698 310.475 107.057 310.402ZM107.057 310.402C106.514 310.345 106.494 310.207 106.995 309.987C107.225 309.89 107.439 309.744 107.636 309.549C107.757 309.429 107.825 309.266 107.825 309.095C107.825 308.924 107.757 308.759 107.636 308.635C107.513 308.513 107.369 308.427 107.205 308.379C106.72 308.241 106.518 307.924 106.6 307.428C106.724 306.754 106.498 306.206 105.922 305.783C105.709 305.629 105.47 305.568 105.207 305.6C105.026 305.625 104.845 305.613 104.665 305.564C104.604 305.546 104.552 305.509 104.516 305.457C104.481 305.406 104.465 305.344 104.471 305.282C104.477 305.22 104.504 305.162 104.548 305.118C104.593 305.074 104.408 307.434 104.471 307.428C104.849 307.404 105.458 304.926 105.811 304.772C106.568 304.439 106.584 304.073 105.861 303.675C105.548 303.504 105.224 303.411 104.887 303.395C104.385 303.362 104.887 299.971 102.248 302.603C102.322 301.368 103.579 300.734 102.174 300.702C102.112 300.692 102.056 300.661 102.015 300.615C101.974 300.57 101.949 300.511 101.947 300.45C101.944 300.388 99.9543 302.652 99.9912 302.603C100.028 302.553 102.089 300.193 102.149 300.178L103.801 299.971C103.881 299.96 103.957 299.93 104.021 299.884C104.086 299.837 104.138 299.775 104.171 299.704C104.204 299.633 104.219 299.556 104.212 299.478C104.206 299.401 104.179 299.327 104.134 299.264L103.863 298.837C103.707 298.594 103.481 298.508 103.185 298.581C102.823 298.671 102.511 298.675 102.248 298.594C101.837 298.464 101.672 298.191 101.755 297.777C101.944 296.721 101.528 296.156 100.509 296.083C100.246 296.067 100.036 296.006 99.8803 295.901C99.461 295.624 99.498 295.433 99.9912 295.328C101.06 295.092 101.706 294.483 101.5 293.5" stroke="#2291D9" stroke-width="2" />
  <path d="M101.384 294.454C101.584 295.432 101.163 296.039 100.121 296.273C99.6405 296.378 99.6045 296.568 100.013 296.843C100.165 296.948 100.37 297.009 100.626 297.025C101.62 297.098 102.025 297.66 101.84 298.711C101.76 299.124 101.92 299.395 102.321 299.524C102.578 299.605 102.882 299.601 103.235 299.512C103.523 299.439 103.744 299.524 103.896 299.766L104.16 300.191C104.204 300.254 104.23 300.328 104.236 300.405C104.242 300.481 104.229 300.559 104.196 300.629C104.163 300.7 104.113 300.761 104.05 300.808C103.987 300.854 103.913 300.884 103.836 300.895L102.225 301.101C102.166 301.116 102.115 301.152 102.079 301.201C102.043 301.25 102.025 301.31 102.028 301.371C102.03 301.433 102.054 301.491 102.094 301.536C102.135 301.582 102.189 301.612 102.249 301.622C103.619 301.655 104.268 302.285 104.196 303.515C104.172 304.008 104.405 304.271 104.894 304.303C105.222 304.319 105.539 304.412 105.843 304.582C106.548 304.978 106.532 305.342 105.795 305.674C105.451 305.827 105.094 305.916 104.725 305.94C104.664 305.947 104.607 305.974 104.564 306.018C104.521 306.062 104.494 306.12 104.488 306.181C104.483 306.243 104.498 306.305 104.533 306.356C104.567 306.407 104.618 306.445 104.677 306.462C104.854 306.511 105.03 306.523 105.206 306.498C105.463 306.466 105.695 306.527 105.903 306.68C106.464 307.101 106.685 307.647 106.564 308.318C106.484 308.811 106.681 309.127 107.153 309.264C107.314 309.313 107.454 309.397 107.574 309.519C107.692 309.642 107.759 309.807 107.759 309.977C107.759 310.147 107.692 310.309 107.574 310.428C107.382 310.623 107.174 310.768 106.949 310.865C106.46 311.083 106.48 311.221 107.009 311.278C107.634 311.35 108.171 311.548 108.62 311.872C109.029 312.163 109.037 312.466 108.644 312.782C108.219 313.105 107.755 313.319 107.25 313.425C106.729 313.53 106.725 313.655 107.238 313.801C108.36 314.116 109.397 314.197 110.351 314.043C110.68 313.986 110.884 314.124 110.964 314.456L111.072 314.941C111.168 315.353 111.004 315.559 110.579 315.559L107.214 315.571C107.013 315.571 106.913 315.673 106.913 315.875V316.19C106.913 316.231 106.961 316.247 107.057 316.239C108.251 316.117 109.534 316.259 110.904 316.663C111.361 316.801 111.469 317.071 111.229 317.476C110.884 318.058 110.335 318.244 109.582 318.034C109.357 317.961 109.189 318.034 109.077 318.252C109.013 318.357 108.997 318.483 109.029 318.628C109.077 318.814 109.189 318.891 109.365 318.859C110.84 318.632 111.525 319.21 111.421 320.593C111.412 320.689 111.424 320.785 111.455 320.876C111.485 320.967 111.535 321.051 111.599 321.122C111.663 321.192 111.742 321.249 111.829 321.287C111.916 321.326 112.011 321.346 112.106 321.345L112.827 321.357C113.18 321.357 113.424 321.519 113.561 321.843C113.609 321.948 113.633 322.057 113.633 322.17C113.617 322.55 113.42 322.74 113.044 322.74C112.595 322.74 112.17 322.833 111.769 323.019C111.265 323.254 111.289 323.403 111.842 323.468C112.403 323.533 112.931 323.747 113.428 324.111C113.789 324.37 113.805 324.657 113.476 324.972C113.108 325.328 112.671 325.449 112.166 325.336C112.014 325.295 111.894 325.34 111.806 325.469C111.733 325.566 111.697 325.688 111.697 325.833C111.697 325.882 111.721 325.906 111.769 325.906C113.276 325.954 114.674 326.149 115.965 326.488C116.063 326.516 116.149 326.576 116.21 326.658C116.272 326.74 116.305 326.84 116.305 326.943C116.305 327.046 116.272 327.146 116.21 327.228C116.149 327.31 116.063 327.37 115.965 327.398C115.404 327.56 114.835 327.725 114.258 327.895C113.697 328.065 113.697 328.231 114.258 328.393L115.881 328.841C115.996 328.873 116.097 328.943 116.169 329.039C116.24 329.136 116.278 329.253 116.277 329.374C116.276 329.494 116.235 329.611 116.161 329.705C116.087 329.8 115.984 329.867 115.869 329.897C115.46 330.01 115.059 330.107 114.666 330.188C113.865 330.349 113.845 330.58 114.606 330.879C114.759 330.944 114.907 330.984 115.051 331C116.045 331.13 116.446 331.7 116.253 332.711C116.173 333.123 116.325 333.406 116.71 333.56C116.934 333.657 117.207 333.665 117.527 333.584C118.401 333.374 118.677 333.689 118.357 334.53C118.165 335.04 117.776 335.177 117.191 334.943C117.118 334.913 117.038 334.904 116.958 334.917C116.877 334.929 116.8 334.963 116.734 335.015C116.59 335.137 116.51 335.282 116.494 335.452C116.486 335.533 116.522 335.573 116.602 335.573C118.14 335.581 118.822 336.289 118.645 337.696C118.589 338.181 118.798 338.387 119.27 338.315C119.775 338.234 120.228 338.339 120.629 338.63C121.005 338.905 121.025 339.208 120.689 339.54C120.352 339.871 119.924 339.972 119.403 339.843C119.258 339.811 119.138 339.851 119.042 339.964C118.946 340.077 118.91 340.203 118.934 340.34C118.942 340.397 118.978 340.429 119.042 340.437C120.557 340.437 121.226 341.145 121.049 342.56C120.993 343.037 121.198 343.235 121.663 343.154C122.215 343.065 122.704 343.199 123.129 343.555C123.754 344.08 123.666 344.42 122.865 344.574L121.362 344.84C121.292 344.848 121.228 344.884 121.184 344.94C121.14 344.996 121.12 345.067 121.128 345.138C121.136 345.208 121.171 345.273 121.226 345.317C121.282 345.362 121.352 345.382 121.422 345.374C122.881 345.342 123.55 345.985 123.43 347.303C123.397 347.642 123.534 347.885 123.838 348.03C124.023 348.111 124.243 348.128 124.499 348.079C124.82 348.03 125.092 348.115 125.317 348.334C125.445 348.447 125.537 348.588 125.593 348.758C125.746 349.203 125.589 349.429 125.125 349.438C124.66 349.446 124.211 349.543 123.778 349.729C123.225 349.955 123.249 350.084 123.85 350.117C124.251 350.133 124.628 350.21 124.98 350.347C125.309 350.485 125.541 350.703 125.677 351.002C125.846 351.366 125.918 351.75 125.894 352.155C125.862 352.543 126.034 352.785 126.411 352.882C126.651 352.947 126.908 352.959 127.18 352.919C127.581 352.862 127.853 353.028 127.997 353.416C128.046 353.521 128.062 353.638 128.046 353.768C127.989 354.237 127.733 354.427 127.276 354.338C126.964 354.273 126.675 354.338 126.411 354.532C125.946 354.872 126.002 355.025 126.579 354.993C127.268 354.944 127.753 355.199 128.034 355.757C128.274 356.25 128.138 356.57 127.625 356.715C127.416 356.772 127.204 356.812 126.988 356.837C126.274 356.917 126.238 357.124 126.88 357.455C127.913 358.001 128.623 357.504 129.596 357.758C129.933 357.847 130.125 357.924 130.173 357.989C130.75 358.887 130.482 359.283 129.368 359.178C129.159 359.161 128.971 359.21 128.803 359.323C128.33 359.639 128.374 359.845 128.935 359.942C129.4 360.023 129.825 360.18 130.209 360.415C130.874 360.819 130.846 361.167 130.125 361.458C129.652 361.644 129.175 361.741 128.695 361.749C128.661 361.747 128.628 361.751 128.597 361.762C128.565 361.772 128.536 361.789 128.511 361.811C128.486 361.833 128.465 361.86 128.45 361.89C128.435 361.92 128.427 361.952 128.424 361.986C128.422 362.019 128.426 362.053 128.437 362.085C128.447 362.116 128.464 362.146 128.485 362.171C128.507 362.196 128.534 362.217 128.563 362.232C128.593 362.247 128.625 362.256 128.659 362.259C129.38 362.372 129.961 362.627 130.402 363.023C130.802 363.395 130.754 363.694 130.257 363.92C129.744 364.155 129.164 364.232 128.514 364.151C128.338 364.135 128.25 364.215 128.25 364.393V364.709C128.25 364.789 128.282 364.866 128.338 364.923C128.394 364.98 128.471 365.012 128.55 365.012L132.193 365.024C132.312 365.024 132.429 365.062 132.526 365.134C132.623 365.206 132.696 365.308 132.734 365.424L132.902 365.958C133.022 366.338 132.886 366.496 132.493 366.431C131.996 366.342 131.499 366.399 131.003 366.601C130.458 366.819 130.458 367.038 131.003 367.256C131.443 367.442 131.908 367.535 132.397 367.535C132.51 367.536 132.62 367.567 132.716 367.627C132.812 367.687 132.89 367.773 132.941 367.874C132.992 367.976 133.014 368.09 133.005 368.203C132.996 368.317 132.956 368.425 132.89 368.517C132.545 368.986 132.133 369.221 131.652 369.221C131.187 369.213 131.175 369.286 131.616 369.439C132.577 369.763 133.515 369.908 134.429 369.876C134.757 369.868 135.006 370.005 135.174 370.288C135.254 370.434 135.282 370.592 135.258 370.761C135.202 371.214 134.949 371.404 134.501 371.332C134.212 371.283 133.94 371.323 133.683 371.453C133.227 371.671 133.238 371.861 133.719 372.023L134.945 372.435C135.707 372.686 135.751 373.03 135.078 373.466C134.661 373.741 134.152 373.911 133.551 373.976C133.495 373.976 133.443 373.998 133.405 374.038C133.368 374.078 133.349 374.132 133.352 374.188C133.355 374.244 133.38 374.298 133.422 374.338C133.464 374.378 133.519 374.4 133.575 374.4C134.865 374.441 135.49 375.043 135.45 376.208C135.426 376.822 135.719 377.146 136.328 377.178C136.969 377.219 137.177 377.55 136.953 378.173C136.777 378.666 136.897 379.07 137.314 379.386C137.77 379.741 137.951 380.235 137.854 380.866C137.774 381.399 138.003 381.702 138.54 381.775C139.036 381.84 139.477 382.022 139.862 382.321C140.223 382.596 140.231 382.879 139.886 383.17C139.565 383.453 139.193 383.639 138.768 383.728C138.48 383.793 138.46 383.902 138.708 384.056C138.804 384.12 138.92 384.153 139.057 384.153C139.209 384.153 139.349 384.193 139.477 384.274C140.038 384.622 140.295 385.095 140.247 385.693C140.207 386.13 140.387 386.429 140.788 386.591C141.052 386.696 141.32 386.769 141.593 386.809C141.801 386.841 141.99 386.914 142.158 387.027C142.382 387.189 142.49 387.416 142.482 387.707C142.476 387.885 142.401 388.053 142.273 388.176C142.145 388.298 141.974 388.365 141.797 388.362C141.573 388.354 141.353 388.406 141.136 388.519C140.711 388.738 140.735 388.875 141.208 388.932C141.545 388.972 141.861 389.11 142.158 389.344C142.478 389.595 142.631 389.898 142.615 390.254C142.599 390.537 142.462 390.755 142.206 390.909C141.709 391.2 141.749 391.362 142.326 391.394C142.879 391.418 143.448 391.519 144.033 391.697C144.434 391.819 144.666 392.057 144.73 392.413C144.811 392.825 144.642 393.056 144.225 393.104C143.913 393.137 143.608 393.226 143.312 393.371C142.839 393.598 142.859 393.767 143.372 393.881C143.861 393.978 144.294 394.168 144.67 394.451C145.023 394.71 145.043 394.997 144.73 395.312C144.538 395.498 144.33 395.648 144.105 395.761C143.432 396.1 143.476 396.282 144.237 396.307C144.534 396.315 144.774 396.501 144.959 396.865C145.03 397.016 145.063 397.182 145.055 397.35C144.999 398.344 145.464 398.878 146.449 398.951C146.89 398.983 147.211 399.197 147.411 399.594C147.571 399.909 147.515 400.164 147.243 400.358C147.124 400.445 147.036 400.57 146.993 400.714C146.95 400.858 146.953 401.014 147.002 401.158L147.219 401.765C147.315 402.032 147.259 402.262 147.05 402.456C146.602 402.869 146.073 403.006 145.464 402.869C145.095 402.78 144.983 402.909 145.127 403.257C145.175 403.378 145.175 403.499 145.127 403.621C145.047 403.807 144.907 403.884 144.706 403.851C142.895 403.568 141.18 403.601 139.561 403.948C81.0685 404.013 44.4933 404.017 29.836 403.96C16.0482 403.9 3.66683 393.201 1.20258 379.725C0.0646114 373.523 0.309016 366.763 1.93582 359.445C5.90267 348.77 12.2496 341.65 20.0391 332.65C27.3477 324.184 33.7548 315.098 40.8831 306.28C47.0377 298.663 55.921 291.749 66.1267 293.192C71.4158 293.944 76.2602 294.405 81.8498 294.247C88.4692 294.053 94.9805 294.122 101.384 294.454Z" fill="#349EDC" />
  <g clip-path="url(#clip0_36_11153)">
    <path d="M44.3572 89.5715H37.5715C36.8516 89.5715 36.1612 89.2855 35.6522 88.7765C35.1431 88.2674 34.8572 87.577 34.8572 86.8572V61.0715C34.8572 60.3516 35.1431 59.6612 35.6522 59.1522C36.1612 58.6431 36.8516 58.3572 37.5715 58.3572H47.5872C48.2072 58.3391 48.8147 58.534 49.3086 58.9093C49.8025 59.2846 50.1529 59.8178 50.3015 60.42L51.0615 63.7857H67.3472C68.0671 63.7857 68.7574 64.0717 69.2665 64.5807C69.7755 65.0898 70.0615 65.7802 70.0615 66.5V77.3572" stroke="white" stroke-width="3" stroke-linecap="round" stroke-linejoin="round" />
    <path d="M60.6431 85.5C60.6431 84.44 60.6431 83.8457 60.6431 82.7857M69.9259 91.2272C70.1251 91.5963 70.179 92.0265 70.077 92.4334C69.975 92.8402 69.7246 93.1942 69.3749 93.4257C69.1402 93.5685 68.8706 93.6437 68.5959 93.6429H52.6631C52.3878 93.6432 52.1178 93.5673 51.883 93.4236C51.6483 93.2799 51.4579 93.0739 51.3331 92.8286C51.2 92.5827 51.1304 92.3075 51.1304 92.0279C51.1304 91.7483 51.2 91.4731 51.3331 91.2272L59.3402 76.7872C59.4502 76.5175 59.6381 76.2867 59.8798 76.1243C60.1215 75.9618 60.4061 75.8751 60.6974 75.8751C60.9886 75.8751 61.2732 75.9618 61.5149 76.1243C61.7567 76.2867 61.9445 76.5175 62.0545 76.7872L69.9259 91.2272Z" stroke="white" stroke-width="3" stroke-linecap="round" stroke-linejoin="round" />
    <path d="M60.6969 89.843C60.607 89.843 60.5207 89.8073 60.457 89.7436C60.3934 89.68 60.3577 89.5937 60.3577 89.5037C60.3577 89.4137 60.3934 89.3274 60.457 89.2638C60.5207 89.2002 60.607 89.1644 60.6969 89.1644M60.6969 89.843C60.7869 89.843 60.8732 89.8073 60.9369 89.7436C61.0005 89.68 61.0362 89.5937 61.0362 89.5037C61.0362 89.4137 61.0005 89.3274 60.9369 89.2638C60.8732 89.2002 60.7869 89.1644 60.6969 89.1644" stroke="white" stroke-linecap="round" stroke-linejoin="round" />
  </g>
  <path d="M97.7891 84V70.492H93.2351V68.6H104.653V70.492H100.121V84H97.7891ZM106.747 84V68.16H109.079V74.848C109.446 74.2173 109.952 73.726 110.597 73.374C111.257 73.0073 111.983 72.824 112.775 72.824C114.081 72.824 115.107 73.2347 115.855 74.056C116.603 74.8773 116.977 76.102 116.977 77.73V84H114.667V77.972C114.667 75.86 113.824 74.804 112.137 74.804C111.257 74.804 110.524 75.112 109.937 75.728C109.365 76.344 109.079 77.224 109.079 78.368V84H106.747ZM119.724 84V73.088H121.814L122.012 75.156C122.393 74.4373 122.921 73.8727 123.596 73.462C124.285 73.0367 125.114 72.824 126.082 72.824V75.266H125.444C124.799 75.266 124.219 75.376 123.706 75.596C123.207 75.8013 122.804 76.1607 122.496 76.674C122.203 77.1727 122.056 77.8693 122.056 78.764V84H119.724ZM132.885 84.264C131.814 84.264 130.861 84.0293 130.025 83.56C129.203 83.076 128.558 82.4087 128.089 81.558C127.619 80.7073 127.385 79.7173 127.385 78.588C127.385 77.444 127.612 76.4393 128.067 75.574C128.536 74.7087 129.181 74.034 130.003 73.55C130.839 73.066 131.807 72.824 132.907 72.824C133.977 72.824 134.909 73.066 135.701 73.55C136.493 74.0193 137.109 74.65 137.549 75.442C137.989 76.234 138.209 77.1067 138.209 78.06C138.209 78.2067 138.201 78.368 138.187 78.544C138.187 78.7053 138.179 78.8887 138.165 79.094H129.673C129.746 80.15 130.091 80.9567 130.707 81.514C131.337 82.0567 132.063 82.328 132.885 82.328C133.545 82.328 134.095 82.1813 134.535 81.888C134.989 81.58 135.327 81.1693 135.547 80.656H137.879C137.585 81.6827 136.999 82.5407 136.119 83.23C135.253 83.9193 134.175 84.264 132.885 84.264ZM132.885 74.738C132.107 74.738 131.418 74.9727 130.817 75.442C130.215 75.8967 129.849 76.586 129.717 77.51H135.877C135.833 76.6593 135.532 75.9847 134.975 75.486C134.417 74.9873 133.721 74.738 132.885 74.738ZM144.324 84.264C143.4 84.264 142.638 84.11 142.036 83.802C141.435 83.494 140.988 83.0907 140.694 82.592C140.401 82.0787 140.254 81.5213 140.254 80.92C140.254 79.864 140.665 79.028 141.486 78.412C142.308 77.796 143.481 77.488 145.006 77.488H147.866V77.29C147.866 76.4393 147.632 75.8013 147.162 75.376C146.708 74.9507 146.114 74.738 145.38 74.738C144.735 74.738 144.17 74.8993 143.686 75.222C143.217 75.53 142.931 75.992 142.828 76.608H140.496C140.57 75.816 140.834 75.1413 141.288 74.584C141.758 74.012 142.344 73.5793 143.048 73.286C143.767 72.978 144.552 72.824 145.402 72.824C146.928 72.824 148.108 73.2273 148.944 74.034C149.78 74.826 150.198 75.9113 150.198 77.29V84H148.174L147.976 82.13C147.668 82.7313 147.221 83.2373 146.634 83.648C146.048 84.0587 145.278 84.264 144.324 84.264ZM144.786 82.372C145.417 82.372 145.945 82.2253 146.37 81.932C146.81 81.624 147.148 81.2207 147.382 80.722C147.632 80.2233 147.786 79.6733 147.844 79.072H145.248C144.324 79.072 143.664 79.2333 143.268 79.556C142.887 79.8787 142.696 80.282 142.696 80.766C142.696 81.2647 142.88 81.6607 143.246 81.954C143.628 82.2327 144.141 82.372 144.786 82.372ZM157.279 84C156.208 84 155.357 83.7433 154.727 83.23C154.096 82.702 153.781 81.7707 153.781 80.436V75.046H151.911V73.088H153.781L154.067 70.316H156.113V73.088H159.193V75.046H156.113V80.436C156.113 81.0373 156.237 81.4553 156.487 81.69C156.751 81.91 157.198 82.02 157.829 82.02H159.083V84H157.279ZM165.953 84.264C164.574 84.264 163.438 83.9267 162.543 83.252C161.648 82.5773 161.135 81.6827 161.003 80.568H163.357C163.474 81.0667 163.753 81.4993 164.193 81.866C164.633 82.218 165.212 82.394 165.931 82.394C166.635 82.394 167.148 82.2473 167.471 81.954C167.794 81.6607 167.955 81.3233 167.955 80.942C167.955 80.3847 167.728 80.0107 167.273 79.82C166.833 79.6147 166.217 79.4313 165.425 79.27C164.809 79.138 164.193 78.962 163.577 78.742C162.976 78.522 162.47 78.214 162.059 77.818C161.663 77.4073 161.465 76.8573 161.465 76.168C161.465 75.2147 161.832 74.4227 162.565 73.792C163.298 73.1467 164.325 72.824 165.645 72.824C166.862 72.824 167.845 73.1173 168.593 73.704C169.356 74.2907 169.803 75.1193 169.935 76.19H167.691C167.618 75.7207 167.398 75.354 167.031 75.09C166.679 74.826 166.202 74.694 165.601 74.694C165.014 74.694 164.56 74.8187 164.237 75.068C163.914 75.3027 163.753 75.6107 163.753 75.992C163.753 76.3733 163.973 76.674 164.413 76.894C164.868 77.114 165.462 77.312 166.195 77.488C166.928 77.6493 167.603 77.84 168.219 78.06C168.85 78.2653 169.356 78.5733 169.737 78.984C170.118 79.3947 170.309 79.996 170.309 80.788C170.324 81.7853 169.935 82.614 169.143 83.274C168.366 83.934 167.302 84.264 165.953 84.264Z" fill="white" />
  <path d="M36.1361 144V142.48C37.0428 141.76 37.9094 141.033 38.7361 140.3C39.5628 139.567 40.2961 138.847 40.9361 138.14C41.5894 137.42 42.1028 136.72 42.4761 136.04C42.8494 135.347 43.0361 134.68 43.0361 134.04C43.0361 133.613 42.9628 133.213 42.8161 132.84C42.6694 132.453 42.4294 132.147 42.0961 131.92C41.7628 131.68 41.3161 131.56 40.7561 131.56C39.9161 131.56 39.2828 131.827 38.8561 132.36C38.4428 132.893 38.2428 133.533 38.2561 134.28H36.1961C36.2094 133.293 36.4161 132.467 36.8161 131.8C37.2294 131.133 37.7761 130.627 38.4561 130.28C39.1494 129.933 39.9294 129.76 40.7961 129.76C42.1161 129.76 43.1694 130.133 43.9561 130.88C44.7561 131.613 45.1561 132.64 45.1561 133.96C45.1561 134.747 44.9628 135.527 44.5761 136.3C44.2028 137.073 43.7094 137.82 43.0961 138.54C42.4961 139.247 41.8494 139.913 41.1561 140.54C40.4628 141.167 39.8028 141.733 39.1761 142.24H45.5761V144H36.1361ZM56.1805 144V131.72H52.0405V130H62.4205V131.72H58.3005V144H56.1805ZM64.3244 144V129.6H66.4444V135.68C66.7777 135.107 67.2377 134.66 67.8244 134.34C68.4244 134.007 69.0844 133.84 69.8044 133.84C70.991 133.84 71.9244 134.213 72.6044 134.96C73.2844 135.707 73.6244 136.82 73.6244 138.3V144H71.5244V138.52C71.5244 136.6 70.7577 135.64 69.2244 135.64C68.4244 135.64 67.7577 135.92 67.2244 136.48C66.7044 137.04 66.4444 137.84 66.4444 138.88V144H64.3244ZM76.1213 144V134.08H78.0213L78.2013 135.96C78.5479 135.307 79.0279 134.793 79.6413 134.42C80.2679 134.033 81.0213 133.84 81.9013 133.84V136.06H81.3213C80.7346 136.06 80.2079 136.16 79.7413 136.36C79.2879 136.547 78.9213 136.873 78.6413 137.34C78.3746 137.793 78.2413 138.427 78.2413 139.24V144H76.1213ZM88.0855 144.24C87.1121 144.24 86.2455 144.027 85.4855 143.6C84.7388 143.16 84.1521 142.553 83.7255 141.78C83.2988 141.007 83.0855 140.107 83.0855 139.08C83.0855 138.04 83.2921 137.127 83.7055 136.34C84.1321 135.553 84.7188 134.94 85.4655 134.5C86.2255 134.06 87.1055 133.84 88.1055 133.84C89.0788 133.84 89.9255 134.06 90.6455 134.5C91.3655 134.927 91.9255 135.5 92.3255 136.22C92.7255 136.94 92.9255 137.733 92.9255 138.6C92.9255 138.733 92.9188 138.88 92.9055 139.04C92.9055 139.187 92.8988 139.353 92.8855 139.54H85.1655C85.2321 140.5 85.5455 141.233 86.1055 141.74C86.6788 142.233 87.3388 142.48 88.0855 142.48C88.6855 142.48 89.1855 142.347 89.5855 142.08C89.9988 141.8 90.3055 141.427 90.5055 140.96H92.6255C92.3588 141.893 91.8255 142.673 91.0255 143.3C90.2388 143.927 89.2588 144.24 88.0855 144.24ZM88.0855 135.58C87.3788 135.58 86.7521 135.793 86.2055 136.22C85.6588 136.633 85.3255 137.26 85.2055 138.1H90.8055C90.7655 137.327 90.4921 136.713 89.9855 136.26C89.4788 135.807 88.8455 135.58 88.0855 135.58ZM98.4852 144.24C97.6452 144.24 96.9518 144.1 96.4052 143.82C95.8585 143.54 95.4518 143.173 95.1852 142.72C94.9185 142.253 94.7852 141.747 94.7852 141.2C94.7852 140.24 95.1585 139.48 95.9052 138.92C96.6518 138.36 97.7185 138.08 99.1052 138.08H101.705V137.9C101.705 137.127 101.492 136.547 101.065 136.16C100.652 135.773 100.112 135.58 99.4452 135.58C98.8585 135.58 98.3452 135.727 97.9052 136.02C97.4785 136.3 97.2185 136.72 97.1252 137.28H95.0052C95.0718 136.56 95.3118 135.947 95.7252 135.44C96.1518 134.92 96.6852 134.527 97.3252 134.26C97.9785 133.98 98.6918 133.84 99.4652 133.84C100.852 133.84 101.925 134.207 102.685 134.94C103.445 135.66 103.825 136.647 103.825 137.9V144H101.985L101.805 142.3C101.525 142.847 101.118 143.307 100.585 143.68C100.052 144.053 99.3518 144.24 98.4852 144.24ZM98.9052 142.52C99.4785 142.52 99.9585 142.387 100.345 142.12C100.745 141.84 101.052 141.473 101.265 141.02C101.492 140.567 101.632 140.067 101.685 139.52H99.3252C98.4852 139.52 97.8852 139.667 97.5252 139.96C97.1785 140.253 97.0052 140.62 97.0052 141.06C97.0052 141.513 97.1718 141.873 97.5052 142.14C97.8518 142.393 98.3185 142.52 98.9052 142.52ZM110.262 144C109.288 144 108.515 143.767 107.942 143.3C107.368 142.82 107.082 141.973 107.082 140.76V135.86H105.382V134.08H107.082L107.342 131.56H109.202V134.08H112.002V135.86H109.202V140.76C109.202 141.307 109.315 141.687 109.542 141.9C109.782 142.1 110.188 142.2 110.762 142.2H111.902V144H110.262ZM118.148 144.24C116.894 144.24 115.861 143.933 115.048 143.32C114.234 142.707 113.768 141.893 113.648 140.88H115.788C115.894 141.333 116.148 141.727 116.548 142.06C116.948 142.38 117.474 142.54 118.128 142.54C118.768 142.54 119.234 142.407 119.528 142.14C119.821 141.873 119.968 141.567 119.968 141.22C119.968 140.713 119.761 140.373 119.348 140.2C118.948 140.013 118.388 139.847 117.668 139.7C117.108 139.58 116.548 139.42 115.988 139.22C115.441 139.02 114.981 138.74 114.608 138.38C114.248 138.007 114.068 137.507 114.068 136.88C114.068 136.013 114.401 135.293 115.068 134.72C115.734 134.133 116.668 133.84 117.868 133.84C118.974 133.84 119.868 134.107 120.548 134.64C121.241 135.173 121.648 135.927 121.768 136.9H119.728C119.661 136.473 119.461 136.14 119.128 135.9C118.808 135.66 118.374 135.54 117.828 135.54C117.294 135.54 116.881 135.653 116.588 135.88C116.294 136.093 116.148 136.373 116.148 136.72C116.148 137.067 116.348 137.34 116.748 137.54C117.161 137.74 117.701 137.92 118.368 138.08C119.034 138.227 119.648 138.4 120.208 138.6C120.781 138.787 121.241 139.067 121.588 139.44C121.934 139.813 122.108 140.36 122.108 141.08C122.121 141.987 121.768 142.74 121.048 143.34C120.341 143.94 119.374 144.24 118.148 144.24ZM130.661 132.2C130.261 132.2 129.928 132.08 129.661 131.84C129.408 131.587 129.281 131.273 129.281 130.9C129.281 130.527 129.408 130.22 129.661 129.98C129.928 129.727 130.261 129.6 130.661 129.6C131.061 129.6 131.388 129.727 131.641 129.98C131.908 130.22 132.041 130.527 132.041 130.9C132.041 131.273 131.908 131.587 131.641 131.84C131.388 132.08 131.061 132.2 130.661 132.2ZM129.601 144V134.08H131.721V144H129.601ZM134.52 144V134.08H136.4L136.56 135.82C136.866 135.207 137.313 134.727 137.9 134.38C138.5 134.02 139.186 133.84 139.96 133.84C141.16 133.84 142.1 134.213 142.78 134.96C143.473 135.707 143.82 136.82 143.82 138.3V144H141.72V138.52C141.72 136.6 140.933 135.64 139.36 135.64C138.573 135.64 137.92 135.92 137.4 136.48C136.893 137.04 136.64 137.84 136.64 138.88V144H134.52ZM155.516 144C154.542 144 153.769 143.767 153.196 143.3C152.622 142.82 152.336 141.973 152.336 140.76V135.86H150.636V134.08H152.336L152.596 131.56H154.456V134.08H157.256V135.86H154.456V140.76C154.456 141.307 154.569 141.687 154.796 141.9C155.036 142.1 155.442 142.2 156.016 142.2H157.156V144H155.516ZM159.442 144V129.6H161.562V135.68C161.895 135.107 162.355 134.66 162.942 134.34C163.542 134.007 164.202 133.84 164.922 133.84C166.108 133.84 167.042 134.213 167.722 134.96C168.402 135.707 168.742 136.82 168.742 138.3V144H166.642V138.52C166.642 136.6 165.875 135.64 164.342 135.64C163.542 135.64 162.875 135.92 162.342 136.48C161.822 137.04 161.562 137.84 161.562 138.88V144H159.442ZM175.878 144.24C174.905 144.24 174.038 144.027 173.278 143.6C172.532 143.16 171.945 142.553 171.518 141.78C171.092 141.007 170.878 140.107 170.878 139.08C170.878 138.04 171.085 137.127 171.498 136.34C171.925 135.553 172.512 134.94 173.258 134.5C174.018 134.06 174.898 133.84 175.898 133.84C176.872 133.84 177.718 134.06 178.438 134.5C179.158 134.927 179.718 135.5 180.118 136.22C180.518 136.94 180.718 137.733 180.718 138.6C180.718 138.733 180.712 138.88 180.698 139.04C180.698 139.187 180.692 139.353 180.678 139.54H172.958C173.025 140.5 173.338 141.233 173.898 141.74C174.472 142.233 175.132 142.48 175.878 142.48C176.478 142.48 176.978 142.347 177.378 142.08C177.792 141.8 178.098 141.427 178.298 140.96H180.418C180.152 141.893 179.618 142.673 178.818 143.3C178.032 143.927 177.052 144.24 175.878 144.24ZM175.878 135.58C175.172 135.58 174.545 135.793 173.998 136.22C173.452 136.633 173.118 137.26 172.998 138.1H178.598C178.558 137.327 178.285 136.713 177.778 136.26C177.272 135.807 176.638 135.58 175.878 135.58ZM191.317 144.24C190.477 144.24 189.784 144.1 189.237 143.82C188.691 143.54 188.284 143.173 188.017 142.72C187.751 142.253 187.617 141.747 187.617 141.2C187.617 140.24 187.991 139.48 188.737 138.92C189.484 138.36 190.551 138.08 191.937 138.08H194.537V137.9C194.537 137.127 194.324 136.547 193.897 136.16C193.484 135.773 192.944 135.58 192.277 135.58C191.691 135.58 191.177 135.727 190.737 136.02C190.311 136.3 190.051 136.72 189.957 137.28H187.837C187.904 136.56 188.144 135.947 188.557 135.44C188.984 134.92 189.517 134.527 190.157 134.26C190.811 133.98 191.524 133.84 192.297 133.84C193.684 133.84 194.757 134.207 195.517 134.94C196.277 135.66 196.657 136.647 196.657 137.9V144H194.817L194.637 142.3C194.357 142.847 193.951 143.307 193.417 143.68C192.884 144.053 192.184 144.24 191.317 144.24ZM191.737 142.52C192.311 142.52 192.791 142.387 193.177 142.12C193.577 141.84 193.884 141.473 194.097 141.02C194.324 140.567 194.464 140.067 194.517 139.52H192.157C191.317 139.52 190.717 139.667 190.357 139.96C190.011 140.253 189.837 140.62 189.837 141.06C189.837 141.513 190.004 141.873 190.337 142.14C190.684 142.393 191.151 142.52 191.737 142.52ZM203.089 144.24C201.836 144.24 200.802 143.933 199.989 143.32C199.176 142.707 198.709 141.893 198.589 140.88H200.729C200.836 141.333 201.089 141.727 201.489 142.06C201.889 142.38 202.416 142.54 203.069 142.54C203.709 142.54 204.176 142.407 204.469 142.14C204.762 141.873 204.909 141.567 204.909 141.22C204.909 140.713 204.702 140.373 204.289 140.2C203.889 140.013 203.329 139.847 202.609 139.7C202.049 139.58 201.489 139.42 200.929 139.22C200.382 139.02 199.922 138.74 199.549 138.38C199.189 138.007 199.009 137.507 199.009 136.88C199.009 136.013 199.342 135.293 200.009 134.72C200.676 134.133 201.609 133.84 202.809 133.84C203.916 133.84 204.809 134.107 205.489 134.64C206.182 135.173 206.589 135.927 206.709 136.9H204.669C204.602 136.473 204.402 136.14 204.069 135.9C203.749 135.66 203.316 135.54 202.769 135.54C202.236 135.54 201.822 135.653 201.529 135.88C201.236 136.093 201.089 136.373 201.089 136.72C201.089 137.067 201.289 137.34 201.689 137.54C202.102 137.74 202.642 137.92 203.309 138.08C203.976 138.227 204.589 138.4 205.149 138.6C205.722 138.787 206.182 139.067 206.529 139.44C206.876 139.813 207.049 140.36 207.049 141.08C207.062 141.987 206.709 142.74 205.989 143.34C205.282 143.94 204.316 144.24 203.089 144.24ZM213.323 144.24C212.07 144.24 211.037 143.933 210.223 143.32C209.41 142.707 208.943 141.893 208.823 140.88H210.963C211.07 141.333 211.323 141.727 211.723 142.06C212.123 142.38 212.65 142.54 213.303 142.54C213.943 142.54 214.41 142.407 214.703 142.14C214.997 141.873 215.143 141.567 215.143 141.22C215.143 140.713 214.937 140.373 214.523 140.2C214.123 140.013 213.563 139.847 212.843 139.7C212.283 139.58 211.723 139.42 211.163 139.22C210.617 139.02 210.157 138.74 209.783 138.38C209.423 138.007 209.243 137.507 209.243 136.88C209.243 136.013 209.577 135.293 210.243 134.72C210.91 134.133 211.843 133.84 213.043 133.84C214.15 133.84 215.043 134.107 215.723 134.64C216.417 135.173 216.823 135.927 216.943 136.9H214.903C214.837 136.473 214.637 136.14 214.303 135.9C213.983 135.66 213.55 135.54 213.003 135.54C212.47 135.54 212.057 135.653 211.763 135.88C211.47 136.093 211.323 136.373 211.323 136.72C211.323 137.067 211.523 137.34 211.923 137.54C212.337 137.74 212.877 137.92 213.543 138.08C214.21 138.227 214.823 138.4 215.383 138.6C215.957 138.787 216.417 139.067 216.763 139.44C217.11 139.813 217.283 140.36 217.283 141.08C217.297 141.987 216.943 142.74 216.223 143.34C215.517 143.94 214.55 144.24 213.323 144.24ZM224.238 144.24C223.264 144.24 222.398 144.027 221.638 143.6C220.891 143.16 220.304 142.553 219.878 141.78C219.451 141.007 219.238 140.107 219.238 139.08C219.238 138.04 219.444 137.127 219.858 136.34C220.284 135.553 220.871 134.94 221.618 134.5C222.378 134.06 223.258 133.84 224.258 133.84C225.231 133.84 226.078 134.06 226.798 134.5C227.518 134.927 228.078 135.5 228.478 136.22C228.878 136.94 229.078 137.733 229.078 138.6C229.078 138.733 229.071 138.88 229.058 139.04C229.058 139.187 229.051 139.353 229.038 139.54H221.318C221.384 140.5 221.698 141.233 222.258 141.74C222.831 142.233 223.491 142.48 224.238 142.48C224.838 142.48 225.338 142.347 225.738 142.08C226.151 141.8 226.458 141.427 226.658 140.96H228.778C228.511 141.893 227.978 142.673 227.178 143.3C226.391 143.927 225.411 144.24 224.238 144.24ZM224.238 135.58C223.531 135.58 222.904 135.793 222.358 136.22C221.811 136.633 221.478 137.26 221.358 138.1H226.958C226.918 137.327 226.644 136.713 226.138 136.26C225.631 135.807 224.998 135.58 224.238 135.58ZM235.184 144C234.21 144 233.437 143.767 232.864 143.3C232.29 142.82 232.004 141.973 232.004 140.76V135.86H230.304V134.08H232.004L232.264 131.56H234.124V134.08H236.924V135.86H234.124V140.76C234.124 141.307 234.237 141.687 234.464 141.9C234.704 142.1 235.11 142.2 235.684 142.2H236.824V144H235.184ZM243.07 144.24C241.816 144.24 240.783 143.933 239.97 143.32C239.156 142.707 238.69 141.893 238.57 140.88H240.71C240.816 141.333 241.07 141.727 241.47 142.06C241.87 142.38 242.396 142.54 243.05 142.54C243.69 142.54 244.156 142.407 244.45 142.14C244.743 141.873 244.89 141.567 244.89 141.22C244.89 140.713 244.683 140.373 244.27 140.2C243.87 140.013 243.31 139.847 242.59 139.7C242.03 139.58 241.47 139.42 240.91 139.22C240.363 139.02 239.903 138.74 239.53 138.38C239.17 138.007 238.99 137.507 238.99 136.88C238.99 136.013 239.323 135.293 239.99 134.72C240.656 134.133 241.59 133.84 242.79 133.84C243.896 133.84 244.79 134.107 245.47 134.64C246.163 135.173 246.57 135.927 246.69 136.9H244.65C244.583 136.473 244.383 136.14 244.05 135.9C243.73 135.66 243.296 135.54 242.75 135.54C242.216 135.54 241.803 135.653 241.51 135.88C241.216 136.093 241.07 136.373 241.07 136.72C241.07 137.067 241.27 137.34 241.67 137.54C242.083 137.74 242.623 137.92 243.29 138.08C243.956 138.227 244.57 138.4 245.13 138.6C245.703 138.787 246.163 139.067 246.51 139.44C246.856 139.813 247.03 140.36 247.03 141.08C247.043 141.987 246.69 142.74 245.97 143.34C245.263 143.94 244.296 144.24 243.07 144.24Z" fill="white" />
  <path d="M302.959 85V83.328C303.956 82.536 304.91 81.7367 305.819 80.93C306.728 80.1233 307.535 79.3313 308.239 78.554C308.958 77.762 309.522 76.992 309.933 76.244C310.344 75.4813 310.549 74.748 310.549 74.044C310.549 73.5747 310.468 73.1347 310.307 72.724C310.146 72.2987 309.882 71.9613 309.515 71.712C309.148 71.448 308.657 71.316 308.041 71.316C307.117 71.316 306.42 71.6093 305.951 72.196C305.496 72.7827 305.276 73.4867 305.291 74.308H303.025C303.04 73.2227 303.267 72.3133 303.707 71.58C304.162 70.8467 304.763 70.2893 305.511 69.908C306.274 69.5267 307.132 69.336 308.085 69.336C309.537 69.336 310.696 69.7467 311.561 70.568C312.441 71.3747 312.881 72.504 312.881 73.956C312.881 74.8213 312.668 75.6793 312.243 76.53C311.832 77.3807 311.29 78.202 310.615 78.994C309.955 79.7713 309.244 80.5047 308.481 81.194C307.718 81.8833 306.992 82.5067 306.303 83.064H313.343V85H302.959Z" fill="white" />
  <defs>
    <clipPath id="clip0_36_11153">
      <rect width="38" height="38" fill="white" transform="translate(33.5 57)" />
    </clipPath>
  </defs>
</svg>
