<svg width="39" height="39" viewBox="0 0 39 39" fill="none" xmlns="http://www.w3.org/2000/svg">
<g clip-path="url(#clip0_37_176)">
<path d="M11.3569 33.0441H4.57122C3.85135 33.0441 3.16096 32.7581 2.65193 32.2491C2.1429 31.7401 1.85693 31.0497 1.85693 30.3298V4.54411C1.85693 3.82424 2.1429 3.13385 2.65193 2.62482C3.16096 2.11579 3.85135 1.82983 4.57122 1.82983H14.5869C15.207 1.81176 15.8145 2.00662 16.3083 2.38195C16.8022 2.75728 17.1526 3.29045 17.3012 3.89268L18.0612 7.2584H34.3469C35.0668 7.2584 35.7572 7.54437 36.2662 8.05339C36.7752 8.56242 37.0612 9.25281 37.0612 9.97268V20.8298" stroke="white"  stroke-width="2" stroke-linecap="round" stroke-linejoin="round"/>
<path d="M27.6426 28.9727C27.6426 27.9127 27.6426 27.3184 27.6426 26.2584M36.9254 34.6998C37.1246 35.0689 37.1785 35.4992 37.0765 35.906C36.9745 36.3128 36.7241 36.6668 36.3744 36.8984C36.1398 37.0412 35.8702 37.1163 35.5954 37.1155H19.6626C19.3873 37.1159 19.1173 37.04 18.8826 36.8963C18.6478 36.7525 18.4574 36.5466 18.3326 36.3013C18.1995 36.0553 18.1299 35.7801 18.1299 35.5005C18.1299 35.2209 18.1995 34.9457 18.3326 34.6998L26.3397 20.2598C26.4497 19.9902 26.6376 19.7594 26.8793 19.5969C27.121 19.4345 27.4056 19.3477 27.6969 19.3477C27.9881 19.3477 28.2727 19.4345 28.5145 19.5969C28.7562 19.7594 28.944 19.9902 29.054 20.2598L36.9254 34.6998Z" stroke="white"  stroke-width="2" stroke-linecap="round" stroke-linejoin="round"/>
<path d="M27.6965 33.3157C27.6065 33.3157 27.5202 33.2799 27.4565 33.2163C27.3929 33.1527 27.3572 33.0664 27.3572 32.9764C27.3572 32.8864 27.3929 32.8001 27.4565 32.7365C27.5202 32.6728 27.6065 32.6371 27.6965 32.6371M27.6965 33.3157C27.7864 33.3157 27.8727 33.2799 27.9364 33.2163C28 33.1527 28.0357 33.0664 28.0357 32.9764C28.0357 32.8864 28 32.8001 27.9364 32.7365C27.8727 32.6728 27.7864 32.6371 27.6965 32.6371" stroke="white" stroke-linecap="round" stroke-linejoin="round"/>
</g>
<defs>
<clipPath id="clip0_37_176">
<rect width="38" height="38" fill="white" transform="translate(0.5 0.472687)"/>
</clipPath>
</defs>
</svg>
