<svg width="144" height="100" viewBox="0 0 144 100" fill="none" xmlns="http://www.w3.org/2000/svg">
  <path d="M72 36.25C76.0041 36.25 79.25 33.0041 79.25 29C79.25 24.9959 76.0041 21.75 72 21.75C67.9959 21.75 64.75 24.9959 64.75 29C64.75 33.0041 67.9959 36.25 72 36.25Z" fill="white" />
  <path d="M99.079 28.3837C96.9472 22.8695 93.2463 18.1007 88.4338 14.6669C83.6213 11.2331 77.908 9.28466 72.0002 9.0625C66.0924 9.28466 60.3792 11.2331 55.5666 14.6669C50.7541 18.1007 47.0532 22.8695 44.9215 28.3837C44.7775 28.782 44.7775 29.218 44.9215 29.6163C47.0532 35.1305 50.7541 39.8993 55.5666 43.3331C60.3792 46.7669 66.0924 48.7153 72.0002 48.9375C77.908 48.7153 83.6213 46.7669 88.4338 43.3331C93.2463 39.8993 96.9472 35.1305 99.079 29.6163C99.2229 29.218 99.2229 28.782 99.079 28.3837ZM72.0002 40.7812C69.6701 40.7812 67.3923 40.0903 65.4549 38.7958C63.5175 37.5012 62.0074 35.6612 61.1158 33.5085C60.2241 31.3557 59.9907 28.9869 60.4453 26.7016C60.8999 24.4163 62.022 22.317 63.6696 20.6694C65.3172 19.0218 67.4165 17.8997 69.7018 17.4451C71.9871 16.9905 74.356 17.2239 76.5087 18.1155C78.6614 19.0072 80.5014 20.5173 81.796 22.4547C83.0905 24.3921 83.7815 26.6699 83.7815 29C83.7767 32.1231 82.5339 35.1169 80.3255 37.3253C78.1171 39.5337 75.1233 40.7765 72.0002 40.7812Z" fill="white" />
  <path d="M55.7667 94L51.1587 81.4H53.6247L57.1887 91.642L60.7707 81.4H63.2007L58.5927 94H55.7667ZM65.8866 83.686C65.4666 83.686 65.1186 83.56 64.8426 83.308C64.5786 83.056 64.4466 82.738 64.4466 82.354C64.4466 81.97 64.5786 81.658 64.8426 81.418C65.1186 81.166 65.4666 81.04 65.8866 81.04C66.3066 81.04 66.6486 81.166 66.9126 81.418C67.1886 81.658 67.3266 81.97 67.3266 82.354C67.3266 82.738 67.1886 83.056 66.9126 83.308C66.6486 83.56 66.3066 83.686 65.8866 83.686ZM64.7346 94V85.072H67.0386V94H64.7346ZM73.7814 94.216C72.8814 94.216 72.0834 94.024 71.3874 93.64C70.6914 93.256 70.1454 92.716 69.7494 92.02C69.3534 91.324 69.1554 90.52 69.1554 89.608C69.1554 88.684 69.3474 87.862 69.7314 87.142C70.1274 86.422 70.6674 85.864 71.3514 85.468C72.0474 85.06 72.8634 84.856 73.7994 84.856C74.6754 84.856 75.4494 85.048 76.1214 85.432C76.7934 85.816 77.3154 86.344 77.6874 87.016C78.0714 87.676 78.2634 88.414 78.2634 89.23C78.2634 89.362 78.2574 89.5 78.2454 89.644C78.2454 89.788 78.2394 89.938 78.2274 90.094H71.4414C71.4894 90.79 71.7294 91.336 72.1614 91.732C72.6054 92.128 73.1394 92.326 73.7634 92.326C74.2314 92.326 74.6214 92.224 74.9334 92.02C75.2574 91.804 75.4974 91.528 75.6534 91.192H77.9934C77.8254 91.756 77.5434 92.272 77.1474 92.74C76.7634 93.196 76.2834 93.556 75.7074 93.82C75.1434 94.084 74.5014 94.216 73.7814 94.216ZM73.7994 86.728C73.2354 86.728 72.7374 86.89 72.3054 87.214C71.8734 87.526 71.5974 88.006 71.4774 88.654H75.9234C75.8874 88.066 75.6714 87.598 75.2754 87.25C74.8794 86.902 74.3874 86.728 73.7994 86.728ZM81.5957 94L78.9857 85.072H81.2717L82.8197 91.498L84.6197 85.072H87.1757L88.9757 91.498L90.5417 85.072H92.8277L90.1997 94H87.8057L85.8977 87.322L83.9897 94H81.5957Z" fill="white" />
</svg>
